<?xml version="1.0" standalone="no"?>
<!DOCTYPE svg PUBLIC "-//W3C//DTD SVG 1.1//EN" "http://www.w3.org/Graphics/SVG/1.1/DTD/svg11.dtd" >
<svg xmlns="http://www.w3.org/2000/svg">
<metadata></metadata>
<defs>
<font id="southpawregular" horiz-adv-x="618" >
<font-face units-per-em="2048" ascent="1638" descent="-410" />
<missing-glyph horiz-adv-x="782" />
<glyph horiz-adv-x="0" />
<glyph horiz-adv-x="682" />
<glyph horiz-adv-x="0" />
<glyph horiz-adv-x="0" />
<glyph unicode="&#xd;" horiz-adv-x="782" />
<glyph unicode=" "  horiz-adv-x="782" />
<glyph unicode="&#x09;" horiz-adv-x="782" />
<glyph unicode="&#xa0;" horiz-adv-x="782" />
<glyph unicode="!" horiz-adv-x="458" d="M2 45q0 11 8 27q10 27 23 30t33 -18q47 -50 47 -115q3 -51 -21 -75q-50 -44 -74 18q-20 53 -16 133zM90 305v14q0 1 3 26t9 36q43 76 74 221q9 35 31.5 134t40 167t35.5 131q9 31 33.5 116t37.5 128t34.5 110t41.5 121q12 35 31 54q17 19 37 4q9 -6 20 -17q31 -26 34 -48 t-17 -60q-25 -46 -76 -197q-39 -119 -90 -287q-28 -92 -60 -235q-5 -22 -10 -47t-11 -54.5t-9 -46.5q-15 -80 -56 -190q-25 -70 -73 -115q-23 -19 -39 -8q-21 18 -21 43z" />
<glyph unicode="&#x22;" horiz-adv-x="247" d="M174 1290q20 100 72 199q15 35 39 22q25 -9 22 -49q0 -11 -8 -35q-27 -71 -57 -141q-2 -7 -11 -20q-12 -27 -30 -21q-14 5 -22.5 18t-4.5 27zM328 1440q-8 32 12 63q6 9 17 10.5t18 -4.5q28 -25 31 -63q2 -18 3.5 -47t2.5 -35v-94q-2 -13 -11 -35q-10 -32 -32 -29 q-22 6 -29 33q-6 24 -6 49q4 101 -6 152z" />
<glyph unicode="#" horiz-adv-x="1030" d="M2 1004q-3 14 10 24q2 1 8 4.5t9 3.5q8 2 29.5 8t36.5 9t30 4q114 6 217 -8l18 -3q-1 1 -5 1l-29 7q1 1 20 -1h31q16 2 23.5 7.5t11.5 22.5l6 33l6 33q2 14 10 41q6 24 33 27q41 3 62 -27t12 -80q-1 -3 -3 -10t-3 -10q-5 -29 2 -41t30 -13q29 -2 90 -2q22 0 30 7.5 t11 31.5q15 99 -10 201q-8 25 -10 35q-4 17 4.5 30.5t22.5 16.5q43 6 65 -31q37 -61 43 -141v-115q0 -34 6.5 -43.5t32.5 -13.5q25 -3 76 -10.5t76 -10.5q53 -6 71 -65q10 -23 -12 -37q-21 -12 -35 -10q-22 0 -72 4q-15 1 -31 3t-34.5 5t-30.5 4q-43 5 -52 -2.5t-15 -56.5 q-10 -57 -17 -138q-2 -22 6 -30.5t27 -5.5q88 12 184 43q31 11 72 14q23 0 41 -25q20 -28 16 -51t-32 -33q-66 -23 -107 -32q-11 -2 -34 -7.5t-37.5 -9t-34.5 -6t-37 -2.5h-6q-6 -1 -21 -4t-18 -4t-12.5 -4.5t-10.5 -7.5t-5.5 -10.5t-4 -16t0 -22.5t1.5 -31v-52 q0 -72 27 -125q4 -6 8 -18q3 -10 -4.5 -20.5t-16.5 -8.5q-60 8 -84 84q-30 93 -28 156q2 46 -7.5 58t-50.5 12h-86q-22 -1 -29.5 -10.5t-7.5 -32.5v-30v-32t0.5 -29.5t1 -31.5t2 -29t3.5 -30.5t5 -28.5t7 -30.5t9.5 -27t12.5 -28.5q7 -17 -1 -31t-23 -12q-46 6 -68 57 q-18 43 -24 96q-10 111 -11 137q-1 9 -2 29t-2 29q-3 36 -30 39q-51 12 -72 14q-18 3 -54.5 8t-54.5 8q-25 4 -47 14.5t-31.5 21.5t-3.5 18q15 20 41 23.5t47 -1.5q114 -4 170 -4q13 0 19.5 7t9.5 24q6 27 10 155v82q0 20 -5.5 27t-22.5 12q-31 9 -43 9h-11l9 1q-2 2 -25 5 q-160 16 -242 14q-29 0 -43 2q-14 3 -14 21zM317 961zM487 678q3 -30 27 -33h61h66q21 3 27 27q17 94 14 200q0 37 -27 43q-69 21 -118 19q-34 0 -37 -39q-2 -34 -6.5 -101.5t-6.5 -101.5v-14z" />
<glyph unicode="$" horiz-adv-x="1249" d="M2 92q0 18 13 32.5t30 14.5q23 0 47 -6q26 -6 64 -15.5t51 -12.5t35 -8t35 -6t31.5 -2t43.5 -1q151 0 455 4q56 0 65 14q2 4 2 9q0 2 -4 14q-15 28 -31.5 105.5t-35.5 97.5q-10 10 -44 48.5t-59.5 63.5t-35.5 25q-4 0 -6.5 -3.5t-4 -10t-2.5 -13t-1.5 -17.5t-0.5 -17v-17 v-14v-19.5v-20.5t0.5 -18.5t2 -19t4 -16.5t6.5 -18t10 -15q10 -13 10 -27q0 -33 -22 -73.5t-44 -40.5q-11 0 -20 6t-15 19t-10.5 27t-7 35t-4 37t-2 40.5t-0.5 38.5v37v30q0 25 3 76t3 77q0 35 -16 70t-29 52t-52 57.5t-46 48.5q-124 137 -170 203q-82 118 -82 206 q0 36 20.5 68.5t48.5 54.5t76 45t84 36t93.5 33t84.5 30q21 8 42.5 31.5t36.5 43t22 19.5q5 0 32.5 -16.5t43.5 -16.5q13 0 28 6q171 62 324 62q93 0 140.5 -42.5t80.5 -129.5q6 -21 6 -41q0 -76 -37 -76q-16 0 -31 20.5t-20 42.5q-16 54 -54 71t-97 17q-61 0 -125 -14.5 t-64 -46.5q1 -25 4.5 -69t5.5 -80t2 -68q0 -109 -4 -332t-4 -332q0 -45 1.5 -70.5t13 -59.5t34.5 -50q14 -10 55 -38t69.5 -49t61.5 -48t50.5 -50.5t17.5 -41.5q0 -28 -8.5 -46t-27 -26.5t-34 -12t-42.5 -6.5t-39 -5q-150 -17 -268 -17q-44 0 -134 4h-149q-27 -8 -59 -8 q-16 0 -66 10q-6 -2 -14 -2q-20 0 -29 6h-2q-96 0 -216 36t-120 81zM276 1139q0 -56 68.5 -159t137 -179t77.5 -76q14 0 24.5 84.5t22.5 255t15 203.5q0 35 -19 35q-6 0 -12 -3q-8 -3 -46.5 -15.5t-59 -20t-57.5 -21.5t-58.5 -25t-45.5 -25t-35.5 -27.5t-11.5 -26.5z M659 678q0 -6 1.5 -18t1.5 -17v-8q0 -34 61 -104t78 -70q8 0 12 29t5 82t1 101t-1 113t-1 91h4q0 22 0.5 92.5t0 129t-3.5 122.5t-12 101.5t-24 37.5q-41 0 -55 -20t-14 -60l-51 -584q0 -3 -1.5 -9t-1.5 -9z" />
<glyph unicode="%" horiz-adv-x="1087" d="M75 856.5q-2 43.5 11.5 92t40.5 98.5q24 44 59 74.5t66 41.5t61 15.5t45 -2.5q28 -9 56.5 -42t25.5 -51q0 -17 -12.5 -53t-24.5 -59q-1 -3 -9.5 -23.5t-16.5 -38.5t-24.5 -43t-35 -43t-48 -33t-62.5 -18q-63 -6 -96.5 17.5t-35.5 67zM172 909q-2 -14 11 -22t30 -4 q36 6 47 30q31 51 72 131q6 11 -4 21.5t-25 7.5q-8 0 -18 -4q-23 -6 -31 -14q-70 -58 -82 -146zM211 147q-12 49 8 76q59 76 146 258q139 285 243 459q18 28 113 197q58 99 76 127q24 45 63 6q12 -9 21 -21q29 -31 29.5 -53.5t-25.5 -54.5q-80 -99 -152 -226 q-190 -336 -196 -348q-71 -136 -164 -334q-9 -18 -20.5 -36t-28 -41t-23.5 -33q-15 -21 -39 -21q-41 7 -51 45zM650 303q-12 47 3 98q10 32 18.5 57t24 65t32.5 69t38.5 57t48.5 41.5t55 11.5q87 -9 129.5 -87.5t24.5 -168.5q-14 -69 -69 -141t-130 -117q-37 -22 -75 -11 t-63 45t-37 81zM793 346q0 -11 10 -24q23 0 28 4q51 31 72.5 97t-6.5 112q-11 20 -41 10q-27 -7 -45 -43q-33 -74 -18 -156z" />
<glyph unicode="&#x26;" d="M-37 1079q-3 57 41 84q29 18 51 2q105 -72 115 -80q9 -6 29.5 -22.5t33.5 -24.5q33 -23 52 11q5 7 15.5 21.5t16 23.5t11 23.5t6.5 29.5q3 21 20 35q15 14 29 9.5t20 -26.5q25 -107 27 -155v-43q3 -126 78 -166q49 -29 127 -123q53 -64 63 -168q3 -34 -12 -55t-43 -23 h-22q-3 1 -42 9.5t-61 13.5q-5 1 -15.5 4t-15.5 4q-38 8 -45.5 2t-15.5 -51q-11 -69 -35 -107q-26 -37 -56.5 -36.5t-55.5 38.5q-13 22 -70 129q-2 3 -5 9.5t-5 9.5q-22 40 -34.5 45.5t-49.5 -8.5q-6 -2 -19.5 -7.5t-19.5 -7.5q-25 -8 -45 15q-27 30 -11 65q18 45 43 86 q39 57 7 129q-20 42 -70 162q-35 87 -37 143zM92 975q15 -54 47 -123q6 -9 16.5 -9t14.5 9q9 16 20 45q7 19 -4 33q-23 34 -84 61q-13 -3 -10 -16zM208 668q17 -38 60 -47q7 -1 20.5 -3.5t20.5 -3.5q24 0 27 25q6 41 6 68q1 63 -8 88.5t-41 50.5q-22 16 -39 -4 q-17 -23 -43 -86q-20 -50 -3 -88zM440 625q0 -34 33 -47q57 -17 82 -15q9 1 13 10.5t-1 16.5q-12 22 -28 39.5t-42 39.5t-34 29q-6 4 -12.5 1t-8.5 -9l-2 -22v-43z" />
<glyph unicode="'" horiz-adv-x="155" d="M66 1532q0 17 8 41q11 28 29 31.5t32 -21.5q36 -58 39 -127v-22q4 -30 -4 -50q-13 -36 -41 -36q-27 0 -39 28q-6 13 -10 27q-17 59 -14 129z" />
<glyph unicode="(" horiz-adv-x="387" d="M-41 473h2v29q5 25 7.5 55.5t3 46t0 58.5t-0.5 51q0 71 17 121q12 43 16 112q6 153 64 301q79 218 112 283q66 128 148 219q26 29 60.5 29.5t60.5 -27.5q19 -19 17 -42t-22 -38q-83 -65 -161 -203q-91 -165 -144 -358q-14 -46 -41 -190q-48 -249 -28 -578 q16 -252 84 -453q62 -185 206 -237q43 -16 33 -43q-2 -6 -5 -9.5t-6 -5.5t-8 -3t-7.5 -1h-8.5h-8q-33 -2 -86 27q-140 81 -207 283q-58 165 -77 364q-3 35 -10.5 104.5t-10.5 104.5z" />
<glyph unicode=")" horiz-adv-x="364" d="M0 -473q0 31 12 39q5 4 33 18q109 54 158 201q79 239 86 555q3 141 -13 297q-3 36 -12 150t-16 176q-20 163 -94 436q-17 69 -68 211q-27 79 -53 121q-11 19 -19 61q-4 23 7 37.5t30 9.5q46 -9 70 -53q32 -62 47 -111q31 -88 111 -393q44 -172 55 -276q4 -39 16.5 -152.5 t18.5 -191.5t8 -154q1 -21 3 -76t2 -75t-1 -74q-1 -18 -2.5 -69.5t-4.5 -87t-9 -69.5q-15 -113 -19 -135q-4 -27 -12 -56.5t-19 -68t-16 -55.5q-29 -99 -98 -174q-41 -46 -111 -70q-30 -10 -65 0q-22 3 -25 29z" />
<glyph unicode="*" horiz-adv-x="583" d="M-33 1274q-3 24 17 37q22 22 49 22h18h37q13 3 24 0.5t23.5 0.5t20.5 16q-2 14 -8 25.5t-16.5 25t-14.5 20.5q-7 11 -26.5 33t-27.5 37q-13 36 0 61q29 54 68 15q26 -26 59 -72q5 -5 15.5 -17.5t15.5 -17.5q5 -8 17 -8q8 0 8 14q1 7 3 21.5t3 21.5q5 35 33 70q9 11 20 -4 q2 -4 6 -13.5t6 -13.5q3 -6 7 -18.5t8.5 -21t13.5 -11.5q5 -1 9.5 0.5t10 5t9.5 6t10.5 8t9.5 7.5q29 21 86 49q14 6 21.5 3t15.5 -17q1 -3 4 -9.5t4 -9.5q12 -30 -8 -53q-18 -18 -24 -21q-30 -12 -80.5 -52.5t-55.5 -43.5q-10 -10 -12 -14q-4 -12 -4 -21q4 -11 14 -14 q6 -2 23 -2q33 -4 49 0q48 5 90 -51q9 -12 -4 -25q-1 -1 -18 -12t-17 -25q0 -10 5 -18.5t8.5 -11.5t15.5 -10l12 -7q12 -9 32 -26.5t37.5 -31t33.5 -22.5q18 -9 24.5 -28t-0.5 -37q-13 -41 -53 -35q-52 10 -82 43q-78 75 -160 133q-14 9 -16 10q-5 2 -8.5 -1t-3.5 -9 q-4 -29 2 -51q16 -85 45 -125q6 -8 16 -37q3 -7 -1.5 -17.5t-10.5 -13.5q-39 -10 -62 19q-48 65 -55 127q-3 20 -8 57.5t-8 56.5q-15 73 -66 25q-39 -39 -65 -47q-32 -13 -35 25q-1 11 0 21t-2 21t-11 17q-5 4 -11.5 6.5t-11 3t-13 1.5t-11.5 1q-16 0 -24 2q-23 8 -25 27z " />
<glyph unicode="+" horiz-adv-x="622" d="M0 649q0 17 23 21q54 12 83 16q66 12 99 14q36 5 39 37l6 66t6 67v31q-4 36 31 49q47 19 90 0q26 -13 22 -41q-11 -79 -12 -84q-15 -62 -2 -73t82 4q29 7 57 14q24 6 68 8q18 1 29 2q35 0 65 -6q16 -1 26.5 -10.5t12.5 -20.5q0 -21 -10.5 -35.5t-28.5 -17.5l-36 -3 l-36 -3q-42 -1 -62.5 -3t-29 -4.5t-32 -10t-58.5 -15.5q-19 -3 -41 -10q-30 -6 -37 -33q-8 -31 -10 -47q-3 -42 -47 -145q-14 -38 -57 -60q-15 -7 -27 -1.5t-14 20.5v12q1 6 2 18.5t2 18.5h-2q2 16 10 53q1 5 6 31t6 41q2 14 2.5 20t0 15t-4 11.5t-10 5.5t-18 2.5 t-27.5 -3.5q-32 -5 -109 8q-7 1 -39 17q-18 6 -18 24z" />
<glyph unicode="," horiz-adv-x="292" d="M6 -649q1 3 2.5 13.5t2.5 14t3 12.5t4 13t5 11.5t6 11.5l7.5 10t10 10t12.5 8q102 61 162 236q68 197 68 352q0 6 1 18.5t1 18.5q6 55 53 31q23 -10 35 -50q4 -13 8 -43q1 -6 2 -17.5t2 -16.5q-1 -13 -3 -37t-4 -43.5t-5 -36.5q-47 -205 -109 -344q-57 -124 -178 -193 q-30 -17 -57 -14q-16 0 -24.5 9.5t-4.5 25.5z" />
<glyph unicode="-" horiz-adv-x="1095" d="M48 697q77 38 208 61q22 4 39 6q29 3 98.5 5.5t106.5 6.5q287 38 520 41q55 0 52.5 -27.5t-50.5 -56.5q-42 -26 -82 -26q-56 -2 -100.5 1.5t-63 4t-98.5 -7.5q-34 -3 -180.5 -15.5t-180.5 -15.5q-32 -3 -101 -23t-103 -22q-23 0 -47 6q-102 20 -18 62z" />
<glyph unicode="." horiz-adv-x="405" d="M88 8q-1 45 17 70.5t51 25.5q68 0 104 -41q33 -33 27 -90q-11 -62 -60 -75q-6 0 -20 -7q-58 -16 -84 12t-35 87v18z" />
<glyph unicode="/" horiz-adv-x="524" d="M-27 -37q21 100 76 213q66 136 160 309q17 34 40.5 73t39 63.5t47.5 72t43 64.5q128 197 192 307q45 75 199 330q11 19 31.5 57.5t32.5 58.5q10 22 22 41q16 23 39 13q23 -7 29 -33q2 -8 2 -21q0 -29 -11 -51q-12 -32 -24 -49q-227 -370 -367 -588q-24 -38 -70.5 -107 t-83.5 -126t-67 -111q-140 -244 -205 -395q-37 -93 -39 -145q-3 -48 -43 -74q-11 -9 -22.5 -5.5t-16.5 17.5q-14 39 -4 86z" />
<glyph unicode="0" horiz-adv-x="958" d="M8 211q6 204 92 405q88 204 265 388q101 101 243 194q79 52 174 74q75 22 129 22q28 -2 68 -20q34 -15 45.5 -52.5t-0.5 -86.5q-4 -19 -23 -52q-15 -23 -27 -24.5t-30 14.5q-5 3 -12 12t-12 11q-1 0 -8 2t-10.5 2.5t-8 -1t-6.5 -5.5q-4 -14 -4 -18.5t5.5 -15.5l6.5 -13 q41 -67 72 -173q41 -147 16.5 -299t-104.5 -260q-18 -25 -42 -50.5t-39 -39t-47.5 -40.5t-41.5 -35q-29 -25 -88 -52t-68 -32q-76 -45 -158 -60q-10 -2 -34 -6.5t-41.5 -7t-34.5 -2.5q-64 -19 -162 20q-33 11 -55 33q-63 51 -60 168zM113 264q0 -38 9 -56t34 -30 q16 -7 32 -11t36 -6.5t28 -4.5h18q136 14 232 53q137 54 198 102q89 68 134 158q73 144 36 309q-23 101 -82 213q-33 66 -48 74t-68 -16q-11 -4 -19 -9q-18 -12 -62.5 -40t-76.5 -50t-63 -47q-131 -121 -203 -235q-99 -161 -129 -336q-6 -60 -6 -68z" />
<glyph unicode="1" horiz-adv-x="321" d="M8 -45q20 89 51 240q8 34 31 133t37 153q44 175 86 303q13 37 24.5 80t24.5 95.5t21 80.5q8 29 32 117q4 24 17.5 66.5t17.5 58.5q7 29 15 47q36 62 90 17q18 -13 18 -41q0 -24 -12 -60q-60 -154 -94 -297t-109 -360q-5 -15 -11 -46t-11 -46q-14 -54 -38.5 -159 t-35.5 -149q-11 -56 -37 -217q-3 -13 -8 -36.5t-8 -34.5q-10 -15 -21 -19q-33 -9 -59.5 14.5t-20.5 59.5z" />
<glyph unicode="2" horiz-adv-x="815" d="M20 109q8 33 41 98q76 127 170 242q44 51 154 166t166 182q122 142 197 274q29 37 20 64q-3 10 -7.5 16t-11.5 8t-11.5 2.5t-14 0t-12.5 -0.5q-76 0 -152 -28q-124 -42 -174 -74q-38 -26 -70 -29t-50.5 23t-10.5 63q10 60 49 76q122 61 222.5 94.5t203.5 36.5 q73 3 131 -43q45 -33 45 -98q-3 -96 -35 -160q-46 -84 -98 -150q-116 -151 -295 -350q-20 -22 -74 -81.5t-90.5 -101.5t-68.5 -85q-43 -51 -56 -86q-16 -43 23 -57q12 -5 49 0q55 7 164.5 21.5t165.5 21.5q7 0 41 2.5t41 2t41 -2.5q16 -2 16 -27q-4 -38 -8 -53 q-3 -27 -25 -31q-82 -19 -100 -22q-224 -49 -313 -64q-18 -3 -109 -8q-67 5 -82 8q-47 10 -65.5 50.5t-6.5 99.5z" />
<glyph unicode="3" horiz-adv-x="931" d="M20 225q1 6 11 8.5t16 -0.5q15 -5 35 -34q55 -90 172 -90q155 0 262 47q22 10 77 31.5t85 35.5q72 28 184 129q40 32 0 68q-11 13 -39 29q-168 92 -311 145q-16 6 -45.5 12.5t-40.5 9.5q-34 3 -55 19q-41 25 -35 82q6 53 47 65q16 5 33 11.5t30.5 12t31 16.5t28 17 t29.5 20.5t26.5 19.5t28.5 23t26 22t28 24t26 23q15 15 43.5 44.5t42.5 43.5q4 6 13 17.5t13 17.5q18 32 15 47q-2 6 -5 10.5t-6 7t-8.5 3.5t-8 1h-8.5h-7q-84 8 -176 -24q-98 -37 -252 -125q-49 -30 -70 -35q-30 -9 -48 8t-20 53q0 42 27 56q77 44 150 84q95 49 104 53 q130 62 266 65q79 4 123 -22q61 -34 55 -107q-3 -101 -53 -165q-87 -117 -213 -218q-6 -2 -16.5 -9.5t-12.5 -8.5q-1 -1 -9.5 -7.5t-11.5 -9.5t-7 -10t-4 -14q0 -12 5 -18.5t17.5 -11t14.5 -5.5q27 -14 82 -39.5t83 -38.5q105 -52 164 -108q46 -46 50.5 -111.5t-35.5 -118.5 q-22 -27 -35 -34q-59 -45 -96.5 -72t-93.5 -58.5t-107 -48.5q-180 -63 -316 -86q-103 -18 -221 48q-26 13 -63 61q-34 47 -15 139z" />
<glyph unicode="4" horiz-adv-x="849" d="M-14 502q-12 48 4 96q33 128 84 225q9 16 25.5 51t25.5 52q38 73 98 176q31 51 41 84q9 29 29.5 39.5t46.5 -0.5q34 -10 37 -49q9 -68 -35 -121q-54 -81 -137 -236q-25 -38 -74 -151q-1 -2 -6 -15.5t-6 -19.5q-3 -15 3.5 -26t18.5 -11q11 1 32.5 2t31.5 2q21 4 65.5 20.5 t69.5 18.5q27 4 84 15.5t84 15.5q47 6 67 55q114 264 158 426q5 15 19.5 50.5t19.5 55.5q22 64 29 105q12 37 18 47q24 45 60 0q50 -56 20 -131q-19 -50 -55.5 -169.5t-61.5 -180.5q-11 -25 -63 -158q-19 -51 2 -86q5 -9 6.5 -21t0.5 -19.5t-3.5 -24.5t-3.5 -21q0 -3 -2 -6 t-5.5 -6.5t-4.5 -5.5q-2 0 -8 -3.5t-9 -3.5q-63 -12 -94 -104q-15 -34 -59 -133.5t-66 -153.5q-19 -42 -47 -119q-11 -30 -47 -79q-16 -26 -51 -17q-34 12 -43 51q-6 14 4 33q49 119 106 244q7 17 80 182q10 26 4 35q-9 13 -35 8q-22 -6 -64.5 -18t-77 -22t-64.5 -21 q-60 -20 -150 -31q-37 -7 -88 41q-10 8 -14 33z" />
<glyph unicode="5" horiz-adv-x="970" d="M43 801q3 13 17.5 64t23.5 91t4 45q-33 29 -37.5 80.5t19.5 96.5q15 24 34 14q2 -1 6.5 -3t6.5 -3q98 -82 262 -78q286 13 403 25q50 10 78 12q34 5 76 -12q15 -6 46 -15.5t46 -15.5q21 -4 10 -23q-1 -3 -3.5 -8.5t-3 -8t-1 -6.5t1.5 -7.5t6 -8.5q22 -22 27 -34 q4 -8 4 -17q0 -12 -14 -12q-28 1 -101.5 -11t-89.5 -12q-74 -2 -128 -4.5t-111 -9.5t-86.5 -11t-108 -16.5t-123.5 -19.5q-101 -38 -90 -256q0 -11 4.5 -19.5t9 -13t13.5 -11t12 -9.5q37 -23 105.5 -68.5t124.5 -80.5t108 -60q23 -10 74.5 -35.5t76.5 -36.5q43 -17 68 -65 q18 -38 6 -72q-13 -61 -55 -84q-114 -63 -141 -76q-55 -28 -123 -50.5t-115 -32.5t-127 -25q-60 -5 -121 36q-28 23 -40.5 49.5t-8.5 69.5q0 8 -3 26t-3 27q0 29 12 39q12 12 25 -4q33 -53 77 -66.5t107 -6.5q123 21 244 71q21 11 47 29q5 3 5.5 14.5t-3.5 16.5 q-39 29 -53 34q-55 27 -114.5 64.5t-133 87t-113.5 74.5q-16 10 -40 36.5t-31 32.5q-44 44 -63.5 124.5t-4.5 148.5z" />
<glyph unicode="6" horiz-adv-x="1095" d="M27 225q40 161 174 342q115 157 303 326q90 86 284 264q17 15 52 45.5t53 46.5q31 28 65 4q26 -23 23 -69q-3 -63 -41 -84q-15 -9 -30.5 -20t-27 -19.5t-29.5 -23.5t-26 -21.5t-28.5 -25.5t-25 -23.5t-28 -27t-26.5 -24.5q-228 -204 -287 -262q-142 -138 -209 -252 q-42 -72 -65 -116q-3 -8 -9.5 -26t-9.5 -26q-10 -38 -4 -50t39 -23q50 -13 70 -13q11 2 34 6.5t35 6.5q39 8 111.5 25.5t99.5 23.5q30 6 43 39q46 107 88 166q41 55 105 102q111 87 256 100q63 9 114 -36q65 -59 27 -146q-7 -19 -27 -43q-9 -13 -19 -25t-18 -21t-22 -20.5 t-20.5 -17.5t-23.5 -17.5t-21.5 -14.5t-24.5 -16t-23 -15q-20 -14 -59 -29q-30 -12 -25 -51q1 -9 -1 -19t-4 -17.5t-6.5 -19.5t-6.5 -18q-3 -13 -18 -20q-71 -41 -140 -47q-61 -7 -102 26q-37 29 -88 17q-12 -2 -36.5 -10t-37.5 -11q-140 -37 -231 -39q-50 0 -94 17 q-58 19 -80 73.5t-2 128.5zM723 287q3 -11 14 -8q145 55 238 122q4 3 10 9.5t10 9.5q6 6 9 12q5 5 2 12q0 8 -7 11h-8q-81 -3 -162 -54q-64 -39 -102 -100q-7 -7 -4 -14z" />
<glyph unicode="7" horiz-adv-x="727" d="M-41 1090q3 36 22.5 55t51.5 18q32 -2 63.5 -5.5t59.5 -5.5t73 -3q54 -1 157 -3t126 -3q157 0 233 2q36 0 46 -8q34 -24 41.5 -57.5t-15.5 -69.5q-22 -31 -53 -66q-185 -211 -295 -385q-92 -141 -162 -283q-2 -6 -6.5 -15t-7.5 -17t-4 -15q-3 -28 -11.5 -52t-28 -61 t-22.5 -44q-2 -3 -8.5 -14.5t-9.5 -16.5q-13 -18 -35 -26.5t-33 -2.5q-64 52 -39 115q48 113 80 174q128 249 305 502q37 51 111 145q1 2 5.5 9.5t6.5 9.5q8 16 -10 22q-49 15 -125 15q-80 0 -187 -2.5t-188 -2.5q-12 0 -36.5 -1t-36.5 -1q-31 0 -51 28t-17 65z" />
<glyph unicode="8" horiz-adv-x="1232" d="M61 512q58 105 172 160q120 50 213 73q136 29 144 31q3 1 8 3t8 3q-4 11 -20 15q-12 4 -39 4q-68 0 -176 55q-7 2 -17.5 11.5t-13.5 11.5q-22 16 -25 51q-12 109 52 188q80 102 206 144q130 34 211 30q35 -2 80 21q102 53 223 16q7 -2 21.5 -7t21.5 -7q75 -32 95 -117.5 t-31 -159.5q-33 -46 -88 -88q-98 -67 -270 -127q-10 -3 -40.5 -6.5t-47.5 -11.5q-1 -1 -5.5 -3t-5.5 -3q0 -4 1.5 -6t3 -2.5t4.5 -0.5l4 1q63 0 122 -35q45 -23 39 -86q-9 -42 -42 -75.5t-68 -33.5q-23 -3 -29 23q-10 51 -61 51q-41 0 -64 -2q-191 -27 -328 -78 q-63 -23 -131 -78q-16 -12 -28 -28q-51 -70 -2 -138q70 -96 184 -143q114 -51 240 -70q162 -24 352 37q68 21 127 68q112 87 90 239q-6 69 -47 113q-5 5 -13.5 14t-16 17t-15.5 14q-34 34 -31 92q0 15 6.5 22t16.5 3q129 -43 190 -187q35 -81 26 -163t-44 -148.5t-86 -109.5 q-113 -94 -250 -121q-156 -31 -240 -25q-118 -6 -233 29q-85 27 -224 121q-65 39 -120 120q-93 137 -9 279zM451 1020q-29 -37 10 -53q96 -34 174 -31q27 0 37 2q135 6 274 66q31 16 31 43q0 39 -29 55q-8 4 -28 12q-184 66 -385 -29q-50 -19 -84 -65z" />
<glyph unicode="9" horiz-adv-x="622" d="M4 819q-3 72 33 139q135 240 371 340q110 43 192 45q47 5 125 -38q37 -24 51 -45q21 -36 45 -54q39 -28 29 -82q-14 -81 -57 -163q-6 -13 -15 -17q-17 -8 -29 -23t-25 -38.5t-19 -32.5q-121 -191 -269 -479l-8 -20t-10 -23q-24 -49 -21 -97q8 -52 -28 -88 q-9 -9 -26 -30.5t-26 -30.5q-60 -57 -106 12q-22 31 -12 76q11 21 12 27q20 41 66.5 140t72.5 150q49 92 168 297q10 20 32 59t32 58q1 2 -0.5 10.5t-1.5 10.5q-4 8 -13 4q-7 -3 -26.5 -11t-28.5 -12q-168 -86 -252 -127q-101 -50 -184 -31q-17 0 -27 5q-39 13 -45 69z M158 913l16 -8q22 -2 57 17q13 5 41 19t45 20q96 35 306 155q3 2 13.5 8.5t17.5 12.5t12 14q4 5 2.5 13.5t-6.5 13.5q-9 6 -19.5 8.5t-17.5 2.5t-19 -0.5t-16 -0.5q-65 0 -96 -8q-177 -56 -318 -219q-13 -17 -16 -25q-6 -10 -2 -23z" />
<glyph unicode=":" horiz-adv-x="81" d="M53 596q0 11 8 27q10 27 23 30t33 -18q47 -50 47 -115q3 -52 -21 -76q-49 -43 -73 19q-20 55 -17 133zM100 1020v14q-1 37 13.5 57.5t40.5 20.5q53 0 84 -33q26 -29 20 -71q-7 -51 -47 -62q-4 0 -16 -4q-47 -12 -67.5 9.5t-27.5 68.5z" />
<glyph unicode=";" horiz-adv-x="81" d="M-119 45q3 17 5 25.5t11 20t23 18.5q74 36 119 139q49 112 49 207q0 4 1 11.5t1 10.5q3 34 39 19q17 -5 25 -29q6 -12 6 -27q1 -3 2 -10t2 -10q-1 -8 -4 -31.5t-6 -36.5q-30 -120 -80 -205q-38 -70 -131 -114q-24 -8 -41 -8q-12 0 -18.5 5.5t-2.5 14.5zM88 1004 q0 50 39 67q2 0 8 2.5t8 3.5q76 35 103 -63l2 -15q6 -37 -5 -59t-36 -25q-55 -8 -88 21q-31 28 -31 68z" />
<glyph unicode="&#x3c;" horiz-adv-x="712" d="M23 670q-7 53 38 106q55 59 99 86q49 29 147.5 86.5t147.5 85.5q21 12 62.5 36t62.5 36q5 2 14 7t14 7q55 24 80 -37q11 -26 1.5 -53.5t-34.5 -42.5l-12 -6q-39 -14 -106 -50t-95 -48q-38 -17 -74 -38t-94 -59.5t-71 -46.5q-24 -18 -49 -43q-25 -28 -7 -65q10 -20 23 -33 q68 -74 160 -119q45 -22 76 -6q22 12 49 -18q65 -80 0 -160q-20 -24 -45 -8q-186 93 -271 166q-49 43 -92 112q-30 46 -24 105z" />
<glyph unicode="=" horiz-adv-x="1036" d="M0 692q7 26 27 33q4 4 10 6q4 1 14 5t18 6t15 1q63 -10 182 17q223 48 344 65q33 4 118.5 16t147 19t119.5 10q28 3 47 -8q20 -9 15 -33l-6 -24q-9 -36 -23.5 -47t-50.5 -8q-19 3 -41.5 3t-38.5 -1t-44 -3.5t-40 -3.5q-151 -15 -233 -26q-44 -6 -187 -33 q-20 -4 -59 -14.5t-58 -14.5q-51 -14 -153 -22q-55 -3 -105 24q-20 16 -18 33zM67 909q5 33 94 72q85 38 175 49q29 3 98.5 5.5t106.5 6.5q290 39 479 41q67 0 69 -38q2 -34 -42 -65q-39 -28 -86 -28q-64 -2 -124 -8.5t-141.5 -19t-122.5 -17.5q-34 -3 -100 -9t-100 -9 q-97 -9 -199 -15q-113 0 -107 35z" />
<glyph unicode="&#x3e;" horiz-adv-x="700" d="M4 1081q2 39 17 57.5t42 14.5q30 3 52 -16q56 -52 190 -123q21 -11 242 -119q51 -25 102 -76q20 -18 24.5 -37.5t-3.5 -46.5q-15 -46 -45 -76q-79 -77 -162 -153q-38 -35 -116 -104.5t-116 -104.5q-37 -35 -106 -72q-9 -6 -19.5 0.5t-13.5 18.5q-13 49 10 82q22 34 43 49 q38 29 102.5 92t90.5 86q24 22 51 47.5t59 57.5t50 49q3 2 5.5 4.5t5 5.5t3.5 4q8 10 7 23.5t-11 19.5q-9 5 -30 19t-36.5 23t-31.5 15q-98 41 -340 176q-20 11 -41 29q-25 19 -25 55z" />
<glyph unicode="?" horiz-adv-x="563" d="M6 18q4 29 21 35q8 3 16 8t16.5 12.5t13 11.5t14.5 14.5t13 13.5q19 15 33 4q20 -14 17 -49q-13 -78 -58 -138q-10 -13 -26 -10q-20 5 -41.5 39t-18.5 59zM82 520q0 25 18 43q43 40 76 64q61 42 137 141q101 135 156 242q53 112 98 239q21 57 11 129q-6 52 -48 58 q-78 7 -131 -23q-115 -61 -176 -137q-5 -6 -69 -92q-5 -6 -14.5 -18.5t-14.5 -18.5q-13 -13 -29 0q-48 45 -12 106q102 184 266 265q84 41 148 36q107 -6 153 -118q11 -26 15 -107q-4 -108 -37 -190q-104 -265 -232 -434q-102 -135 -202 -203q-17 -12 -43 -27 q-35 -19 -50 -9t-20 54z" />
<glyph unicode="@" horiz-adv-x="1597" d="M39 676q12 54 37 106q46 86 71 127q17 33 72 88q132 141 369 228q172 63 373 100q132 23 210 16q31 -2 88.5 -13t67.5 -13t19 -7.5t19.5 -15t14.5 -12.5q55 -44 88 -129q17 -48 11 -92q-20 -98 -45 -141q-77 -128 -168 -199q-76 -63 -164 -72q-58 -4 -92 25 q-14 12 -27.5 13.5t-24.5 -3.5t-26 -16q-99 -78 -184 -107q-33 -13 -66 -16q-50 -3 -80.5 33.5t-30.5 97.5q3 93 47 186q45 93 136 184q30 28 96 60q48 24 88 -5.5t57 -82.5q21 -70 9 -121q-4 -13 8 -41q20 -46 52 -57.5t77 -1.5q36 9 88 47q97 74 143 184q17 35 17 76 q-3 42 -31 59q-27 17 -51 25q-115 40 -258 20q-159 -21 -275 -53q-246 -62 -420 -184q-140 -97 -211 -291q-52 -152 17 -303q39 -82 106 -115q168 -80 357 -59q136 17 333 98q137 58 265 145q134 87 211 195q85 115 108 223q23 106 -16 236q-1 6 -9 27t-8 34q0 8 4 12 q6 6 13 3q52 -34 65 -91q2 -15 10.5 -40.5t10.5 -34.5q42 -139 -15 -283q-89 -212 -274 -348q-22 -16 -62.5 -44.5t-58.5 -41.5q-83 -54 -223 -115q-27 -13 -59 -24.5t-71.5 -24.5t-60.5 -21q-118 -43 -282 -40q-148 10 -250 53q-126 57 -180 194q-70 187 -35 363zM670 723 q-3 -29 16 -33q18 -2 64 17q32 11 24 43q-5 32 23 53q37 24 51 37q50 38 59 104q3 13 -4.5 23t-19.5 8q-37 -6 -68 -31q-77 -61 -135 -180q-3 -6 -5 -14t-3 -16.5t-2 -10.5z" />
<glyph unicode="A" horiz-adv-x="1204" d="M4 47q9 48 27 88q115 240 170 336q94 164 149 240q174 246 185 260q91 120 165 258q23 47 67 47h5h3q28 0 63 31q178 154 336 217q44 15 88 18h3q53 0 89 -38q36 -40 41 -101q1 -6 2 -19t2 -20q0 -2 -2 -20t-4 -27q-24 -162 -62 -281q-27 -96 -35 -133q-7 -26 -2 -37 t27 -20q29 -14 33 -21q17 -25 10.5 -54t-31.5 -40q-17 -8 -65 -20q-45 -15 -64 -72q-52 -156 -102 -279q-5 -14 -18.5 -47.5t-20.5 -52.5q-92 -229 -135 -358q0 -4 -2 -6q-16 -45 -38 -45q-8 0 -16 6q-22 13 -29.5 39t1.5 51q28 71 83 211t83 211l75 198q5 14 9 35 q0 5 -11 16q-6 3 -18 3q-23 -7 -70 -20.5t-71 -20.5q-191 -56 -324 -56q-48 0 -127 11q-7 1 -21.5 2t-21.5 2h-6q-34 0 -49 -33q-3 -6 -47 -86q-23 -45 -72 -134t-72 -134q-7 -13 -88 -166q-2 -3 -5.5 -9t-5 -8.5t-5.5 -8t-6 -7t-7 -5t-8.5 -2t-9.5 0.5q-4 1 -8 2.5 t-6.5 3.5t-6 6t-5 6t-4.5 8t-3.5 8t-3.5 9t-4 8q-5 10 -5 28q0 10 1 21zM477 674q-4 -8 -4 -15q0 -15 19 -24q9 -4 20 -6q10 -3 16 -3h8.5h12.5q14 0 18 1q183 6 383 78q28 10 79 30t71 27q78 28 98 117q10 44 33.5 124.5t32.5 116.5q8 32 21 95t15 73q7 35 7 65q0 15 -2 29 q-6 54 -54 60h-7q-30 0 -68 -15q-161 -72 -258 -159q-19 -16 -37.5 -33t-46.5 -46.5t-35 -35.5q-59 -58 -90 -104q-30 -41 -63 -92t-55.5 -89.5t-58.5 -99.5t-55 -94z" />
<glyph unicode="B" horiz-adv-x="995" d="M-119 -250q0 10 8 18t17 7q4 0 12 -4q29 -16 70 -16q35 0 78 12q81 27 141 65q245 151 409 270q155 114 252 238q30 39 30 61q0 24 -48 52q-98 52 -242 92q-18 4 -49 4q-14 -3 -27 -3q-52 0 -83 42q-20 23 -27.5 23t-20.5 -25q-6 -10 -92 -180q-122 -243 -184 -367 q-19 -39 -49 -66q-9 -7 -20 -6t-19 10q-40 46 -40 101q0 15 3 31q10 48 37 106q26 51 80 154.5t80 154.5q83 156 145 260q7 12 111 172q71 103 139 183q38 52 51 80q19 40 51 51q20 7 62 45q58 58 157 121q27 19 68 26q15 4 29 3q52 0 94 -48q24 -31 24 -63q1 -14 1 -28 q0 -84 -31 -155q-100 -230 -226 -358q-14 -15 -62 -70t-77 -81q-13 -11 -11 -23t17 -18q10 -5 32 -14.5t32 -14.5q108 -47 151 -86q8 -6 21 -19q34 -34 34 -82q0 -19 -5 -40q-11 -42 -52 -93q-25 -33 -59 -68t-55 -54t-66 -58q-24 -20 -48.5 -39.5t-53 -40.5t-48.5 -35 t-54.5 -37t-49 -33t-55 -36t-51.5 -33q-176 -117 -260 -155q-81 -37 -168 -37q-36 3 -64 20q-39 22 -39 84zM463 678q6 -12 43 -12q33 2 52 8t52 28q9 6 18 12.5t19 15t17 13.5t18 16t15.5 15t17.5 17.5t15.5 16t17.5 18t16 16.5q136 136 229 336q31 75 39 137q1 6 1 11 q0 24 -12 36q-10 10 -25 10q-7 0 -15 -2q-24 -9 -68 -35q-113 -71 -184 -182q-165 -242 -252 -426q-15 -29 -15 -43q0 -3 1 -6z" />
<glyph unicode="C" horiz-adv-x="765" d="M-2 459q3 236 139 489q78 146 170 238q186 186 438 256q37 9 72 8q31 0 60 -6q90 -16 90 -118v-7q0 -120 -62 -170q-25 -19 -31 16q-4 41 -16 123q0 19 -16 19q-15 2 -32 2q-27 0 -56 -6q-223 -50 -402 -226q-216 -213 -243 -549q-3 -35 -3 -69q0 -67 13 -125 q44 -186 190 -205q32 -5 59 -5q37 0 66 9q19 5 64 17t70 19t61 21.5t65 30.5q8 4 17 6.5t15.5 3.5t17.5 0t15.5 -1.5t17.5 -3.5t16 -3q7 -1 10 -12.5t-2 -17.5l-25 -25q-227 -189 -440 -189q-12 0 -23 1q-61 3 -127 43q-30 19 -47 38q-1 1 -19 23t-21.5 26.5t-18.5 25 t-20 29t-16 27t-15.5 31.5t-10 31t-8.5 35q-12 88 -12 152v18z" />
<glyph unicode="D" horiz-adv-x="1110" d="M-182 -66q-6 19 -6 34q0 16 6 30q7 10 16 10q2 1 5 1t5 0.5t4 0.5h2q14 -3 28 -3q19 0 40 5q7 3 31.5 11.5t38.5 13.5q5 2 18.5 6t22 9t12.5 14q5 17 4 23.5t-8.5 21.5t-9.5 22q-10 36 -6.5 53t28.5 41q32 32 53 78q84 168 113 223q35 64 104.5 192.5t104.5 192.5 q41 74 123 226q22 39 65 104q9 19 11 27q2 5 -1.5 9.5t-7.5 4.5q-79 -14 -131 -31q-226 -85 -348 -147q-26 -14 -92 -39q-31 -9 -49 18q-11 14 -11 33q0 13 5 29q15 38 37 45q55 19 165.5 72.5t171.5 72.5q183 62 285 72q43 6 47 8q32 13 70 13q29 0 61 -7q12 -4 60 -4 q118 -3 248 -63q47 -19 118 -86q79 -75 79 -191q0 -29 -5 -61q-14 -84 -78 -180q-77 -113 -153 -176q-18 -14 -51 -46.5t-50 -46.5q-188 -163 -274 -227q-13 -10 -41 -32.5t-45 -35t-42.5 -28.5t-49.5 -25q-9 -2 -21 -14q-19 -19 -84 -55q-5 -3 -82 -48q-5 -2 -11.5 -8.5 t-8.5 -7.5q-50 -23 -167 -88t-183 -92q-37 -16 -97 -23q-5 -1 -10 -1l-24 5q-23 7 -35 45zM140 133q2 -5 5 -10q4 -4 9.5 -4t9.5 2t10.5 6.5t9.5 5.5q108 56 330 199q231 148 442 344q6 6 31 30t33.5 32.5l29.5 29.5t32 34t27 32t29 36.5t25 36.5q58 91 72 144q5 23 5 44 q0 72 -56 119q-51 37 -76 46q-120 45 -229 45q-5 0 -23.5 -1t-28.5 -1q-25 0 -39 -19q-92 -105 -118 -145q-90 -137 -154 -260q-27 -50 -83.5 -147.5t-82.5 -147.5q-62 -115 -196 -410q-1 -2 -5 -9.5t-5.5 -11t-3.5 -9.5q-1 -3 -2 -7z" />
<glyph unicode="E" horiz-adv-x="1013" d="M-20 100q6 32 8 35q12 27 12 50.5t-12 43.5q-6 10 -2 35q32 136 61 197q49 100 55 160q0 18 17 28q18 7 43 49q47 83 153 226q95 131 129 233q14 41 42 52q9 4 20 4q20 0 43 -15q26 -15 51 2q98 65 293 137q20 7 88 21q5 1 48.5 8.5t66.5 9.5q10 1 20 1q91 0 189 -64 q36 -21 36 -94q0 -49 -30 -84q-119 -125 -283 -179h-4q-2 1 -5 3.5t-5 3.5l4 4q14 17 47 45q31 27 31 43q0 13 5 23.5t9.5 15.5t15 13t13.5 11q29 29 67 62q11 11 23 26q8 12 3 26.5t-18 18.5q-22 7 -59 11h-31q-56 0 -114 -15q-167 -44 -281 -108q-217 -119 -332 -308 q-43 -75 -65 -131q-9 -23 -5.5 -32.5t23.5 -8.5q42 0 96 7q9 2 75 13.5t100 16.5q89 14 114 15q7 1 37 -4q32 -9 42 -45q4 -13 3 -24q0 -21 -12 -40q-19 -32 -45 -49q-88 -53 -174 -105q-4 0 -8 -4q-18 -5 -17 7q0 3 17 42q9 20 6 29q-12 27 -35 27h-57q-38 -9 -108 -15.5 t-91 -9.5q-20 -4 -31 -4q-24 0 -35 -22q-45 -91 -71 -172q-1 -4 -56 -164q0 -1 -4 -17t-6 -20q-6 -12 -2 -24t16 -15h25q16 2 54 5t66 6.5t54 8.5q152 34 404 131q40 17 69 25q25 6 39 -27q9 -25 -8 -45q-35 -37 -98 -59q-41 -17 -60 -29q-22 -15 -48 -25t-58 -19.5 t-49 -16.5q-132 -52 -289 -84q-36 -8 -81 -8q-24 0 -52 2q-52 4 -78 47q-18 30 -17 70q0 17 3 36z" />
<glyph unicode="F" horiz-adv-x="892" d="M-62 28q4 20 1 35q-4 15 0 46q11 64 41 129q63 128 96 198q11 23 16 39q6 18 -8 21q-20 4 -35 4q-24 3 -34.5 5.5t-24 10.5t-18 24t-3.5 42q3 38 23 49q24 12 35 12q27 1 76.5 12.5t56.5 12.5q34 6 57 45q28 50 66.5 153t68.5 156q10 19 21 63q13 37 31 55.5t45 14.5 q18 -4 51 25q33 31 108 98q213 179 498 195h43q6 1 12 1q49 0 94 -73q12 -18 12 -41q0 -12 -3 -25q-9 -41 -44 -65q-22 -16 -42 -15q-11 0 -21 5q-8 4 -12 16q-1 21 -10 28t-25 9q-11 1 -22 1q-59 0 -127 -22q-23 -8 -89.5 -24t-110.5 -34t-83 -50q-52 -42 -77.5 -64 t-67 -65t-68.5 -84q-16 -24 -52.5 -101.5t-52.5 -101.5q-5 -7 -14 -29q-4 -17 6 -20h4q19 0 76 8q32 6 167.5 46t207.5 40q44 0 80 -8q18 -4 27 -7.5t18.5 -16t13.5 -33.5q3 -13 3 -26q0 -26 -11 -50q-20 -42 -47 -23q-35 25 -107 25q-55 -1 -116.5 -12t-100 -22 t-113.5 -35.5t-106 -33.5q-5 -1 -22.5 -7t-26.5 -7q-51 -9 -76 -76q-35 -89 -107 -244t-87 -188q-18 -44 -45 -74q-10 -12 -21 -12q-10 0 -20 10q-10 12 -10 22q0 3 5 33z" />
<glyph unicode="G" horiz-adv-x="1095" d="M-2 389q27 162 123 324q99 164 176 248q117 126 240 237q77 71 143 123q156 118 246 158q4 1 12 5t12 5q14 5 27 5q40 0 67 -48q12 -20 6.5 -49t-24.5 -39q-3 -3 -18 -8q-51 -14 -108.5 -45.5t-89 -53t-99.5 -71.5q-36 -25 -79 -61.5t-63 -55t-78.5 -75t-64.5 -62.5 q-163 -156 -272 -375q-36 -75 -56 -182q-3 -19 -3 -41q0 -14 1 -29q3 -67 54 -106q73 -49 174 -56h17q123 0 275 66q54 23 95 67q200 229 311 396q6 6 6 14q1 6 -2 11t-8 3q-47 -4 -70 -12q-38 -14 -132 -41t-144 -47q-42 -18 -121 -57q-11 -6 -23 -6l-41 19q-28 28 -28 65 v10q3 38 33 51q72 35 73 35q208 70 500 141q21 6 63 2q46 -6 58 -55q5 -27 5 -49q0 -52 -24 -84q-90 -137 -174 -242l-60 -72t-59 -71q-22 -26 -28 -43q-16 -49 -68 -101q-32 -28 -57 -28h-6q-4 1 -9 1q-23 0 -55 -16q-62 -35 -159 -61q-2 -1 -6.5 -1.5t-7.5 -1.5t-5 -3 q-18 -12 -36 -17t-49 -7t-40 -3q-112 0 -198 43q-69 38 -113 102q-47 69 -47 163q0 38 8 81z" />
<glyph unicode="H" horiz-adv-x="747" d="M-104 190q9 29 36 13q27 -18 33 14q12 54 70 240q49 153 61 194q9 35 -18 35q-38 0 -72 -6q-5 -1 -11 -1q-29 0 -61 32q-13 13 -16 49t8 51q7 14 21 14q20 4 59 4q30 -2 42 -1t40.5 7.5t40.5 8.5q46 6 64 61q8 26 27 72t24 59q14 36 34 77t35 67.5t42.5 72t39.5 66.5 q1 3 6 8.5t7 7.5q10 12 16.5 18t18 9.5t22.5 -6.5q44 -24 47 -84q2 -9 -8 -29q-14 -32 -53 -84q-78 -101 -119 -205q-2 -8 -10 -28q-2 -9 3.5 -16.5t14.5 -6.5q24 6 29 8q66 27 86 37q245 131 368 236q102 87 158 155q17 21 43.5 64t40.5 61q3 4 10 16.5t12 18.5 q13 18 26 18l22 -12q1 -1 3 -2t3 -2q39 -25 39 -62q0 -29 -23 -65q-9 -15 -28.5 -41t-28.5 -41q-42 -65 -116.5 -193.5t-109.5 -183.5q-68 -111 -212 -405q-95 -196 -140 -342q-1 -5 -4 -15.5t-4 -15.5q-3 -24 12 -39q19 -25 20.5 -35.5t-11.5 -35.5q-42 -75 -82 -115 q-16 -16 -30 -16q-13 0 -24 14q-33 41 -33 84q0 13 3 26q16 70 26 103q53 179 154 397q93 197 180 359q6 13 21.5 38t21.5 37q10 20 6 27q-2 5 -4.5 7t-6 1.5t-5 -1t-5.5 -2.5t-5 -3q-30 -13 -39 -22q-20 -21 -44.5 -37.5t-59.5 -35t-48 -26.5q-27 -17 -78 -44.5t-71 -39.5 q-38 -22 -146 -57q-38 -8 -53 -55q-15 -48 -50.5 -154.5t-60.5 -186.5t-45 -155q-9 -42 -14 -59q-14 -62 -43 -93q-27 -24 -51 -6q-29 22 -45 78q-11 37 -11 68q0 17 3 32z" />
<glyph unicode="I" horiz-adv-x="448" d="M-61 96q1 9 12 35q25 50 45.5 81t46.5 87q78 160 211 416q24 48 73 133t66 117q35 62 97 198t69 183q3 30 40 64q35 32 60 32h3q77 -8 77 -119q-1 -13 -23 -32.5t-26 -26.5q-7 -10 -36 -51.5t-36 -51.5q-80 -113 -194.5 -346.5t-138.5 -277.5q-17 -31 -33 -64t-26 -53.5 t-26.5 -62.5t-21 -53.5t-25 -66.5t-24.5 -65q-18 -40 -18 -61q0 -16 -2 -30.5t-8 -29.5t-9 -23t-14.5 -24t-13.5 -19t-18 -21l-15 -19q-18 -17 -31 -17h-3q-14 2 -34 25q-30 40 -30 93q0 24 6 50z" />
<glyph unicode="J" horiz-adv-x="761" d="M-657 -498q-4 29 -4 57q0 89 47 162q62 94 104 132q65 65 191 141q185 119 360 170q157 42 207 53q46 8 63 57q14 35 53.5 126t59.5 141q43 115 154 372q67 157 159 263q2 3 6.5 8t6.5 8q7 10 2 20q-4 7 -15 11q-16 3 -22 2.5t-21 -5.5t-22 -6q-57 -11 -170.5 -34 t-169.5 -35q-134 -25 -279 -101q-8 -4 -28 -12q-25 -9 -37.5 -2.5t-28.5 33.5q-13 22 -12 47.5t16 44.5q18 25 39 33q126 56 317 96q26 5 98 17.5t111 21.5q37 10 115 18q16 3 156 19q106 15 241 29q44 4 242 34q21 3 90 14t116 16.5t93 8.5h39q32 0 54.5 -24.5t27.5 -61.5 v-6q0 -16 -14 -22q-12 -5 -31 -5h-15q-82 0 -208 -20q-31 -6 -254 -37q-55 -7 -289 -41q-3 -1 -23 -6q-7 -1 -11.5 -10t-2.5 -17q2 -4 2 -8q1 -2 5 -10.5t5 -11.5l4 -12t1.5 -12.5t-1.5 -14.5q-12 -39 -41 -62q-27 -21 -61 -69q-53 -63 -123 -215q-42 -96 -117 -274 t-98 -232q-4 -16 -4 -21t3.5 -10.5t6.5 -5.5q25 -4 41 -2q21 2 63 7t64 7q39 3 64 3q13 0 22 -1q47 -3 78 -59q4 -9 1 -21.5t-11 -15.5q-8 -4 -13 -4q-12 -1 -35 -4.5t-42.5 -5.5t-36.5 -2q-34 -1 -68.5 -5t-90.5 -14t-69 -12q-53 -8 -81 -68q-47 -96 -72 -141 q-120 -220 -287 -405q-108 -121 -233 -179q-92 -45 -170 -45q-67 0 -138 51q-60 41 -79 164zM-567 -416q-7 -25 -7 -47q0 -28 11 -53q19 -44 65 -57q9 -4 23.5 -6.5t15.5 -2.5q61 3 117 25q130 49 244 170q88 94 219 291q17 24 44 76.5t30 58.5q6 12 6 21q0 7 -4 12 q-7 7 -19 7q-5 0 -10 -1q-1 0 -25 -6q-251 -77 -446 -201q-84 -53 -189 -158q-55 -55 -75 -129z" />
<glyph unicode="K" horiz-adv-x="952" d="M-33 0q1 3 29 47q72 105 108 182q14 27 17 39q14 31 -4 54q-2 2 -10 11t-11 15q-18 29 -18 55q0 30 24 56q93 97 138 131q70 50 106 145q8 19 26.5 57t26.5 58q90 200 105 237q16 36 35 74t44.5 85.5t37.5 70.5q7 14 21.5 40t21.5 40q15 31 30 43q16 12 23 2 q26 -34 35 -51q7 -13 7 -27q0 -17 -11 -35q-40 -71 -84 -141q-66 -109 -158 -334q-4 -9 -2 -14q0 -6 3 -10t7 -3q18 3 59 35q283 233 406 332q36 28 70.5 59.5t88 83.5t68.5 66q6 6 13 15t15 20.5t13 17.5q15 25 23 33q17 17 32 17q19 0 35 -27q10 -15 21 -37q8 -18 8 -33 q0 -21 -16 -37q-17 -14 -51 -40.5t-50 -41.5q-12 -10 -82 -68.5t-104 -95.5q-11 -15 -53 -47q-71 -50 -226 -182q-16 -15 -50.5 -40.5t-51.5 -39.5q-243 -204 -301 -254q-19 -16 -31 -37q-52 -102 -67 -137q-9 -23 -6 -36t20 -25q88 -61 90 -62q258 -167 266 -172 q25 -16 187 -106q150 -84 241 -131q46 -24 56 -90q5 -29 -11 -51q-15 -19 -35 -19h-6q-29 0 -53 27q-40 48 -108 79q-58 28 -122 64t-141.5 82.5t-119.5 70.5q-15 8 -40 27t-34 25q-19 15 -41.5 28.5t-51 29.5t-42.5 24q-17 8 -70 45q-29 23 -43.5 19.5t-34.5 -40.5 q-16 -30 -46.5 -90t-45.5 -90q-21 -40 -45 -78q-12 -21 -26 -21q-12 0 -25 15q-1 0 -25 31q-10 14 -10 29q0 12 6 26z" />
<glyph unicode="L" horiz-adv-x="718" d="M-20 -45q-7 14 -7 30q0 18 9 40q32 80 63 131q24 38 69 115.5t68 115.5q20 34 92 143q14 23 62.5 94.5t73.5 112.5q21 35 71.5 115.5t87 141.5t68.5 120q66 125 192 344q1 2 3.5 5t3.5 5q22 30 38 32q1 0 2 1q16 0 39 -26q17 -19 19 -33q0 -3 1 -6q0 -13 -9 -31 q-30 -50 -37 -59q-29 -36 -56.5 -80t-59.5 -102t-50 -87q-130 -219 -156 -258q-52 -77 -235 -370q-11 -17 -31.5 -48.5t-37.5 -57.5t-32 -50q-17 -30 -48 -88t-38 -70l-6 -12q-9 -25 -4 -35t27 -12q17 0 48 6.5t36 7.5q211 49 392 49q34 0 67 -2q82 -3 147 -35q12 -6 20 -14 q11 -15 5 -27q-13 -25 -35 -28q-16 -2 -54 -2h-114h-22q-214 0 -394 -56q-60 -21 -160 -43q-30 -6 -65 -6q-38 0 -53 29z" />
<glyph unicode="M" horiz-adv-x="1374" d="M-207 -211q24 36 57 74q44 49 91 131q209 375 426 790q20 40 92 182.5t112 219.5q43 81 107 172q1 1 9.5 13.5t14.5 17.5q20 19 32 26q6 4 15 4q7 0 15 -3q18 -6 35 -34q38 -26 37 -86v-20q-2 -28 -6.5 -55.5t-14.5 -68.5t-12 -52q-70 -357 -82 -412q-25 -127 -35 -213 v-35q5 -10 8 -10q1 -2 5.5 -1.5t5.5 3.5q14 14 28 35q77 106 127 180q84 125 217 301q92 131 133 182q66 89 133 140q19 15 33 20q14 8 27 8q21 0 41 -20q45 -42 45 -98q0 -11 -2 -23q-28 -151 -74 -311q-9 -35 -37 -121t-39 -135q-3 -14 -22.5 -87.5t-26 -102.5t-17 -84.5 t-14.5 -100.5q-2 -19 -2 -36q0 -38 11 -64q11 -28 -9 -52q-16 -21 -45 -6q-47 20 -51 82q-2 22 -2 43q0 38 6 74q9 79 43 217q113 407 140 512q4 16 8 34.5t8.5 41.5t7.5 35q4 16 -4 26q-13 13 -27 -6q-56 -60 -73 -82q-117 -140 -201 -272q-255 -385 -305 -463 q-46 -70 -88 -117q-20 -20 -37 -22q-6 -1 -12 -1q-46 0 -58 62q-4 20 -4 52q0 22 2 49q18 174 68 409q14 65 39 195.5t39 195.5q1 5 3 14.5t3 14.5q2 15 1.5 26.5t-3 18.5t-6.5 6q-7 -1 -12 -5.5t-10.5 -15t-6.5 -12.5q-35 -55 -90 -165.5t-62 -124.5q-23 -39 -63 -121 q-200 -405 -260 -518q-17 -33 -50.5 -96.5t-54 -102.5t-51 -92t-57.5 -96q-52 -86 -101 -140q-2 -2 -5.5 -6t-6.5 -7t-6 -5q-14 -12 -31 -12q-4 0 -7 1q-21 3 -34 21q-19 24 -19 48q0 18 11 36z" />
<glyph unicode="N" horiz-adv-x="1292" d="M-136 -200v7q0 26 13 46q75 106 98 135q52 72 136 245q38 80 108 233t103 222q37 80 74 168.5t85 208t70 172.5q50 121 90 211q21 47 41 76q15 24 34 24q17 0 38 -20q27 -27 45 -86q16 -50 16 -94q4 -85 4 -155.5t-4 -125.5q-1 -16 -1 -48q0 -52 3 -147q7 -284 37 -505 q12 -90 43 -179q13 -35 23 -49q12 -27 36 -12q45 29 76 86q49 93 78 195q25 83 49 202q9 51 30 144.5t28 130.5q18 100 28 170q8 52 47 178q1 4 6 9t7 3t15.5 -5.5t14.5 -14.5q1 -12 6.5 -36.5t6.5 -36.5v-7q0 -12 -2 -31q-20 -105 -39 -223q-6 -46 -29 -170 q-43 -263 -90 -451q-37 -141 -111 -229q-23 -32 -73 -61q-21 -10 -41 -10q-34 0 -64 30q-36 36 -61 94q-51 120 -68 246q-1 13 -4 40t-4 40q-27 188 -33 377q-1 35 -4 107t-4 110q1 26 -1 107q-1 49 -1 84v40t-2 25q-5 10 -8 10q-7 0 -11 -4q-7 -15 -28.5 -61.5t-32.5 -73.5 q-234 -560 -252 -602q-40 -91 -117 -256.5t-94 -204.5q-13 -28 -30 -59t-29.5 -52t-34 -56t-31.5 -52q-5 -8 -18 -33t-23 -41t-22 -29q-19 -23 -27 -30q-16 -15 -32 -15q-23 0 -44 33q-17 25 -19 56z" />
<glyph unicode="O" horiz-adv-x="948" d="M-2 127q-7 45 -7 91q0 83 23 171q70 280 250 553q100 156 234 299q52 55 113 96t149 90q94 54 145 64q8 2 25.5 5t25.5 5h5q50 0 81 -53q25 -43 35 -105q1 -10 1 -20q0 -29 -13 -55q-16 -31 -16 -68v-33q0 -203 -68 -405q-51 -150 -139 -293q-79 -120 -168 -217 q-52 -60 -191 -176q-104 -83 -243 -127q-26 -7 -51 -7q-56 0 -111 35q-66 40 -80 150zM92 274q-4 -30 -4 -59q0 -40 8 -76q15 -59 54 -59q51 0 86 12q119 43 176 86q207 152 317 305q201 276 215 729v50q0 64 -13 74q-4 3 -11 3q-17 0 -54 -18q-196 -94 -358 -262 q-188 -197 -311 -455q-81 -171 -105 -330z" />
<glyph unicode="P" horiz-adv-x="1191" d="M-43 68q2 21 11 30t22 2q23 -9 33 -1.5t20 32.5q11 25 33.5 75.5t34.5 76.5q17 43 53 129t53 129q22 58 22 99q0 7 -1 13q-1 10 -1 19q0 56 39 67q16 5 27 31q6 14 31 78.5t35 91.5t26.5 76.5t26.5 91.5q4 16 8 45t6 41q5 43 43 31q34 -11 47 -56q10 -37 10 -69t-10 -60 q-13 -36 -40 -107.5t-40 -107.5q-12 -31 -22 -63q-9 -25 10 -29q43 0 74 10q158 51 231 95q14 8 84.5 47t106.5 63q90 58 203 152q48 42 90 106q20 33 20 56q-1 4 -1 8q-4 25 -38 49q-59 41 -143 51q-33 4 -98 4q-25 1 -50 1q-234 0 -446 -101q-133 -66 -207 -215 q-17 -40 -33 -66q-22 -42 -55 -47q-15 -4 -18 15q-10 63 -11 75q-1 11 -1 21q0 46 22 84q9 15 36 61t44 70q43 63 112 106q85 55 179 80q146 40 276 51q62 7 117 7q47 0 90 -5q120 -15 194 -51q118 -56 140 -225q1 -10 1 -18q0 -21 -7 -35q-48 -105 -93 -148 q-69 -66 -149 -125q-222 -163 -381 -233q-179 -84 -311 -84h-15h-18q-27 -3 -35 -27q-16 -42 -16 -43q-26 -84 -88.5 -228.5t-83.5 -201.5q-34 -99 -68 -149q-18 -27 -31 -31q-4 -1 -9 -2q-12 0 -30 8q-54 19 -57 88q-4 40 -4 62z" />
<glyph unicode="Q" horiz-adv-x="1210" d="M0 254q-21 93 -21 181q0 135 48 259q113 290 286 463q8 9 45 52.5t60 62.5q190 163 399 172h11q55 0 112 -47q44 -38 51 -80q7 -41 47 -57q62 -30 84 -52q92 -85 125 -245q14 -70 14 -114q0 -12 -1 -22q-2 -27 -4 -65l-3 -39q-12 -144 -118 -287q-97 -128 -199 -194 q-8 -6 -10 -18.5t4 -24.5q4 -14 10 -19q3 -4 19 -23t21.5 -24.5t19.5 -21t22 -23t21 -18.5t24.5 -19t24.5 -14q18 -8 51.5 -29t38.5 -24q43 -26 53 -103q1 -15 -8 -26q-8 -9 -17 -9h-4q-4 1 -22 7q-183 79 -271 198q-17 24 -59 72q-18 23 -37 23q-12 0 -24 -9 q-21 -17 -45 -30t-59.5 -28.5t-47.5 -21.5q-99 -52 -217 -71q-50 -8 -95 -8t-87 8q-195 47 -242 268zM82 510q-4 -57 -4 -105q0 -83 12 -137q25 -93 96 -127q42 -18 125 -26q16 2 46 6t46 6q53 8 115 29.5t96.5 37t108.5 50.5q2 1 22 16q18 18 9 43q-2 8 -5.5 15.5t-9 15.5 t-8.5 12.5t-10.5 13t-9.5 11.5q-31 33 -31 91q0 16 2 34q3 22 23 22h4q32 0 55 -39q31 -54 65 -106q15 -23 27.5 -26t34.5 9q4 3 9.5 7t12 9.5t9.5 8.5q66 65 79 78q120 120 154 307q6 41 6 80q0 101 -39 192q-33 74 -98 95q-22 7 -31 -19q-4 -16 -28 -90q-18 -47 -19 -49 q-19 -27 -46.5 -81t-37.5 -71q-25 -43 -78 -80q-8 -6 -16 -1.5t-8 14.5q-4 26 -4 54q0 24 3 50q6 56 36 92q16 24 34 60q4 8 12 22.5t13 23.5t10.5 23t9.5 27q5 19 2 26.5t-20 8.5q-34 4 -39.5 16.5t6.5 52.5q5 21 23 35q10 7 20 21q7 7 -2 12q-20 12 -28 12q-11 1 -23 1 q-66 0 -149 -38q-132 -64 -236 -153q-166 -146 -260 -336q-75 -150 -86 -256z" />
<glyph unicode="R" horiz-adv-x="917" d="M-57 426v7q0 50 39 71q26 15 79 47.5t80 48.5q50 27 70 84q82 217 106 274q17 47 50 115q3 9 10 26t11.5 30.5t6.5 27.5q3 18 13 35q17 40 50 44h6q29 0 52 -32q21 -27 21 -57q0 -25 -15 -53q-21 -37 -43 -84t-36 -77.5t-39 -90t-35 -82.5q-4 -8 -4 -12q0 -13 4 -15 q6 -6 10 -2q177 99 196 111q27 17 187 119q157 103 262 233q7 8 13.5 18.5t11 18.5t10.5 22t8 20t8.5 23t7.5 21q6 19 -2.5 33t-25.5 14h-4q-49 0 -117 -47q-71 -49 -186 -172q-13 -12 -37.5 -35.5t-36.5 -36.5q-18 -14 -37 -14q-6 0 -10.5 5.5t-1.5 12.5q14 47 14 74v6v8 q0 45 33 78q50 58 76 82q96 90 202 158q42 28 86 28h7q50 -1 88 -39q41 -42 56 -98q8 -32 8 -61q0 -23 -5 -45q-19 -79 -74 -158q-68 -97 -188 -195q-89 -73 -226 -159q-37 -22 -78 -44t-93.5 -49.5t-79.5 -41.5q-9 -5 -28 -18.5t-28 -18.5q-7 -5 -23 -15.5t-27.5 -18 t-22.5 -11.5q-44 -15 -68 -76q-2 -6 -6 -17.5t-6 -17.5q-9 -38 20 -47q25 -8 100 -29q12 -4 56.5 -15.5t68.5 -19.5q33 -11 135.5 -40t157.5 -52q51 -25 88 -45q75 -41 99 -157q0 -9 -4 -13q-7 -7 -13 -4q-4 2 -11 6t-11 6q-134 88 -307 132q-55 14 -161 41.5t-161 41.5 l-82 17q-6 1 -12 1q-29 0 -43 -38q-51 -139 -53 -145q-29 -83 -29 -84q-12 -32 -36 -32q-11 0 -24 7q-29 12 -39 30q-12 22 -12 58q0 31 25 96q52 118 53 121q7 17 5 24.5t-17 16.5q-34 23 -55 39q-37 32 -37 82z" />
<glyph unicode="S" horiz-adv-x="897" d="M-49 27q0 33 2 49q1 19 14 30.5t27 6.5q41 -16 51 -41q14 -31 49 -27q188 23 238 31q28 3 80 14t75 14q32 6 90 26.5t74 25.5q21 10 21 26q0 10 -17 23q-153 127 -221 184q-51 43 -145 141q-79 79 -133 138q-51 61 -74 131q-24 65 -24 129q0 80 38 159q73 148 215 211 q154 65 326 84q49 6 98 6t99 -6q68 -7 155 -59q49 -27 60 -95q3 -16 3 -33q0 -49 -26 -93q-53 -91 -127 -139q-6 -4 -12 -1t-6 11q0 21 18.5 63t18.5 62q0 70 -44 108q-43 40 -108 46q-23 2 -49 2q-45 0 -96 -8q-80 -12 -148.5 -32.5t-124.5 -44.5q-91 -43 -164 -174 q-20 -40 -21 -83q0 -20 5 -40q18 -85 72 -139q102 -105 186 -184q22 -22 66.5 -59.5t58.5 -49.5q41 -37 209 -164q15 -11 39 -33.5t28 -25.5q20 -17 33 -49q11 -21 11 -43q0 -13 -4 -27q-10 -36 -40 -49q-11 -5 -41 -14q-35 -10 -104 -31t-104 -31q-46 -15 -134 -28 t-120 -21q-30 -6 -64.5 -10t-76 -7.5t-64.5 -6.5q-12 -2 -23 -2q-45 0 -94 24q-30 13 -42 37q-10 20 -9 55v13z" />
<glyph unicode="T" horiz-adv-x="892" d="M-150 1118q0 17 4 31.5t14 28t18 23.5t26.5 21.5t27 17.5t32 16t30 13t32 12.5t27.5 10.5q87 34 201 56.5t183 30.5t237 24q40 2 75 2q134 0 199 -33q23 -13 45 -38t34.5 -45.5t31.5 -55.5q-4 -4 -6 -4t-6 1t-6 1q-182 41 -320 41q-44 0 -67 -2q-18 -3 -41 -10t-49.5 -25 t-28.5 -39q-3 -27 -11.5 -58.5t-14 -46.5t-22.5 -57t-18 -45q-223 -581 -280 -723q-12 -29 -32 -112.5t-40 -137t-43 -53.5q-25 0 -42.5 17.5t-26 47t-12 57.5t-3.5 58q0 105 29 105q3 0 8.5 -1t7.5 -1q40 0 207 493q14 42 49.5 132.5t52.5 144.5v8q0 12 -6 16t-13.5 3.5 t-13.5 3.5t-6 16q0 15 2 45t2 45q0 33 -30 33q-68 -11 -134 -33l-3 -2h2q0 1 -55.5 -28t-114.5 -60l-58 -31q-4 -2 -14 -2q-25 0 -42.5 25t-17.5 63z" />
<glyph unicode="U" horiz-adv-x="1001" d="M-6 373q11 255 61 405q7 19 31 94t41 115q22 48 56 101t58 84t70 88q19 22 41 22q20 0 41 -18q37 -29 43 -80q1 -9 1 -17q0 -28 -15 -51q-3 -3 -9 -9.5t-11 -11t-9 -8.5q-130 -108 -200 -319q-75 -222 -84 -455q0 -15 10 -98q8 -64 63 -76q18 -4 38 -4q31 0 65 10 q96 27 225 121q305 213 489 608q74 159 170 490q2 8 6.5 25.5t6.5 25.5q1 2 4 12t5 14t7 8q4 3 9 3h3q19 -3 31 -35q9 -20 9 -35q0 -4 -1 -8q-4 -109 -16 -162q-66 -290 -189 -538q-108 -217 -303 -418q-113 -113 -213 -180q-125 -87 -215 -105q-52 -8 -73 -10 q-13 -1 -25 -1q-76 0 -130 53q-62 62 -77 171q-14 116 -14 171v18z" />
<glyph unicode="V" horiz-adv-x="804" d="M0 193v13q0 151 43 419q43 283 117 557q30 117 39 190q5 41 22 49q12 5 38.5 0t35.5 -14q23 -20 23 -54q0 -11 -3 -24q-12 -47 -40.5 -139t-32.5 -105q-34 -121 -43 -174q-6 -38 -24.5 -124t-24.5 -132q-14 -106 -27 -186q-17 -92 -23 -211q-1 -17 -1 -31q0 -64 14 -64 q2 0 4 1q50 32 88 76q24 27 71 80.5t72.5 82.5t62.5 73t70.5 85t67.5 86q163 214 297 438q13 21 48 77t57 93t44 80q54 105 139 169q42 32 63 32q7 0 11 -4q5 -4 5 -13q0 -17 -21 -51q-21 -36 -62 -108.5t-61 -108.5q-17 -30 -46.5 -84.5t-54.5 -100t-48 -83.5 q-92 -163 -228 -334q-53 -67 -146.5 -188t-146.5 -189t-131 -156t-149 -155q-24 -24 -45 -24q-31 0 -54 55q-13 30 -16 69q0 46 -4 132z" />
<glyph unicode="W" horiz-adv-x="1318" d="M6 61v121q6 170 27 344q3 21 14.5 123.5t20.5 157.5q9 53 25 151t22 134q5 25 35 153q3 14 12.5 54t14 68.5t5.5 55.5q0 16 6 31q10 39 30 39q14 0 32 -18q4 -4 12 -11l12 -10.5t11.5 -11t9.5 -12.5t6.5 -13.5t3 -15t-1.5 -17.5q-18 -68 -39 -161q-30 -110 -71 -349 q-42 -254 -58 -452q-3 -24 -19 -85t-16 -91q0 -21 10.5 -26t22.5 9q21 21 47 58q61 83 156 217q55 76 110.5 161.5t129.5 205.5t104 167q73 113 104 144q26 26 54.5 29.5t51 -13.5t40.5 -45q17 -27 24 -65q4 -22 4 -44q0 -15 -2 -30q-11 -73 -10 -133v-27q0 -68 -6 -246 q-4 -121 -5 -205q0 -39 1 -69q0 -3 1 -11t1 -12q5 -18 15.5 -21.5t21.5 9.5q49 61 61 82q26 43 97.5 206.5t85.5 190.5q26 54 82 197t106.5 234t124.5 165q11 8 33 -6t22 -31q0 -16 -6 -28q-15 -40 -18 -47q-33 -69 -125 -271q-14 -29 -40.5 -90t-39.5 -90 q-25 -55 -152 -328q-101 -219 -196 -323l-37 -37q-21 -18 -39 -18q-26 0 -43 42q-29 64 -35 127q-10 104 -10 237q0 62 2 130q1 14 2 42t2 42q9 116 9 207q0 25 -1 47v31q0 5 -0.5 14t-1 14.5t-2 12t-5 10.5t-9.5 6q-19 7 -45 -27q-20 -30 -69 -102t-75 -113 q-21 -33 -62 -101t-63 -101q-164 -252 -174 -269q-85 -132 -200 -280q-31 -45 -66 -86q-16 -18 -30 -18q-16 0 -31 22q-21 35 -21 69z" />
<glyph unicode="X" horiz-adv-x="1099" d="M-47 -123q-7 21 -7 38q0 34 29 50q8 4 16 10t13.5 10.5t14 13.5t11.5 13t13 15t12 14q152 176 226 264q101 119 194 209q17 17 23 25q22 20 22 51q0 10 -2 20q-1 5 -2 17t-2 18q-34 155 -49 322q-12 166 -16 245q-4 87 -21 121q-9 16 -9 44q0 9 1 20q5 31 24 42q7 4 15 4 q12 0 24 -11q50 -47 60 -99q12 -58 12 -121v-88q-1 -16 -1 -33q0 -90 17 -241q3 -33 23 -172q1 -13 10.5 -17.5t18.5 1.5q18 12 20 14q43 38 129 114.5t129 114.5q152 132 191 168q23 21 111.5 104.5t137.5 127.5q28 25 105 84q7 5 45 24q20 7 33 -12q19 -31 20 -35 q8 -17 8 -33q0 -8 -2 -17q-6 -25 -28 -34q-22 -10 -45 -24t-39.5 -25t-42.5 -32t-36.5 -30t-40.5 -35.5t-38 -33.5q-46 -41 -98.5 -88.5t-116 -105t-98.5 -89.5q-110 -99 -248 -211q-14 -9 -36.5 -31.5l-25.5 -25.5q-22 -22 -16 -51q20 -66 31 -100t36 -82.5t56 -81.5 q46 -46 88 -48q54 -4 84 -4q17 0 25 -2q18 -1 36 -15.5t15 -23.5q-19 -45 -45 -53q-49 -15 -92 -15q-143 0 -234 163q-31 59 -57 137q-6 23 -19 53q-10 19 -26 6q-13 -8 -29 -24q-76 -78 -203 -232q-2 -3 -10.5 -14.5t-13.5 -16.5q-51 -47 -134.5 -148.5t-107.5 -127.5 q-1 -1 -3.5 -4t-5 -5.5t-5.5 -4.5q-15 -17 -32 -17q-5 0 -9 2q-22 6 -33 35z" />
<glyph unicode="Y" horiz-adv-x="983" d="M-158 -670q9 178 84.5 349t237.5 364q90 104 258 246q63 56 178 141q9 7 37 30t49 37.5t45 24.5q37 17 47 70q7 40 23 112.5t20 94.5q9 56 25 159.5t22 143.5q0 6 2 18.5t2 18.5q0 13 -6 16q-15 12 -20 -6q-11 -14 -42.5 -51.5t-47.5 -59.5q-10 -17 -24.5 -36t-24.5 -31 t-30.5 -35t-27.5 -31q-40 -46 -51 -69q-1 -2 -2.5 -6t-3.5 -6.5t-6 -4.5q-24 -24 -98 -105t-121 -120q-28 -23 -117 -82q-18 -9 -51 -20q-16 -5 -30 -5q-33 0 -60 25q-40 30 -60 76q-39 84 -39 184v14q0 130 35 236q68 224 76 248q13 35 42.5 97.5t41.5 94.5q2 9 14 21 q13 18 28 18q9 0 19 -6t39 -25q14 -11 14 -32q0 -34 -20 -76q-167 -262 -182 -569q-1 -17 -1 -33q0 -67 23 -121q9 -22 20 -27.5t31 2.5q67 26 132 91q126 106 235 243q32 38 91 110t79 95q100 125 166 229q1 1 2 3t2 5.5t2 4.5t4 6.5t4.5 7.5t5 6.5t6 6t6.5 4t8.5 3.5 t10.5 1q15 0 39.5 -22t28.5 -42q4 -14 4 -31t-4 -37q-3 -16 -11.5 -49t-11.5 -49q-16 -59 -34 -171.5t-23 -139.5t-16.5 -76t-16.5 -72q-8 -48 -10 -67q-1 -22 11.5 -31.5t31.5 -1.5q5 2 11 7t9 7q6 4 19 15t24.5 18.5t22.5 11.5q8 2 27 7t28 6q-2 -11 -8 -17.5t-19 -12 t-16 -7.5q-55 -28 -121 -94q-2 -3 -6 -7.5t-6.5 -7.5t-1.5 -6q0 -18 -23 -41q-25 -16 -36 -67q-92 -376 -113 -453q-12 -42 -35 -150t-41 -161q-18 -50 -42.5 -154.5t-55.5 -185t-84 -150.5q-100 -131 -229 -166q-67 -17 -114 -17q-20 0 -36 3q-149 32 -213 180 q-31 59 -31 118v13zM-57 -667q0 -51 14 -99q21 -87 111 -106q20 -5 44 -5q48 0 111 21q48 19 88.5 50.5t71.5 78t53.5 89t43.5 107t33.5 107t30.5 113.5t27 104q67 228 131 481q17 52 27 115q2 5 2 9q0 9 -9 9q-7 0 -19 -5q-33 -14 -55 -36q-5 -4 -2 -3q2 0 5 2 q-44 -22 -84.5 -57t-86.5 -81t-81 -73q-18 -14 -35.5 -31.5t-39 -42t-31.5 -35.5q-45 -49 -72.5 -80.5t-49 -63.5t-30 -46.5t-31.5 -60t-38 -73.5q-30 -57 -48.5 -94.5t-40 -93t-30.5 -99.5q-10 -47 -10 -101z" />
<glyph unicode="Z" horiz-adv-x="1134" d="M-16 1229v33q6 44 43 53q16 4 58 11.5t65 14.5q59 18 153.5 27.5t112.5 13.5q202 26 347 26q24 0 46 -1q108 -2 309 -33q18 -4 54 -17t40 -14q22 -9 29 -14q42 -33 42 -76q0 -34 -26 -75q-6 -10 -40 -39q-101 -70 -250 -219q-63 -62 -250 -218q-241 -190 -502 -512 q-4 -4 -12 -16q-7 -11 -3.5 -20t15.5 -11l37 -1q37 0 37 1q87 11 192 15q93 4 155 4h14q64 0 198.5 -3.5t177.5 -4.5q23 0 35 -2q26 -6 45.5 -33t19.5 -56q-2 -14 -14 -28t-27 -17q-22 -3 -47 0q-155 14 -377 14q-52 0 -108 -1q-35 -1 -104.5 -3t-104.5 -3q-22 -1 -64 -6.5 t-55 -6.5q-25 -3 -73.5 -8t-71.5 -8q-6 -1 -11 -1q-35 0 -49 34q-12 24 -12 48q0 28 17 54q37 64 94 131q18 21 55.5 63t56.5 64q40 48 175 178q143 146 260 250q11 10 225 201q9 9 72 70.5t98 89.5q5 4 10.5 9.5t11.5 12.5t9 10q4 8 1.5 18t-10.5 13q-8 1 -21.5 3.5 t-25 4.5t-22.5 4q-40 7 -86 11t-101.5 6.5t-87.5 5.5q-10 1 -20 1q-25 0 -57 -5q-20 -4 -64 -4q-108 0 -209 -23q-39 -8 -125 -16q-82 -5 -194 -39q-24 -6 -29 -8q-12 -5 -22 -5q-30 0 -35 52z" />
<glyph unicode="^" horiz-adv-x="544" d="M-6 1403q16 49 41 74q34 35 73 80t63.5 74.5t70.5 87t63 79.5q31 36 39 43q49 52 92 27q22 -14 39 -41q6 -9 12 -18.5t12 -22t9 -19.5t9.5 -24t8 -21t8.5 -25t7 -22q13 -36 33 -105.5t26 -88.5q13 -56 12 -76q0 -19 -16 -35q-17 -11 -31 -4q-39 21 -67 102 q-12 33 -34.5 98.5t-33.5 98.5q-3 7 -10.5 25.5t-11.5 27.5q-14 23 -27 22t-35 -26q-26 -30 -37 -45q-28 -40 -85.5 -112t-65.5 -82q-26 -32 -101 -99q-6 -6 -18 -14q-29 -17 -39 -4q-10 10 -6 45z" />
<glyph unicode="_" horiz-adv-x="1705" d="M20 -186q-15 20 7 34q30 24 79 33q226 37 426 43q19 1 117 9t150 10q49 2 291 2q58 -1 165 -7t146 -8q13 -1 36 -4t36 -4t53.5 -7.5t55 -7t56.5 0.5q15 0 21 -2q40 -4 54.5 -25t2.5 -53q-9 -21 -37 -27q-32 -5 -71 -2q-8 1 -55.5 9t-71.5 14q-22 6 -48 10t-43.5 6.5 t-50 4.5t-43.5 3t-50.5 2.5t-45.5 1.5q-72 0 -123 5q-80 5 -180 2q-25 -1 -130 -4.5t-161 -6.5q-326 -24 -483 -59q-67 -17 -103 27z" />
<glyph unicode="`" horiz-adv-x="178" d="M4 1599q-2 21 6 40t23 28q10 8 26.5 4.5t28.5 -16.5q13 -16 23 -33q27 -50 73 -96q18 -19 95 -111q6 -9 3 -20.5t-12 -14.5q-16 -4 -20 -4q-22 -1 -45 8t-37.5 19.5t-36.5 28.5q-13 12 -106 116q-14 20 -21 51z" />
<glyph unicode="a" horiz-adv-x="1175" d="M-39 -33q-1 17 -1 35q0 90 34 188q71 203 180 361q73 111 143 201q13 18 28.5 37t37 43t31.5 36q14 16 42 49t50 58t43 45q167 163 297 242q56 32 110 43q20 4 38 5q73 0 106 -73q4 -8 8 -20q16 -20 31 -13q3 1 13 6t17 7q28 8 49.5 -8.5t24.5 -51.5q1 -8 1 -18 q0 -30 -9 -78q-25 -97 -78 -195q-60 -118 -131 -202q-37 -45 -49 -109q-25 -93 -33 -252v-19q0 -83 23 -159q30 -93 107 -93q18 0 38 5q54 12 80 14q23 7 43 -2q10 -10 10 -17q-1 -2 -1 -5q-2 -5 -3 -7q-93 -73 -190 -79h-7q-98 0 -139 88q-53 100 -53 209v75h-4l1 55 q1 56 -1 56q0 17 -13 21.5t-24 -7.5q-43 -43 -129 -110.5t-113 -91.5q-63 -54 -137 -103q-32 -23 -104.5 -74t-110.5 -79q-51 -36 -160 -72q-8 -2 -19 -2t-26 2q-25 5 -36.5 18t-14.5 41zM57 63q-1 -8 -1 -14q0 -17 8 -25q6 -5 17 -5q10 0 23 4q32 12 105 63q105 61 219 145 q94 70 141 103q34 23 73 53.5t63.5 51t71.5 61t65 55.5q29 26 29 57q0 10 -3 21q-1 6 0.5 17.5t1.5 15.5q2 16 5.5 32.5t10.5 34.5t11.5 29.5t14.5 34t14 30.5q50 106 67 185q2 12 7.5 41t7.5 39q0 64 -19 82q-9 9 -25 10q-16 0 -40 -10q-29 -10 -37 -15q-51 -33 -74 -51 q-266 -198 -498 -506q-122 -159 -211 -375q-29 -62 -47 -164z" />
<glyph unicode="b" horiz-adv-x="980" d="M10 61q9 27 15 41q19 49 34 129q15 73 33 170q1 5 4 20.5t6 22.5q17 46 35.5 134t26.5 116q15 50 35.5 148t23.5 110q0 1 2 15.5t4 21.5q9 28 18 60t15 55.5t14.5 62.5t11.5 56.5t12 64t11 58.5q0 4 2 6q13 46 39.5 149.5t49 179.5t49.5 144q9 25 31 71.5t26 55.5 q15 31 41 45q16 9 30 9q15 0 27 -11q14 -12 19 -36t-2 -44q-5 -15 -17 -40t-16 -36q-11 -24 -33.5 -73t-34.5 -74q-14 -30 -53 -154q-109 -363 -236 -932q-10 -45 -26 -135q-3 -19 0 -35q0 -10 12 -14q3 -3 10 4t13 16q20 37 48 81t43 66t57 80.5t48 67.5q29 45 78 90 q16 15 32 32.5t36 41t30 35.5q25 29 48 43q12 8 58 43.5t73 50.5q50 26 96 37q17 4 33 4q49 0 89 -34q53 -45 62 -128q2 -14 5 -42.5t5 -43.5q-12 -90 -11 -92q-53 -228 -152 -362q-4 -6 -33 -44t-37 -48.5t-32.5 -42t-37.5 -46.5t-34.5 -39t-40.5 -43t-39 -36 q-21 -18 -72 -68.5t-82 -73.5q-14 -11 -44 -35.5t-47.5 -38t-45 -29.5t-53.5 -24q-62 -19 -110 -19q-18 0 -34 3q-47 8 -92 53q-12 12 -14 21q-11 38 -58 110q-8 14 -8 28q0 11 4 21zM123 14q-1 -6 -1 -12q0 -29 25 -47q26 -21 64 -21q14 0 31 3q47 11 96 43q84 54 147 112 q181 160 289 307q102 140 139 254q2 6 10.5 30t11.5 32.5t9.5 29t9 33t5.5 30.5q3 20 4 36q0 8 0.5 16t-0.5 17q0 33 -2 51q0 12 -7 26q-14 54 -58 54h-5q-29 0 -64 -21q-77 -44 -125 -88q-76 -64 -186 -207q-91 -124 -178 -276q-6 -10 -38.5 -64t-49.5 -84 q-18 -31 -53 -93.5t-52 -92.5q-20 -39 -22 -68z" />
<glyph unicode="c" horiz-adv-x="684" d="M18 193q0 234 60 416.5t190 385.5q62 101 211 246q70 67 150 94q24 8 37 8h10q80 0 94 -94q8 -44 8 -84q0 -89 -41 -157q-10 -15 -12 -17q-5 -4 -12.5 -2t-10.5 8q-12 37 -12 78q-1 13 -1 40t-1 40q-4 30 -8 41q-9 27 -35 21q-25 -7 -59 -33q-72 -55 -164 -162 q-8 -10 -25.5 -32t-25.5 -32q-153 -194 -217 -418q-33 -118 -34 -230q0 -101 27 -197q26 -93 60.5 -131.5t107.5 -44.5q34 -3 62 -2q58 0 96 10q8 2 26 5t27 5q31 10 54 -10q4 -3 8.5 -4.5l10.5 -3.5l9 -3q12 -6 10 -12q0 -9 -10 -14q-19 -16 -33 -21q-125 -47 -233 -47 q-24 0 -47 2q-37 4 -119 33q-81 33 -121 133q-37 109 -37 185z" />
<glyph unicode="d" horiz-adv-x="935" d="M-8 -66q-4 32 -4 66q0 103 37 219q50 149 96 227q12 20 37 76q33 73 137 230q75 109 145 172q80 76 117 102q67 51 158 74q31 8 59 8q76 0 127 -59q17 -17 29 10q135 336 250 629q53 134 69 194q5 14 27 49q15 20 33 20q10 0 20 -5q38 -20 38 -59q0 -16 -7 -36 q-21 -56 -63 -168.5t-62 -169.5q-18 -53 -49.5 -153.5t-46.5 -145.5q0 -1 -2 -8.5t-4 -11.5q-57 -145 -80.5 -203t-75 -167t-100.5 -189q-40 -63 -78 -182q-64 -204 -90 -406q-2 -18 -2.5 -51t-1.5 -43q-1 -12 -9.5 -18.5t-17.5 -4.5q-41 12 -47 60q-2 10 -2.5 30.5 t-1.5 26.5q0 49 18 123q19 74 19 98q0 17 -11 25q-8 10 -20 -2q-14 -12 -39 -37q-68 -82 -219 -229q-99 -99 -205 -156q-40 -20 -79 -20q-17 0 -34 4q-30 6 -44.5 24t-20.5 57zM80 45q1 -8 2 -25.5t2 -25.5q2 -34 25 -34q6 0 14 3q55 21 104 55q17 11 34.5 25t38.5 33t32 28 q115 98 229 228q49 54 103 112q48 53 75 131q17 42 40 125t36 119q10 31 10 67q0 23 -4 48q-6 47 -43 53q-16 2 -30 2q-27 0 -48 -8q-68 -33 -94 -51q-116 -84 -225 -219q-133 -174 -227 -375q-62 -136 -74 -291z" />
<glyph unicode="e" horiz-adv-x="657" d="M-223 233v7q0 22 16 39q18 21 45 18q16 -1 32 0t34 4.5t30 6.5t33.5 9.5t30.5 8.5q27 6 41.5 21.5t21.5 45.5q55 220 181 402q122 181 272 286q61 42 107 47h8q47 0 79 -33q35 -36 40 -98q1 -14 1 -28q0 -77 -36 -162q-71 -164 -211 -297q-151 -141 -320 -221 q-18 -9 -22 -10q-31 -16 -31 -50v-6v-73q9 -88 84 -97q11 -2 32.5 -2.5t28.5 -1.5q21 0 29 -4q3 -1 14.5 -5.5t16.5 -7t10.5 -9t5.5 -15.5q1 -8 -1.5 -14t-9 -9t-10 -4.5t-13 -3.5t-11.5 -2q-9 -2 -28 -8q-19 -7 -31 -9q-8 -2 -14 -1h-5q-93 6 -147 57q-46 43 -49 113 q-1 9 -2 28.5t-2 28.5q-6 35 -35 29q-74 -18 -125 -18q-47 0 -62 6q-26 11 -28 32zM172 446q-2 -4 -2 -8q0 -7 6 -15q7 -8 14 -8q3 0 5 1q33 12 61 30q147 89 250 218q83 99 121 215q14 44 14 71v6q-1 34 -15 45q-7 5 -15 5q-11 0 -25 -7q-3 -1 -8.5 -4t-8.5 -4 q-91 -74 -153 -141q-113 -122 -201 -291q-20 -40 -43 -113z" />
<glyph unicode="f" horiz-adv-x="747" d="M-240 -388q-2 9 -2 17q0 16 9 31q11 14 28 8t30 -17.5t30 -25.5t28 -16q2 -2 6 -2q7 0 14 7.5t13.5 20.5t11.5 24t10 26.5t7 19.5q52 128 88 234q31 94 41 133q4 14 12 44t12 44q10 32 46.5 121t61.5 162.5t25 115.5q6 14 9 37l-2 8h-2q-7 0 -9 -2q-201 -54 -333 -166 q-33 -29 -52 -53q-23 -28 -39 -35q-1 0 -4 -1t-4 -1q-10 0 -18 8q-9 9 -6 23v6q6 24 8 29q33 85 88 125q88 68 190 112l6 2q25 12 93.5 48.5t105.5 52.5q29 10 39 41q71 236 159.5 425t231.5 396q22 33 53.5 65.5t77 73.5t68.5 64q54 54 137 120q50 42 166 99q19 8 31 10 q10 2 32 2q23 -1 41 -19.5t23 -43.5q2 -10 2 -19q0 -34 -29 -57q-20 -15 -28 -15q-13 0 -23 13q-11 8 -16 8q-7 0 -23 -8q-56 -30 -137 -90q-186 -136 -356 -396q-88 -126 -201 -368q-80 -181 -80 -271q2 -2 4 -2q4 0 4 2q23 5 59 9.5t60 9.5q27 6 57.5 10.5t46 5.5t55 3.5 t46.5 2.5q6 2 22 2q36 0 70 -6q6 0 18 -1t17 -1q4 -1 8 -3.5t6 -4.5t4 -5l2 -3q3 -11 0 -21q-3 -8 -14 -12q-14 -9 -35 -12q-8 -2 -24.5 -5.5t-22.5 -5.5q-117 -19 -219 -45q-14 -3 -38.5 -10.5t-33.5 -9.5q-25 -6 -55.5 -13.5t-54.5 -13.5q-29 -6 -41 -45 q-35 -127 -66.5 -225t-73.5 -219t-75 -225q-63 -203 -115 -326q-14 -35 -55.5 -73t-79.5 -38h-2h-4q-65 0 -119 66q-14 18 -21 44z" />
<glyph unicode="g" horiz-adv-x="1060" d="M-135 -791q0 49 8 82q25 88 80 201q30 63 49 99t29.5 53t46 68.5t65.5 97.5q20 36 35 53q151 208 334 379q60 55 156 133q51 41 63 90q2 6 9.5 21.5t9.5 23.5q13 40 13 63q0 6 -1 11q0 8 -8 16q-11 6 -19 -2q-18 -16 -49 -39q-151 -112 -356 -192q-88 -38 -166 -54 q-34 -5 -62 -5q-13 0 -24 1q-46 0 -75 35q-23 27 -23 59q0 9 2 19q19 71 24 80q54 142 133 241q182 229 379 355q83 55 131 76q98 49 209 49q103 0 162 -79q41 -52 41 -114q0 -31 -10 -63q-44 -147 -123 -230q-13 -10 -21 -24q-51 -111 -69 -183q-4 -8 -4 -24q8 -16 20 -12 q4 2 46.5 32t51.5 33q21 15 52 8q10 -3 10 -8q0 -6 -4 -10q-30 -22 -45 -29q-17 -10 -74 -53.5t-70 -52.5q-31 -21 -43 -60q-25 -65 -57 -157q-7 -22 -23 -62t-20 -53q-93 -255 -115 -311q-10 -26 -28 -70q-62 -161 -89 -208q-21 -35 -89 -129q-41 -57 -68 -95 q-90 -119 -178 -195q-42 -36 -76 -45q-17 -5 -34 -5q-43 0 -79 34q-58 56 -58 129q0 11 1 22zM4 -731q0 -33 12 -55q8 -14 22 -19q5 -2 11 -2q8 0 17 4q22 10 49 37q57 47 112 125q35 53 75.5 112t54 79.5t35 59t50.5 95.5q24 45 44.5 99t44.5 122t38 105q6 18 21.5 56 t21.5 56q13 26 13 37q9 28 0 33q-8 4 -10.5 3.5t-9 -5.5t-9.5 -6q0 -2 -8 -10q-23 -18 -60 -58.5t-43 -46.5q-39 -35 -116 -129q-13 -16 -37.5 -45t-44 -53.5t-35.5 -48.5q-13 -19 -45 -64t-40 -57t-30 -46.5t-30 -53.5t-24.5 -55t-29 -74.5t-28.5 -90.5q-21 -73 -21 -104z M147 508q-4 -18 -4 -31q0 -15 6 -20.5t21 -5.5q13 0 33 4q146 27 264 85.5t235 157.5q63 57 133 149q92 123 92 188q0 36 -28 55q-24 15 -65 18h-17h-10q-24 0 -47 -4q-28 -5 -57 -18.5t-46 -23t-49.5 -30t-42.5 -26.5q-69 -41 -174 -142q-118 -122 -174 -207 q-23 -36 -31.5 -50.5t-20 -42t-18.5 -56.5z" />
<glyph unicode="h" horiz-adv-x="897" d="M-51 -41q21 44 51 130t45 120q79 181 162 360q21 44 70.5 145t74.5 156q17 38 73.5 157.5t91.5 201.5t63 164q11 27 14 47q10 25 -2 35q-3 3 -6.5 3t-6.5 -2.5t-5 -5t-5 -7t-4 -5.5q-30 -39 -41 -55q-17 -25 -40 -51.5t-51.5 -57.5t-43.5 -49q-16 -16 -37 -22q-4 0 -4 4 q-2 2 -2 6q4 5 12.5 16.5t12.5 16.5q25 24 65.5 77.5t48.5 63.5q52 61 80 143q16 56 58 111q6 9 18 28.5t18 28.5q11 23 33 29q12 4 23 4q13 -1 21 -7q16 -12 20 -46q2 -11 2 -23q0 -27 -8 -63q-23 -110 -64 -219q-29 -77 -137 -316q-37 -81 -79 -169.5t-97 -200t-82 -166.5 q-46 -100 -82 -195q-6 -18 -19.5 -50.5t-17.5 -41.5q-1 -2 4 -18q4 -4 12 0q9 8 53 65.5t50 63.5q36 41 106.5 133.5t112.5 136.5q76 73 133 115q37 27 78 38q12 3 23 2q26 0 46 -14q28 -22 39 -71q7 -26 7 -64v-12q0 -29 -2 -55q-2 -30 -7 -77.5t-6 -68.5q0 -20 -5 -84 t-7 -106q0 -10 -1 -21q0 -33 5 -70q12 -65 66 -86q39 -12 81 -12q16 0 33 2q42 6 43 6q12 2 26 -13t15 -32q0 -12 -8 -16q-41 -38 -82 -43q-26 -3 -49 -3q-90 0 -152 42q-54 40 -69 112q-7 29 -7 76v16q0 38 2 72q2 41 6 91.5t5 74.5q0 14 1 39.5t1 46t-2 37.5q-5 63 -21 71 q-3 2 -8 1q-16 0 -49 -27q-62 -45 -139 -129q-94 -96 -256 -314t-176 -235q-28 -38 -66 -47q-6 -2 -11 -2q-20 0 -36 23q-16 24 -16 43q0 10 4 18z" />
<glyph unicode="i" horiz-adv-x="315" d="M-14 18q0 17 8 37q65 209 106 314q93 250 121 333q6 19 17.5 58t17.5 59q7 21 14 35q11 20 30.5 22.5t33.5 -14.5q20 -26 20 -76q-1 -6 -3 -20t-3 -18q-9 -53 -39 -125q-54 -123 -174 -463q-29 -82 -39 -140q-6 -42 -37 -67q-14 -7 -25.5 -7t-21.5 7q-26 26 -26 58v7z M313 1032q9 32 29 51q17 16 35 16q4 0 8 -1q48 -14 59 -56q4 -13 3 -25q0 -26 -19 -42q-20 -14 -51 -14q-11 0 -23 6q-22 10 -33 28q-9 14 -9 29q0 4 1 8z" />
<glyph unicode="j" horiz-adv-x="483" d="M-664 -412q-1 8 -1 15q0 8 1 14q-1 7 -1 15q0 25 14 65q6 19 19.5 67.5t23.5 73.5q93 237 356 400q118 71 277 124q120 43 215 66q60 15 65 53q7 27 31 105t33 121q10 77 57 176q13 26 41 51q17 14 37 14q20 4 37 -3.5t22 -22.5q1 -7 1 -12q0 -14 -7 -23 q-30 -40 -49 -85.5t-37.5 -111t-26.5 -88.5q-3 -10 -10.5 -34.5t-11.5 -37.5q-4 -20 -4 -30q-3 -10 5 -16.5t23 -8.5q20 -2 60 -2q2 0 6 -2.5t4 -3.5q0 -5 -8 -8q-9 -2 -31 -10.5t-35 -10.5q-62 -11 -71 -57q-3 -9 -37 -90q-51 -114 -164 -314q-131 -229 -305 -432 q-47 -54 -131 -131q-15 -15 -58 -41q-52 -27 -105 -27h-9q-59 3 -111 36q-85 56 -102 124q-2 9 -5.5 27.5t-5 27.5t-2.5 27zM-578 -389v-6q0 -29 17 -76q18 -53 74 -82q30 -16 60 -16l52 12q27 12 45 27q7 6 27.5 25t30.5 30q110 110 172 196q124 174 135 191 q83 128 147 272q12 25 36 77t36 77q1 3 4 9t4 9q1 7 -9 14t-22 7q-2 0 -6 -1t-6 -1q-156 -46 -295 -113q-101 -51 -203 -129q-188 -140 -245 -319q0 -1 -7 -19t-12 -26q-11 -23 -17 -48t-10.5 -60.5t-7.5 -49.5zM480 1298.5q17 17.5 38 18.5h3q13 0 25 -17q13 -19 13 -45 q1 -20 -13.5 -37.5t-33.5 -17.5q-18 0 -34 20q-15 20 -15 40q0 21 17 38.5z" />
<glyph unicode="k" horiz-adv-x="677" d="M-41 -111q8 27 10 43q14 79 47.5 221.5t42.5 186.5q18 86 43 179.5t59 211.5t50 176q62 235 90 377q18 95 45 211q14 70 19 115q0 22 6 43q5 19 19 31q13 11 29 10h3q15 0 28 -11.5t17 -29.5q4 -16 4 -33q0 -22 -6 -47q-6 -27 -29.5 -135t-38.5 -166q-14 -56 -86 -328 l-75 -276q-6 -35 -5 -41q2 -8 7.5 -13t11.5 -2q4 2 13 8t13 9q164 133 320 289q43 45 90 124q15 25 19 76q3 46 34 51q7 1 13 1q37 0 49 -35q10 -29 10 -56q0 -30 -12 -57q-18 -45 -66 -113q-45 -59 -151 -157q-58 -52 -312 -277q-47 -40 -69 -78q-17 -26 -17 -53 q0 -24 13 -49q23 -42 57 -76q195 -191 373 -297q30 -18 90 -74q13 -12 11 -30t-17 -29q-16 -12 -33 -12q-12 0 -25 6q-15 8 -46.5 25.5t-47.5 25.5q-43 22 -91.5 55.5t-77.5 56.5t-85 70q-100 83 -164 160q-13 13 -22 10q-10 -5 -10 -30v-11q5 -23 5 -48.5t-2 -44.5 t-9 -47.5t-11 -43t-14 -45.5q-12 -40 -19 -61q-18 -46 -26 -58q-6 -10 -18 -12t-21 6q-37 29 -37 77q0 10 2 21z" />
<glyph unicode="l" horiz-adv-x="378" d="M-20 0v66q9 227 86 464q59 183 159 408q73 163 203 414q16 32 46.5 97.5t45.5 96.5q7 12 21 45q14 25 29 33q10 5 24 5q7 0 14 -1q27 -6 38 -30q5 -11 5 -24q0 -14 -6 -28q-35 -91 -65 -139q-26 -42 -50.5 -87.5t-59.5 -115t-46 -90.5q-103 -199 -201 -440 q-112 -285 -137 -502q-6 -40 -6 -80q0 -38 10.5 -49.5t44.5 -14.5h37q26 -6 29 -8q20 -9 25 -33t-9 -44q-13 -21 -22 -25q-31 -13 -51 -19q-19 -7 -48 -7h-2q-28 0 -53 12q-58 25 -61 96z" />
<glyph unicode="m" horiz-adv-x="1296" d="M-53 8q2 2 2 6q24 43 41.5 94t35 118t27.5 98q93 297 170 522q86 252 107 301q10 29 24 49q17 22 36 22q10 0 20 -6q12 -6 20.5 -23t7.5 -34q0 -27 -14 -55q-57 -122 -137 -365q-11 -36 -68 -186q-13 -36 -18 -70q-3 -5 4 -18q12 -9 22 4q11 11 17 20q102 168 155 252 q60 93 105 150q10 13 59.5 82t79.5 102q34 39 74 39q32 2 57 -16t35 -52q15 -54 16 -97q0 -20 -4 -38q-20 -139 -63 -289q-8 -35 -10 -57q0 -7 6 -10q2 -1 5 -1t5 1q16 13 29 29q83 99 168 198q76 88 184 178q5 4 15.5 11.5t15.5 11.5q28 18 56 18q25 0 49 -15 q51 -31 58 -103q2 -18 2 -54q-3 -92 -26 -168q-13 -43 -103 -335q-27 -103 -32 -140q-1 -12 -4 -23.5t-9 -24t-9.5 -18.5t-13 -21t-11.5 -19q-13 -19 -35 -8q-28 16 -31 20q-27 18 -18 55q9 42 34 115.5t31 95.5q6 21 24 76t26.5 83t21.5 73t21.5 84t15.5 78q8 40 8 69 q0 13 -2 25t-11 18t-18 0q-29 -19 -76 -57q-108 -98 -247 -289q-43 -59 -117.5 -174t-110.5 -166q-6 -7 -14.5 -24l-9.5 -19q-8 -20 -17 -29q-19 -25 -39 -25q-12 0 -26 9q-38 25 -38 66q0 8 1 16q9 35 14 49q93 257 162 539q2 8 7 27t7.5 29.5t6 26.5t5 30t1.5 28 q0 3 0.5 12.5t0 14.5t-1.5 12t-4.5 11.5t-9.5 6.5q-5 5 -12.5 0.5t-10 -7t-8.5 -11t-8 -10.5q-136 -176 -233 -336q-19 -31 -65.5 -102t-71.5 -111q-27 -44 -76.5 -129t-56.5 -96q-21 -44 -48 -84q-23 -33 -51 -107q-1 -2 -2 -7t-2 -7q-12 -29 -29 -45q-11 -10 -20 -11 q-4 0 -8 3q-51 41 -51 84q0 15 6 30z" />
<glyph unicode="n" horiz-adv-x="905" d="M-22 -62q-2 9 -2 19q0 22 10 53q17 47 50 140.5t50 140.5q23 69 68.5 206t68.5 205q10 33 32 98.5t32 98.5q21 78 21 132q0 13 -1 24q-1 4 -1 9q0 33 32 85q15 26 39 31q6 1 11 1q18 0 36 -12q19 -16 22 -41q0 -35 -2 -51q-5 -78 -36 -168q-51 -144 -60 -174 q-72 -215 -86 -258q-15 -51 -22 -82q0 -10 4 -14q7 -7 14 4q102 129 109 139t61 78q26 32 92 114.5t103 125.5q77 96 190 168q33 18 59 18q9 0 17 -2q59 -12 81 -43q20 -27 19 -81v-15q-3 -85 -35 -170q-8 -21 -80 -203q-11 -26 -53 -125.5t-63 -152.5q-14 -33 -31 -103 q-6 -20 2 -57q5 -30 -6 -51.5t-37 -44.5q-13 -12 -36 -10.5t-38 16.5q-21 21 -21 50q0 14 5 30q41 134 51 161q22 57 68 170.5t69 171.5q48 115 74 230q9 28 9 52q0 7 -1 13q0 19 -9 26.5t-21 -1.5q-69 -51 -82 -64q-119 -119 -242 -284q-82 -113 -113 -152 q-45 -56 -120 -169.5t-89 -133.5q-4 -5 -11 -16.5t-11 -16.5q-47 -57 -72 -119q-16 -37 -35 -47q-11 -5 -20 -5q-11 0 -21 7q-34 23 -42 49z" />
<glyph unicode="o" d="M-10 340q8 84 41 174q1 4 53 150q104 277 319 426q42 32 105 32q62 0 88 -71q4 -11 9.5 -36t12.5 -43.5t17 -33.5q6 -8 6 -37v-88q0 -155 -29 -326q-44 -222 -155 -358q-129 -155 -281 -174q-10 -1 -19 -1q-53 0 -97 44q-50 52 -64 125q-11 65 -11 130q0 43 5 87zM84 260 q0 -49 4 -78q9 -61 38 -83q17 -13 38 -13q14 0 29 6q3 1 13.5 4t16.5 6q150 78 223 242q66 142 84 389q1 10 1 20q0 38 -19 68q-23 40 -23 91v12q0 15 -4 47q-2 15 -13 15q-2 0 -5 -1q-43 -13 -72 -39q-135 -120 -223 -307q-82 -169 -88 -379z" />
<glyph unicode="p" horiz-adv-x="913" d="M-289 -340q0 23 6 27q14 7 22 17t10.5 17.5t6.5 24.5q1 4 6.5 4.5t8.5 -2.5q13 -6 16 -16q1 -4 4 -18t6 -21q0 -1 2.5 -12t6 -15.5t10.5 -5.5q11 -1 16.5 3.5t8 15t3.5 12.5q29 59 62 131t54 121l58.5 136.5t53.5 125.5q5 12 7.5 21.5t4.5 16t-1.5 11.5t-4 7.5t-9.5 4.5 t-11 3t-16 2.5t-19 2.5q-55 7 -93 19q-38 15 -54.5 30.5t-17 34t2.5 45.5q0 7 9 10.5t15 0.5q7 -3 16.5 -9t12.5 -8q56 -37 147 -37q21 0 45 2q31 3 37 27q23 61 66 160q86 233 92 250q18 47 21 94q0 31 18 44q11 8 35 8q15 0 35 -3q24 -5 33 -13t12 -28q3 -35 -4 -55 q-7 -16 -21 -53q-9 -22 -58 -139t-73 -181q-2 -6 -7.5 -17t-8.5 -18t-3.5 -18t5.5 -21q15 -2 29 1t31 8.5t26 7.5q140 40 305 131q82 43 192 131q46 37 64 86q8 20 8 38q0 44 -47 77q-22 13 -64 30q-67 29 -165 47q-151 30 -240 30q-19 0 -35 -1h-80q-72 -3 -131 -29 q-33 -15 -55 -22q-44 -17 -82 -55q-25 -32 -55 -41q-36 -12 -47 16q-10 20 -10 37q0 26 24 45q72 59 110 74q5 0 13 4q108 63 282 63q247 0 488 -82q79 -26 137 -69q32 -25 57 -64q27 -39 27 -78q0 -46 -35 -92q-34 -42 -82 -82q-102 -77 -159 -110q-9 -9 -21 -13 q-196 -108 -391 -163q-19 -6 -117 -31q-39 -6 -51 -39q-2 -5 -133 -322q-10 -23 -35 -85t-44 -104.5t-40 -82.5q-13 -21 -25 -45t-26 -55t-21 -45q-15 -30 -51 -41q-11 -3 -20 -3q-26 0 -47 19q-38 38 -43 76q-14 70 -15 94z" />
<glyph unicode="q" horiz-adv-x="714" d="M-12 334q-2 12 -2 24q0 37 18 78q67 157 213 287q15 13 42.5 36t43.5 36q26 30 29 45q3 24 26 28q24 4 46.5 13.5t54.5 27.5t41 23q50 24 84 33q1 1 6 3.5t8 4.5q14 2 27 2q44 0 73 -29q35 -34 35 -94v-10q-3 -49 -24 -86q-66 -129 -129 -181q-22 -26 -17 -57 q2 -13 21 -82q35 -135 51 -291q10 -112 10 -176v-20q-4 -194 -35 -324q-41 -184 -155 -325q-77 -90 -164 -111q-17 -5 -34 -5q-33 0 -67 16q-54 24 -79 75q-52 107 -52 238v14q11 245 119 524q40 98 94 217q15 45 15 54q0 6 -4.5 10.5t-10.5 1.5q-24 -10 -69 -37 q-49 -26 -135 -37q-24 -4 -48 19.5t-32 54.5zM88 385q0 -13 16 -18q24 3 52 20q28 15 83.5 49t84.5 49q35 17 86 68q21 19 21 45q0 9 -3 20q-7 21 -20 56.5t-17 48.5q-4 12 -14 13.5t-19 -7.5q-153 -120 -219 -219q-23 -37 -39 -74q-12 -24 -12 -51zM154 -483q-1 -14 -1 -28 q0 -75 27 -146q21 -50 60 -50q13 0 28 5q25 7 58 32q89 82 125 158q43 106 55 147q7 24 13 48t9.5 52t6 46.5t4.5 52t2.5 46t2 51.5t1.5 46q-1 19 -2.5 77.5t-4.5 95.5t-10 73q-4 21 -10 58.5t-12 68.5t-14 58q-4 13 -13.5 16t-15.5 -8q-15 -17 -27.5 -36.5t-28 -47.5 t-22.5 -39q-14 -31 -104 -225q-47 -105 -95 -297q-27 -136 -32 -254zM477 762q4 -11 14 -31.5t15 -30.5q2 -11 11 -11q5 0 11 3q85 48 97 144q1 4 1 7q0 7 -4 12q-6 7 -18 7q-22 -2 -55 -14t-55 -27t-22 -37q0 -10 5 -22z" />
<glyph unicode="r" horiz-adv-x="727" d="M-8 47q0 8 1 24.5t1 24.5q10 73 39 178q26 80 69 289q50 254 101 467q1 4 6 29q11 46 51 46q5 0 10 -1q17 -1 30 -23t11 -47q0 -13 -8 -41q-2 -7 -6 -21.5t-6 -21.5q-5 -21 0 -26q3 -2 5.5 -2.5t5.5 1t4.5 3l4.5 4.5l4 4q14 10 21 20q88 100 221 154q5 2 24 10t24.5 10 t23 9l25 10t23.5 9t25 8.5t23.5 7t25 7t23.5 5t25 4.5q27 4 50 4q16 0 30 -2q36 -6 51 -43q4 -6 4 -12q0 -5 -2 -9q-4 -12 -12 -14q-30 -8 -50 -10q-208 -24 -385 -152q-99 -70 -157 -184q-138 -267 -183 -518q-31 -185 -34 -252q-3 -41 -31 -51q-11 -4 -21 -4q-19 0 -34 16 q-33 41 -33 90z" />
<glyph unicode="s" horiz-adv-x="788" d="M-59 72q-1 9 7 19q8 11 17 11q3 0 27 -6q69 -24 180 -23q48 0 106 4q188 15 273 62q-5 10 -57.5 57t-120 113t-135.5 144t-114.5 171t-47.5 173v3q0 83 52 153q52 71 134 113t176 66q91 23 178 23h8q90 -1 152 -25q38 -15 60 -55q8 -12 8 -23q0 -16 -15 -30 q-21 -21 -43 -21q-9 0 -18 3q-52 22 -118 27q-30 2 -58 2q-33 0 -62 -3q-49 -4 -96 -14t-92.5 -27t-79.5 -43t-55 -58q-20 -30 -20 -72q1 -4 1 -6q2 -44 27 -95q61 -116 87 -153.5t108 -123.5q26 -27 152.5 -137t158.5 -162q17 -25 11 -49t-32 -39q-98 -57 -336 -85 q-114 -14 -199 -13q-92 0 -149 16q-2 1 -5.5 2t-4.5 2q-36 11 -50 31t-15 68z" />
<glyph unicode="t" horiz-adv-x="628" d="M-197 725q-4 5 -4 13q0 15 15 40q12 24 45 35q52 14 112 25q98 19 228 36q31 2 51 44q98 188 149 280q76 133 136 205q31 38 67 49q7 3 14 3q19 0 33 -23q9 -19 9 -35q0 -18 -11 -33q-8 -9 -23.5 -27.5t-23.5 -27.5q-56 -61 -104 -144q-20 -34 -59 -101t-58 -101 q-12 -22 -19 -45q-5 -16 9 -25q13 -10 53 -14q60 -9 106 -52q20 -20 29 -47q7 -28 -5.5 -47.5t-37.5 -17.5q-20 0 -45 18q-22 14 -51 21.5t-43.5 8.5t-52.5 3h-5q-39 0 -53 -45q-2 -9 -8 -26.5t-8 -26.5q-51 -169 -62 -275q-3 -33 -4 -64q0 -91 29 -171q40 -116 137 -116 q9 0 19 1q56 5 131 33q92 36 190 108q33 23 57 23q7 0 13 -2q11 -3 14 -13q1 -3 1 -7q0 -7 -5 -13q-7 -7 -27.5 -29t-31.5 -32q-163 -139 -328 -164q-21 -3 -40 -3q-65 0 -120 33q-41 21 -61 66q-67 127 -67 235q0 12 1 23q0 107 35 274q4 20 10.5 42.5t14.5 48.5t12 41 q9 38 -23 38q-55 0 -114 -6q-35 -4 -79 -13t-89 -13q-3 0 -14 -0.5t-16.5 0t-13.5 3.5t-14 9z" />
<glyph unicode="u" horiz-adv-x="868" d="M-41 291q18 246 111 467q35 83 131 241q25 42 65 60q25 10 41.5 -7t11.5 -48q-2 -14 -20 -46q-75 -110 -111 -176q-65 -109 -114 -301q-25 -123 -26 -214q0 -28 3 -52q1 -18 15 -70q14 -57 67 -63q25 -3 55 4q114 25 217.5 89t181 152.5t133 195t81.5 220.5 q30 127 30 203q2 19 5.5 56t5.5 55q3 37 24 67q6 10 18 10q1 0 1 1q11 0 18 -9q21 -24 25 -69q1 -26 1 -50q0 -127 -18 -212q-16 -97 -50.5 -205t-76.5 -184q-77 -145 -215 -262t-280 -148q-74 -18 -131 -18q-90 0 -136 44q-65 63 -65 218q0 24 2 51z" />
<glyph unicode="v" horiz-adv-x="653" d="M0 377q2 71 13 259q10 173 10 274v18q1 6 1 15q0 22 -4 63q0 27 -20 67q-5 13 -5 26q0 28 21 60q21 35 51 35q6 0 13 -2q18 -3 31 -23q11 -19 18 -51q0 -1 3 -35t3 -51q1 -26 1 -61q0 -70 -5 -178q-21 -298 -21 -468q0 -28 1 -53q0 -20 2 -30q0 -27 8 -29q13 -9 31 18 q19 25 79 113q91 147 183 264q134 173 348 494q10 16 31.5 45.5t31.5 44.5q4 5 11.5 13.5t11.5 13.5q15 13 29 13q9 0 18 -5q5 -3 7 -8.5t2 -10.5t-0.5 -15.5t-0.5 -16.5q-2 -19 -26 -66q-131 -244 -353 -537q-47 -62 -125.5 -179.5t-103.5 -153.5q-17 -27 -53 -81l-54 -81 q-10 -15 -31.5 -40t-29.5 -36q-16 -21 -42 -21q-11 0 -23 4q-42 12 -52 54q-1 5 -2 16.5t-2 16.5q-8 102 -8 204q0 50 2 101z" />
<glyph unicode="w" horiz-adv-x="1243" d="M-18 100v62q8 139 14 207q17 196 18 202q7 64 18 134.5t27 159.5t23 134q24 140 24 209q0 33 21 57.5t49 26.5q15 0 31.5 -17t19.5 -38q2 -16 1.5 -32.5t-1.5 -33.5q-5 -76 -43 -247q-41 -183 -57 -394q-1 -14 -6 -60q-4 -38 -4 -62v-9q0 -10 2 -14q0 -8 4 -12q6 -4 16 6 q6 10 18.5 29.5t18.5 29.5q21 36 61 104.5t65.5 111t62 101t69.5 105.5q43 62 78 88q29 20 48.5 28t41.5 6t43 -20.5t45 -54.5q46 -67 68 -200q12 -63 31.5 -188.5t31.5 -188.5q13 -84 35 -148q1 -2 10 -22t15 -29q16 -32 39 -2q43 58 73 125q101 219 174 471q15 53 66 188 q3 7 7.5 15t11.5 18t10 15q3 6 10 4t8 -9q7 -16 20 -59q3 -12 3 -25t-3 -26q-10 -34 -35.5 -140.5t-45.5 -162.5q-78 -226 -132 -353q-32 -73 -104 -178q-20 -29 -49 -43q-17 -8 -36 -8q-13 -1 -26 3q-33 10 -57 46q-35 48 -65 148q-37 131 -62 340q-13 106 -47 247 q-18 56 -29 72q-14 23 -31 23q-12 0 -26 -11q-25 -21 -41 -43q-142 -223 -219 -366q-133 -251 -174 -348q-12 -35 -43 -47q-16 -7 -30 -7q-19 0 -36 12q-29 22 -30 70z" />
<glyph unicode="x" horiz-adv-x="696" d="M-54 -172v7q0 19 9 38q27 46 59 100q36 59 103.5 166.5t89.5 143.5q17 27 17 56q0 16 -5 32q-45 140 -55 334q-3 69 -12 137q-7 84 -46 131q-20 25 -13.5 48.5t34.5 35.5q14 6 28 6q29 0 56 -27q45 -49 53 -102q6 -30 10 -88q15 -150 27 -303q2 -18 10 -49q3 -6 9.5 -8.5 t11.5 1.5q17 20 28 37q13 21 50 79.5t55.5 88t47.5 78t52.5 90.5t44.5 84q53 102 129 213q10 17 23 33q20 22 41 22q15 0 31 -12q21 -16 21 -38q0 -17 -13 -36q-42 -57 -82.5 -126t-88.5 -156.5t-75 -132.5q-12 -20 -37.5 -60.5t-38.5 -60.5q-70 -109 -131 -211 q-7 -7 -10 -17q-8 -17 -8 -32q0 -18 12 -33q43 -56 94 -66q78 -12 84 -12q28 -2 62 -29q9 -7 9.5 -21.5t-7.5 -23.5q-19 -19 -50 -26q-11 -1 -33 -2t-32 -2q-103 0 -172 61q-37 34 -48.5 31.5t-39.5 -49.5q-15 -26 -87.5 -139.5t-103.5 -180.5q-8 -25 -30 -43 q-17 -13 -37 -13q-1 0 -2 -1q-19 0 -29 12q-13 13 -15 35z" />
<glyph unicode="y" horiz-adv-x="862" d="M-203 -453q13 178 94 324q13 25 28 49.5t35.5 53t33 45.5t39.5 52t36 46q27 34 65.5 74t62.5 62t77 69q2 3 15 16q4 11 -9 14q-16 0 -28 2q-50 7 -97 46.5t-57 95.5q-6 34 -6 65q0 24 4 47q28 152 66 226q50 121 98 202q8 14 23.5 37.5t27 43.5t17.5 40q7 20 36 29 q14 3 26 3q14 0 26 -5q20 -9 28 -32t-2 -42q-22 -40 -35 -53q-43 -41 -92 -137q-79 -170 -96 -256q-12 -51 -12 -98q0 -32 6 -62q4 -32 19.5 -44t49.5 -14h6q26 0 64 15q62 22 133 82q134 122 203 274q34 69 49 103l4 16q13 20 35.5 27.5t42.5 1.5q20 -8 31 -33t2 -47 q-3 -7 -26 -62t-34 -84q-13 -31 -26 -67q-2 -8 3.5 -12t14.5 -3q7 2 22.5 7.5t22.5 7.5q36 17 51.5 24t23 10t30 9.5t49.5 15.5q25 11 94 23q21 0 23 -4q6 -14 28 -11q12 4 33 4q10 0 10 -6q1 -2 1 -3q0 -4 -5 -7q-3 -1 -4 -2q-4 -2 -10.5 -5t-7.5 -3q-51 -13 -100.5 -30 t-123.5 -46t-94 -37q-21 -9 -30 -13.5t-11 -7.5t-2.5 -5.5t-8.5 -10t-26 -18.5q-50 -30 -67 -80q-6 -14 -29.5 -77t-38.5 -95q-116 -267 -219 -440q-3 -6 -37.5 -67t-54.5 -91q-66 -119 -188 -258q-1 -1 -37 -43q-36 -39 -78 -68q-22 -16 -47 -16t-53 16q-63 44 -82 105 q-15 58 -15 102v10zM-94 -453v-71q4 -29 14 -41q7 -11 18 -11q6 0 13 3q10 8 26 20q18 20 54.5 58.5t54.5 58.5q93 116 188 289q134 236 197 389q12 26 33 76t31 73q1 1 1 3.5t-1 5.5q-2 7 -7 8h-2h-6q-7 -2 -8 -2q-19 -15 -65 -50t-72 -55q-133 -120 -185 -176 q-80 -89 -145 -180q-30 -43 -51 -90q-88 -172 -88 -308z" />
<glyph unicode="z" horiz-adv-x="649" d="M-14 111q33 62 65 106q62 90 228 272q142 157 225 275q31 48 51 98q8 31 10 49q2 32 -6.5 47.5t-32.5 24.5q-34 12 -56 19.5t-54.5 15.5t-58.5 11t-57 2.5t-60 -7.5q-14 -4 -47 -4q-30 -3 -43 33q-4 13 -4 25q0 20 12 36q26 32 57 35q29 3 59 3q141 0 299 -62 q53 -17 91 -72q31 -45 31 -102q0 -17 -3 -35q-13 -82 -53 -136q-140 -193 -350 -413q-41 -44 -137 -185q-10 -16 -13 -32q-3 -8 0.5 -15t10.5 -8q6 -4 22 -4q82 0 121 4q32 4 69 5.5t63.5 2t70 1.5t65.5 1q11 1 23 -1t26 -6t23 -5q27 -5 43 -45q4 -9 1 -15.5t-9 -6.5 q-50 -14 -90 -19q-251 -33 -363 -35q-13 0 -37.5 -0.5t-39.5 -0.5t-36 1t-39 4q-33 3 -55 25q-35 29 -35 66q0 22 13 47z" />
<glyph unicode="|" horiz-adv-x="155" d="M-8 463v268q4 98 20 289q6 61 20.5 176t16.5 133q2 12 7 35.5t7 36.5q3 14 11.5 49.5t12.5 62t3 52.5q0 14 2 20q7 39 29 52.5t53 -1.5q22 -9 25 -39q2 -31 -4 -71q-28 -115 -31 -125q-29 -88 -49 -277q-9 -92 -15 -123q-11 -78 -14 -180q-12 -285 -12 -291 q0 -116 0.5 -169.5t6 -147.5t17.5 -168q10 -69 -35 -100q-20 -14 -34 8q-21 32 -27 82q-19 220 -10 428z" />
<glyph unicode="~" horiz-adv-x="1009" d="M6 801v39q8 73 55 139q39 59 74 102q48 55 92 62q156 27 238 -99q14 -22 42 -67t42 -68q33 -56 49 -78q101 -141 268 -104q80 16 164 96q16 13 29 29q14 14 37 8q6 -2 10.5 -9t1.5 -13q-4 -18 -8 -25q-47 -81 -88 -113q-61 -47 -111 -69q-60 -23 -88 -17q-139 3 -227 88 q-49 47 -101 138q-46 82 -71 121q-47 73 -119 79t-127 -57q-45 -52 -94 -152q-14 -29 -27 -49q-8 -16 -22 -10q-19 6 -19 29z" />
<glyph unicode="&#xa1;" horiz-adv-x="458" d="M9.5 -56q-3.5 22 17.5 60q12 21 23.5 49t17 44.5t18 54.5t16.5 49q55 166 91 286q23 76 59 236q6 24 31 147q16 87 55 191q24 68 74 115q23 19 39 8q20 -17 20 -43v-15q-1 -7 -2.5 -19.5t-3.5 -23t-6 -18.5q-43 -76 -74 -221q-10 -42 -31.5 -135.5t-39 -163.5t-35.5 -133 q-8 -28 -27 -93.5t-30 -101.5t-27 -89.5t-32 -100t-32 -90.5q-12 -35 -31 -54q-17 -19 -37 -4q-9 6 -20 17q-30 26 -33.5 48zM449 1477q-3 52 20 75q50 44 74 -18q20 -53 16 -133q0 -11 -8 -27q-10 -28 -22.5 -30t-32.5 18q-47 50 -47 115z" />
<glyph unicode="&#xa2;" horiz-adv-x="684" d="M-47 578q-3 89 27 190q45 139 116 258q54 88 99 135q14 14 39 42.5t38 43.5q26 23 33 62q9 46 22.5 98t32 114.5t27.5 96.5l3 12t4.5 15t6.5 12q12 12 30 17t32 -1q54 -23 41 -65q-9 -39 -15 -58q-8 -25 -24 -70.5t-19 -54.5q-7 -18 3 -28q13 -11 26 2q13 9 26.5 16 t31.5 13t27.5 9t33 9t29.5 8q23 6 45 -10q6 -5 41 -25q15 -9 12 -24q-4 -17 -14 -19q-5 -1 -15.5 -3.5t-18.5 -4.5t-14 -4q-113 -20 -239 -113q-23 -18 -33 -55q-43 -186 -55 -258q-2 -13 -8 -50t-9 -57q-5 -35 -14 -104t-14 -104q-3 -30 -9.5 -90.5t-9.5 -90.5 q-8 -73 -10 -112q0 -23 7.5 -33t29.5 -16q75 -23 168 -13q59 8 213 39q13 3 45 17q38 18 80 -9q14 -7 0 -18q-85 -59 -152 -76q-16 -4 -49 -12t-49 -12q-57 -15 -129 -16t-131 5q-2 0 -6 1t-6 1q-26 3 -29 -22q0 -55 2 -84q0 -21 2 -31h-2q6 -93 6 -96q3 -36 -29 -45 q-19 -6 -36.5 0.5t-26.5 21.5q-16 33 -16 76v146v43q0 43 -31 67q-7 7 -19 15q-141 117 -147 299zM41 594q3 -125 72 -211q19 -24 30 -27q13 -4 17 4q1 3 6 23q4 23 5.5 67.5t4.5 63.5q41 327 66 471q9 50 -2 70q-15 1 -24 -7t-16 -20.5t-12 -17.5q-9 -9 -26 -39 q-50 -99 -74 -164q-41 -110 -47 -213z" />
<glyph unicode="&#xa3;" horiz-adv-x="892" d="M-219 791q-3 44 33 47h102q89 0 115 -7q25 -3 49 0q28 0 37 9.5t14 40.5q7 44 21.5 132t21.5 132q16 114 59 260q27 90 103 166q35 33 89 38t93 -20t45 -69q3 -15 -8 -27.5t-25 -9.5q-7 2 -20.5 7t-20.5 7q-75 23 -120 -35q-4 -5 -15.5 -20t-18 -26.5t-11.5 -24.5 q-37 -104 -41 -119q-39 -152 -72 -389q0 -2 -1 -6.5t-1 -6.5q0 -13 7.5 -21.5t19.5 -8.5q21 1 60 4t60 4q28 3 85 9t85 9q32 3 52.5 -16.5t25.5 -56.5q6 -57 -47 -60q-102 -6 -309 -14q-6 0 -18.5 -1t-18.5 -1q-23 -3 -27 -31q-19 -120 -39 -266q-5 -28 -11 -79.5t-7 -59.5 q-4 -33 -8 -95q-5 -29 6 -36q12 -6 35 12q106 79 274 96q101 12 109 12q172 7 299 -41q18 -7 51.5 -26t40.5 -23q33 -19 43 -26q30 -16 57 -7q47 20 66 -38q12 -42 -10 -84q-9 -17 -27 -25t-37 -2q-29 10 -55 27q-34 20 -88 57q-60 42 -154 59q-98 17 -205 11 q-115 -6 -221 -43q-56 -17 -104 -68q-102 -110 -138 -184q-10 -23 -28 -26t-33 15q-1 1 -8 11t-12 16q-18 24 -20 37.5t11 40.5q33 57 43 139q22 138 45 305q8 49 22 140.5t19 126.5q0 3 1 9t1 9q3 26 -18 29q-4 0 -50.5 5.5t-70.5 6.5q-57 4 -149 27q-30 6 -33 43z" />
<glyph unicode="&#xa8;" horiz-adv-x="634" d="M72 1561q4 55 37 84q27 24 71 18q52 -11 60 -49q0 -5 4 -17q11 -47 -11.5 -67t-68.5 -25h-14q-37 0 -57.5 15t-20.5 41zM529 1478q-2 12 20 31q49 46 115 43q53 3 75 -22q21 -23 15.5 -42.5t-35.5 -29.5q-52 -19 -133 -12q-11 0 -27 8q-28 12 -30 24z" />
<glyph unicode="&#xa9;" horiz-adv-x="1179" d="M25 729q-20 164 8 297q10 51 35 117q73 176 170 276q45 48 75.5 65.5t108.5 41.5q115 49 301 -2q109 -32 178 -76q162 -105 238 -281q8 -17 16 -55q9 -39 -8 -68q-5 -11 -16.5 -13t-20.5 7q-23 28 -25 33q-1 2 -14 41q-65 198 -246 281q-110 49 -225 61 q-202 22 -332 -123q-95 -109 -133 -239q-41 -148 -33 -285q18 -234 134 -432q35 -61 67 -101q92 -121 217 -127q141 -9 246 74q115 95 162 156q86 118 86 274q3 167 -70 305q-7 12 -31.5 57.5t-40.5 69.5q-10 12 -18 37t4 33q10 8 29 0l6 -6q39 -39 55.5 -56.5t43.5 -54 t42 -71.5q92 -210 72 -363q-21 -167 -86 -260q-79 -119 -201 -217q-59 -50 -133 -72q-135 -40 -257.5 2t-215.5 178q-159 229 -188 496zM414 553q-19 180 20 321q33 109 113 189q46 46 117 43q61 -6 106 -74q15 -24 6 -49q-5 -20 -16 -22.5t-25 14.5q-28 39 -33 45 q-18 20 -40 14q-43 -16 -50 -22q-58 -52 -80 -115q-54 -146 -34 -289q5 -34 16 -76q17 -55 32.5 -66.5t59.5 -0.5q20 5 23 6q6 3 12 3t10 -0.5t11.5 -5t9.5 -6l10 -7.5q10 -10 6 -25l-6 -12q-61 -61 -121 -66q-53 -5 -96 51q-41 60 -51 150z" />
<glyph unicode="&#xad;" horiz-adv-x="1095" d="M48 697q77 38 208 61q22 4 39 6q29 3 98.5 5.5t106.5 6.5q287 38 520 41q55 0 52.5 -27.5t-50.5 -56.5q-42 -26 -82 -26q-56 -2 -100.5 1.5t-63 4t-98.5 -7.5q-34 -3 -180.5 -15.5t-180.5 -15.5q-32 -3 -101 -23t-103 -22q-23 0 -47 6q-102 20 -18 62z" />
<glyph unicode="&#xae;" horiz-adv-x="917" d="M8 596q-23 119 2 248q36 196 146 330q84 105 223 118q92 8 147 -6q8 -2 27 -2q43 -5 51 4.5t8 61.5q-1 15 6 21t19 1q29 -13 47 -43q149 -240 199 -436q16 -75 16 -143q3 -137 -106 -209q-47 -32 -93 -49q-247 -85 -424 -80q-10 0 -29 -0.5t-34.5 -0.5t-30.5 1 q-65 6 -113 57t-61 127zM88 731q-2 -23 2 -72q3 -33 25 -55q47 -50 102 -53q42 0 33 45q-5 24 -13 76t-16.5 91t-21.5 73q-17 60 -15 86q0 26 9.5 36.5t31.5 10.5t28 4t9 24q4 40 4 64q0 4 0.5 12t0.5 12.5t-2 10t-7 8.5q-5 0 -7 1.5t-7 -2.5t-6 -5l-5.5 -5.5l-5.5 -5.5 t-13.5 -15.5t-18.5 -22.5q-96 -147 -107 -318zM317 909q1 -20 8.5 -25t22.5 1q53 22 131 96q7 7 10 20q5 7 2 19t-10 16q-44 21 -119 25q-21 0 -30 -25q-18 -58 -15 -94v-33zM342 598q2 -6 2 -16q3 -28 27 -31h30q1 0 19.5 3t30.5 7q14 5 18 19q3 16 -14 24q-62 33 -68 35 q-28 13 -37.5 4.5t-7.5 -45.5zM435.5 780.5q1.5 -19.5 37.5 -41.5q48 -28 107 -53q32 -18 36 -49q6 -44 37 -31q61 20 105 56q31 22 37 63q5 51 4 63q-12 158 -111 361q-7 17 -22 6q-45 -35 -33 -80v-8q16 -67 -41 -117q-22 -20 -64 -60t-63 -59q-31 -31 -29.5 -50.5z" />
<glyph unicode="&#xb0;" horiz-adv-x="305" d="M84 1389q-6 108 63 180q5 5 25 20q43 37 78 35q50 -3 102 -39q17 -12 21 -41q0 -1 2 -18t4 -25q1 -6 6 -6.5t8 2.5q4 4 19 29q18 37 26 49q12 16 27 10t18 -26q7 -46 -6 -78q-33 -96 -104 -157t-156 -58h-27q-45 3 -74 36.5t-32 86.5zM168 1438q3 -36 35 -47q10 -5 24 -5 q43 0 90 31q21 15 0 33q-7 6 -21.5 19.5t-21.5 19.5q-43 30 -86 -4q-20 -14 -20 -47z" />
<glyph unicode="&#xb4;" horiz-adv-x="186" d="M-8 1456q-1 7 1 14t4.5 10.5t8.5 10t8 8.5q11 14 25 25q29 18 86 55.5t86 56.5q28 14 37 17q25 7 37 -13q10 -20 0 -47q-12 -24 -35 -37l-51 -30t-55 -32t-51.5 -25.5t-57.5 -20.5q-37 -11 -43 8z" />
<glyph unicode="&#xb8;" horiz-adv-x="544" d="M74 -61q21 87 51 143q8 16 25 33q6 7 13.5 6.5t12.5 -6.5q9 -18 6 -43q-9 -26 -12 -52q-4 -26 1.5 -36t27.5 -15q24 -4 41 -4q32 -4 100 -8q40 -2 117 -27q62 -21 100 -77q34 -56 19.5 -129t-68.5 -142q-23 -33 -62 -43q-193 -69 -303 -45q-28 7 -43 17q-10 7 -16 22 q-9 14 2 25q10 10 20 10q66 8 111 10q99 6 203 47q91 34 67 123q-12 40 -43 59q-77 48 -180 48h-24q-45 0 -68 -2q-40 0 -72 16q-36 17 -26 70z" />
<glyph unicode="&#xba;" horiz-adv-x="305" d="M84 1389q-6 108 63 180q5 5 25 20q43 37 78 35q50 -3 102 -39q17 -12 21 -41q0 -1 2 -18t4 -25q1 -6 6 -6.5t8 2.5q4 4 19 29q18 37 26 49q12 16 27 10t18 -26q7 -46 -6 -78q-33 -96 -104 -157t-156 -58h-27q-45 3 -74 36.5t-32 86.5zM168 1438q3 -36 35 -47q10 -5 24 -5 q43 0 90 31q21 15 0 33q-7 6 -21.5 19.5t-21.5 19.5q-43 30 -86 -4q-20 -14 -20 -47z" />
<glyph unicode="&#xbf;" horiz-adv-x="563" d="M2 147q4 109 37 191q105 268 231 434q101 134 203 203q10 7 43 26q35 19 50 9t20 -54q0 -24 -19 -43q-42 -38 -75 -63q-63 -44 -138 -141q-98 -131 -155 -242q-55 -117 -99 -240q-20 -55 -10 -129q3 -28 14 -41t33 -16q79 -7 131 22q113 60 176 138q12 14 70 92 q5 6 14.5 18.5t14.5 18.5q12 12 28 0q49 -46 13 -107q-101 -182 -267 -264q-85 -42 -147 -37q-108 6 -154 119q-5 12 -8 26.5t-3.5 22t-1.5 30t-1 27.5zM518 1409q13 79 57 137q10 13 27 10q20 -5 41.5 -39t18.5 -59q-4 -29 -21 -35q-26 -11 -74 -59q-19 -15 -32 -4 q-20 14 -17 49z" />
<glyph unicode="&#xc0;" horiz-adv-x="1204" d="M4 47q9 48 27 88q115 240 170 336q94 164 149 240q174 246 185 260q91 120 165 258q24 50 72 47q29 -2 66 31q178 154 336 217q44 15 88 18q55 1 91.5 -38.5t41.5 -100.5q1 -6 2 -19t2 -20q0 -2 -2 -20t-4 -27q-24 -162 -62 -281q-27 -96 -35 -133q-7 -26 -2 -37t27 -20 q29 -14 33 -21q17 -25 10.5 -54t-31.5 -40q-17 -8 -65 -20q-45 -15 -64 -72q-52 -156 -102 -279q-5 -14 -18.5 -47.5t-20.5 -52.5q-92 -229 -135 -358q0 -4 -2 -6q-22 -61 -54 -39q-22 13 -29.5 39t1.5 51q28 71 83 211t83 211l75 198q5 14 9 35q0 5 -11 16q-6 3 -18 3 q-23 -7 -70 -20.5t-71 -20.5q-191 -56 -324 -56q-48 0 -127 11q-7 1 -21.5 2t-21.5 2q-38 3 -55 -33q-3 -6 -47 -86q-23 -45 -72 -134t-72 -134q-7 -13 -88 -166q-2 -3 -5.5 -9t-5 -8.5t-5.5 -8t-6 -7t-7 -5t-8.5 -2t-9.5 0.5q-4 1 -8 2.5t-6.5 3.5t-6 6t-5 6t-4.5 8t-3.5 8 t-3.5 9t-4 8q-8 15 -4 49zM477 674q-13 -25 15 -39q9 -4 19.5 -6t17 -2.5t20.5 0t18 0.5q183 6 383 78q28 10 79 30t71 27q78 28 98 117q10 44 33.5 124.5t32.5 116.5q8 32 21 95t15 73q10 53 5 94q-6 54 -54 60q-32 2 -75 -15q-161 -72 -258 -159q-19 -16 -37.5 -33 t-46.5 -46.5t-35 -35.5q-59 -58 -90 -104q-30 -41 -63 -92t-55.5 -89.5t-58.5 -99.5t-55 -94zM1083 1819q-4 47 29 67q10 8 26.5 4.5t28.5 -16.5q13 -16 23 -33q26 -48 74 -96q9 -10 94 -111q6 -9 3.5 -20.5t-11.5 -14.5q-16 -4 -21 -4q-22 -1 -45 8t-37.5 19.5t-36.5 28.5 q-13 12 -106 116q-14 19 -21 52z" />
<glyph unicode="&#xc1;" horiz-adv-x="1204" d="M4 47q9 48 27 88q115 240 170 336q94 164 149 240q174 246 185 260q91 120 165 258q24 50 72 47q29 -2 66 31q178 154 336 217q44 15 88 18q55 1 91.5 -38.5t41.5 -100.5q1 -6 2 -19t2 -20q0 -2 -2 -20t-4 -27q-24 -162 -62 -281q-27 -96 -35 -133q-7 -26 -2 -37t27 -20 q29 -14 33 -21q17 -25 10.5 -54t-31.5 -40q-17 -8 -65 -20q-45 -15 -64 -72q-52 -156 -102 -279q-5 -14 -18.5 -47.5t-20.5 -52.5q-92 -229 -135 -358q0 -4 -2 -6q-22 -61 -54 -39q-22 13 -29.5 39t1.5 51q28 71 83 211t83 211l75 198q5 14 9 35q0 5 -11 16q-6 3 -18 3 q-23 -7 -70 -20.5t-71 -20.5q-191 -56 -324 -56q-48 0 -127 11q-7 1 -21.5 2t-21.5 2q-38 3 -55 -33q-3 -6 -47 -86q-23 -45 -72 -134t-72 -134q-7 -13 -88 -166q-2 -3 -5.5 -9t-5 -8.5t-5.5 -8t-6 -7t-7 -5t-8.5 -2t-9.5 0.5q-4 1 -8 2.5t-6.5 3.5t-6 6t-5 6t-4.5 8t-3.5 8 t-3.5 9t-4 8q-8 15 -4 49zM477 674q-13 -25 15 -39q9 -4 19.5 -6t17 -2.5t20.5 0t18 0.5q183 6 383 78q28 10 79 30t71 27q78 28 98 117q10 44 33.5 124.5t32.5 116.5q8 32 21 95t15 73q10 53 5 94q-6 54 -54 60q-32 2 -75 -15q-161 -72 -258 -159q-19 -16 -37.5 -33 t-46.5 -46.5t-35 -35.5q-59 -58 -90 -104q-30 -41 -63 -92t-55.5 -89.5t-58.5 -99.5t-55 -94zM1065 1630q-1 7 1 14t4.5 10.5t8.5 10t8 8.5q11 14 25 25q28 19 86 56.5t86 55.5q28 14 37 17q26 7 37 -12q10 -21 0 -48q-11 -22 -35 -36q-14 -8 -63.5 -38t-83 -46t-68.5 -25 q-37 -11 -43 8z" />
<glyph unicode="&#xc2;" horiz-adv-x="1204" d="M4 47q9 48 27 88q115 240 170 336q94 164 149 240q174 246 185 260q91 120 165 258q24 50 72 47q29 -2 66 31q178 154 336 217q44 15 88 18q55 1 91.5 -38.5t41.5 -100.5q1 -6 2 -19t2 -20q0 -2 -2 -20t-4 -27q-24 -162 -62 -281q-27 -96 -35 -133q-7 -26 -2 -37t27 -20 q29 -14 33 -21q17 -25 10.5 -54t-31.5 -40q-17 -8 -65 -20q-45 -15 -64 -72q-52 -156 -102 -279q-5 -14 -18.5 -47.5t-20.5 -52.5q-92 -229 -135 -358q0 -4 -2 -6q-22 -61 -54 -39q-22 13 -29.5 39t1.5 51q28 71 83 211t83 211l75 198q5 14 9 35q0 5 -11 16q-6 3 -18 3 q-23 -7 -70 -20.5t-71 -20.5q-191 -56 -324 -56q-48 0 -127 11q-7 1 -21.5 2t-21.5 2q-38 3 -55 -33q-3 -6 -47 -86q-23 -45 -72 -134t-72 -134q-7 -13 -88 -166q-2 -3 -5.5 -9t-5 -8.5t-5.5 -8t-6 -7t-7 -5t-8.5 -2t-9.5 0.5q-4 1 -8 2.5t-6.5 3.5t-6 6t-5 6t-4.5 8t-3.5 8 t-3.5 9t-4 8q-8 15 -4 49zM477 674q-13 -25 15 -39q9 -4 19.5 -6t17 -2.5t20.5 0t18 0.5q183 6 383 78q28 10 79 30t71 27q78 28 98 117q10 44 33.5 124.5t32.5 116.5q8 32 21 95t15 73q10 53 5 94q-6 54 -54 60q-32 2 -75 -15q-161 -72 -258 -159q-19 -16 -37.5 -33 t-46.5 -46.5t-35 -35.5q-59 -58 -90 -104q-30 -41 -63 -92t-55.5 -89.5t-58.5 -99.5t-55 -94zM885 1550q16 49 41 74q34 35 73 79.5t64 76t69 87t64 79.5q31 36 39 43q49 52 92 26q22 -14 39 -41q28 -39 66 -151q13 -36 33 -105.5t26 -89.5q13 -56 12 -76q0 -18 -16 -34 q-18 -12 -31 -5q-39 21 -67 103q-12 33 -34.5 98t-33.5 98q-3 6 -10.5 25.5t-12.5 28.5q-14 23 -26.5 22t-34.5 -26q-26 -30 -37 -45q-21 -30 -46 -62.5t-56.5 -71.5t-48.5 -61q-23 -29 -101 -98q-9 -9 -18 -15q-29 -17 -39 -4q-10 10 -6 45z" />
<glyph unicode="&#xc3;" horiz-adv-x="1204" d="M4 47q9 48 27 88q115 240 170 336q94 164 149 240q174 246 185 260q91 120 165 258q24 50 72 47q29 -2 66 31q178 154 336 217q44 15 88 18q55 1 91.5 -38.5t41.5 -100.5q1 -6 2 -19t2 -20q0 -2 -2 -20t-4 -27q-24 -162 -62 -281q-27 -96 -35 -133q-7 -26 -2 -37t27 -20 q29 -14 33 -21q17 -25 10.5 -54t-31.5 -40q-17 -8 -65 -20q-45 -15 -64 -72q-52 -156 -102 -279q-5 -14 -18.5 -47.5t-20.5 -52.5q-92 -229 -135 -358q0 -4 -2 -6q-22 -61 -54 -39q-22 13 -29.5 39t1.5 51q28 71 83 211t83 211l75 198q5 14 9 35q0 5 -11 16q-6 3 -18 3 q-23 -7 -70 -20.5t-71 -20.5q-191 -56 -324 -56q-48 0 -127 11q-7 1 -21.5 2t-21.5 2q-38 3 -55 -33q-3 -6 -47 -86q-23 -45 -72 -134t-72 -134q-7 -13 -88 -166q-2 -3 -5.5 -9t-5 -8.5t-5.5 -8t-6 -7t-7 -5t-8.5 -2t-9.5 0.5q-4 1 -8 2.5t-6.5 3.5t-6 6t-5 6t-4.5 8t-3.5 8 t-3.5 9t-4 8q-8 15 -4 49zM477 674q-13 -25 15 -39q9 -4 19.5 -6t17 -2.5t20.5 0t18 0.5q183 6 383 78q28 10 79 30t71 27q78 28 98 117q10 44 33.5 124.5t32.5 116.5q8 32 21 95t15 73q10 53 5 94q-6 54 -54 60q-32 2 -75 -15q-161 -72 -258 -159q-19 -16 -37.5 -33 t-46.5 -46.5t-35 -35.5q-59 -58 -90 -104q-30 -41 -63 -92t-55.5 -89.5t-58.5 -99.5t-55 -94zM695 1724q0 7 0.5 15t0.5 12q8 71 56 139q46 70 73 103q47 53 93 61q156 27 237 -98q14 -23 41.5 -68t42.5 -67q33 -56 49 -78q102 -142 268 -105q79 16 164 97q18 15 29 28 q15 15 37 9q6 -2 10.5 -9.5t1.5 -13.5q-4 -18 -8 -25q-46 -79 -88 -112q-64 -49 -111 -70q-58 -23 -88 -16q-139 3 -227 88q-48 46 -100 137q-39 70 -72 121q-47 73 -119 79t-127 -57q-46 -53 -94 -151q-14 -29 -27 -49q-8 -16 -22 -11q-19 6 -19 29q-1 5 -1 12z" />
<glyph unicode="&#xc4;" horiz-adv-x="1204" d="M4 47q9 48 27 88q115 240 170 336q94 164 149 240q174 246 185 260q91 120 165 258q24 50 72 47q29 -2 66 31q178 154 336 217q44 15 88 18q55 1 91.5 -38.5t41.5 -100.5q1 -6 2 -19t2 -20q0 -2 -2 -20t-4 -27q-24 -162 -62 -281q-27 -96 -35 -133q-7 -26 -2 -37t27 -20 q29 -14 33 -21q17 -25 10.5 -54t-31.5 -40q-17 -8 -65 -20q-45 -15 -64 -72q-52 -156 -102 -279q-5 -14 -18.5 -47.5t-20.5 -52.5q-92 -229 -135 -358q0 -4 -2 -6q-22 -61 -54 -39q-22 13 -29.5 39t1.5 51q28 71 83 211t83 211l75 198q5 14 9 35q0 5 -11 16q-6 3 -18 3 q-23 -7 -70 -20.5t-71 -20.5q-191 -56 -324 -56q-48 0 -127 11q-7 1 -21.5 2t-21.5 2q-38 3 -55 -33q-3 -6 -47 -86q-23 -45 -72 -134t-72 -134q-7 -13 -88 -166q-2 -3 -5.5 -9t-5 -8.5t-5.5 -8t-6 -7t-7 -5t-8.5 -2t-9.5 0.5q-4 1 -8 2.5t-6.5 3.5t-6 6t-5 6t-4.5 8t-3.5 8 t-3.5 9t-4 8q-8 15 -4 49zM477 674q-13 -25 15 -39q9 -4 19.5 -6t17 -2.5t20.5 0t18 0.5q183 6 383 78q28 10 79 30t71 27q78 28 98 117q10 44 33.5 124.5t32.5 116.5q8 32 21 95t15 73q10 53 5 94q-6 54 -54 60q-32 2 -75 -15q-161 -72 -258 -159q-19 -16 -37.5 -33 t-46.5 -46.5t-35 -35.5q-59 -58 -90 -104q-30 -41 -63 -92t-55.5 -89.5t-58.5 -99.5t-55 -94zM942 1743q4 55 37 84q27 25 72 18q51 -11 59 -49q0 -4 4 -16q11 -47 -11.5 -67t-68.5 -25h-14q-37 0 -57.5 14.5t-20.5 40.5zM1399.5 1660.5q-2.5 12.5 19.5 31.5q49 46 115 43 q53 3 76 -23q20 -23 15 -42.5t-36 -29.5q-52 -19 -133 -12q-10 0 -26 8q-28 12 -30.5 24.5z" />
<glyph unicode="&#xc5;" horiz-adv-x="1204" d="M-1425 1223q-6 108 63 180q5 5 25 20q43 37 77 35q51 -3 103 -39q16 -11 20 -41q5 -37 7 -43q1 -6 6 -6.5t8 2.5q2 1 18 29q14 29 27 49q12 16 27 10t18 -26q7 -46 -6 -78q-33 -96 -104 -157t-156 -58h-27q-45 3 -74 36.5t-32 86.5zM-1341 1272q3 -37 34 -47q8 -4 25 -4 q45 0 90 30q21 15 0 33q-7 6 -21.5 19.5t-21.5 19.5q-43 30 -86 -4q-20 -14 -20 -47zM4 47q9 48 27 88q115 240 170 336q94 164 149 240q174 246 185 260q91 120 165 258q24 50 72 47q29 -2 66 31q178 154 336 217q44 15 88 18q55 1 91.5 -38.5t41.5 -100.5q1 -6 2 -19 t2 -20q0 -2 -2 -20t-4 -27q-24 -162 -62 -281q-27 -96 -35 -133q-7 -26 -2 -37t27 -20q29 -14 33 -21q17 -25 10.5 -54t-31.5 -40q-17 -8 -65 -20q-45 -15 -64 -72q-52 -156 -102 -279q-5 -14 -18.5 -47.5t-20.5 -52.5q-92 -229 -135 -358q0 -4 -2 -6q-22 -61 -54 -39 q-22 13 -29.5 39t1.5 51q28 71 83 211t83 211l75 198q5 14 9 35q0 5 -11 16q-6 3 -18 3q-23 -7 -70 -20.5t-71 -20.5q-191 -56 -324 -56q-48 0 -127 11q-7 1 -21.5 2t-21.5 2q-38 3 -55 -33q-3 -6 -47 -86q-23 -45 -72 -134t-72 -134q-7 -13 -88 -166q-2 -3 -5.5 -9t-5 -8.5 t-5.5 -8t-6 -7t-7 -5t-8.5 -2t-9.5 0.5q-4 1 -8 2.5t-6.5 3.5t-6 6t-5 6t-4.5 8t-3.5 8t-3.5 9t-4 8q-8 15 -4 49zM477 674q-13 -25 15 -39q9 -4 19.5 -6t17 -2.5t20.5 0t18 0.5q183 6 383 78q28 10 79 30t71 27q78 28 98 117q10 44 33.5 124.5t32.5 116.5q8 32 21 95t15 73 q10 53 5 94q-6 54 -54 60q-32 2 -75 -15q-161 -72 -258 -159q-19 -16 -37.5 -33t-46.5 -46.5t-35 -35.5q-59 -58 -90 -104q-30 -41 -63 -92t-55.5 -89.5t-58.5 -99.5t-55 -94z" />
<glyph unicode="&#xc6;" horiz-adv-x="2265" d="M4 47q9 48 27 88q115 240 170 336q94 164 149 240q174 246 185 260q91 120 165 258q24 50 72 47q29 -2 66 31q178 154 336 217q44 15 88 18q55 1 91.5 -38.5t41.5 -100.5l4 -39q0 -2 -2 -20t-4 -27q-24 -162 -62 -281l-8 -22q89 120 127 223q31 86 104 41q27 -15 52 2 q100 65 295 137q21 7 90 21q7 1 49 8.5t65 9.5q103 8 207 -63q39 -23 35 -95q0 -48 -31 -84q-120 -123 -286 -178h-5l-10 6q1 1 2 3q0 1 0.5 1.5t1.5 0.5q19 22 49 45q31 27 31 43q0 13 5 24t8.5 15t17 13.5t14.5 10.5q22 22 68 62l22 26q8 12 4.5 26.5t-16.5 18.5 q-18 6 -59 10h-31q-60 0 -115 -14q-166 -42 -282 -108q-220 -119 -338 -308l-47 -82l4 -4q14 -22 11.5 -47.5t-19.5 -38.5q52 0 98 6q19 3 80 14.5t94 16.5q88 14 115 15q3 1 36 -5q31 -9 40.5 -44t-9.5 -64q-19 -32 -45 -49q-76 -44 -176 -105q-4 0 -8 -4q-19 -5 -18 7 q0 3 18 42q9 20 6 29q-12 27 -35 27h-57q-38 -9 -108 -15.5t-91 -9.5q-20 -4 -31 -4q-23 0 -34 -23q-53 -109 -74 -172q-8 -24 -31.5 -86.5t-28.5 -76.5q0 -1 -4 -17t-6 -20q-6 -12 -2.5 -24t15.5 -15h24q16 2 54 5t67 6.5t55 8.5q148 33 406 131q40 17 69 25q25 6 39 -27 q9 -23 -10 -45q-35 -37 -98 -59q-41 -17 -60 -29q-23 -15 -49.5 -25t-58.5 -19.5t-49 -16.5q-130 -51 -291 -84q-55 -13 -133 -6q-50 3 -70 36q-32 -86 -57 -161q0 -4 -2 -6q-22 -61 -54 -39q-22 13 -29.5 39t1.5 51q36 93 139 350l-6 12q-6 10 -2 35q38 144 65 197 q3 7 17 35t20 45h-12l-141 -41q-191 -56 -324 -56q-48 0 -127 11l-43 4q-38 3 -55 -33q-3 -6 -47 -86l-144 -268q-7 -13 -88 -166q-2 -3 -5.5 -9t-5 -8.5t-5.5 -8t-6 -7t-7 -5t-8.5 -2t-9.5 0.5q-4 1 -8 2.5t-6.5 3.5t-6 6t-5 6t-4.5 8t-3.5 8t-3.5 9t-4 8q-8 15 -4 49z M477 674q-13 -25 15 -39q9 -4 19.5 -6t17 -2.5t20.5 0t18 0.5q183 6 383 78q28 10 79 30t71 27q78 28 98 117q10 44 33.5 124.5t32.5 116.5q8 32 21 95t15 73q10 53 5 94q-6 54 -54 60q-32 2 -75 -15q-161 -72 -258 -159q-19 -16 -37.5 -33t-46.5 -46.5t-35 -35.5 q-59 -58 -90 -104q-30 -41 -63 -92t-55.5 -89.5t-58.5 -99.5t-55 -94z" />
<glyph unicode="&#xc7;" horiz-adv-x="765" d="M-2 459q3 236 139 489q78 146 170 238q186 186 438 256q69 16 132 2q93 -16 90 -125q0 -120 -62 -170q-25 -19 -31 16q-4 41 -16 123q0 19 -16 19q-41 6 -88 -4q-223 -50 -402 -226q-216 -213 -243 -549q-10 -106 10 -194q44 -186 190 -205q75 -11 125 4q19 5 64 17 t70 19t61 21.5t65 30.5q8 4 17 6.5t15.5 3.5t17.5 0t15.5 -1.5t17.5 -3.5t16 -3q7 -1 10 -12.5t-2 -17.5l-25 -25q-240 -199 -463 -188q-61 3 -127 43q-30 19 -47 38q-1 1 -19 23t-21.5 26.5t-18.5 25t-20 29t-16 27t-15.5 31.5t-10 31t-8.5 35q-14 100 -12 170zM211 -119 q22 89 51 144q7 14 25 32q6 7 13.5 6.5t12.5 -6.5q9 -18 6 -43q-9 -27 -12 -51q-4 -26 1.5 -36t27.5 -15q24 -4 41 -4q32 -4 100 -8q40 -2 117 -27q61 -21 100 -78q34 -56 19.5 -128.5t-68.5 -141.5q-23 -33 -61 -43q-193 -69 -303 -45q-30 8 -43 16q-11 7 -17 23 q-9 13 2 24t21 11q67 8 110 10q99 6 203 47q92 35 68 123q-12 40 -43 59q-75 47 -181 47h-24q-45 0 -68 -2q-37 0 -71 17q-36 17 -27 69z" />
<glyph unicode="&#xc8;" horiz-adv-x="1013" d="M-20 100q6 32 8 35q24 54 0 94q-6 10 -2 35q32 136 61 197q49 100 55 160q0 18 17 28q18 7 43 49q47 83 153 226q95 131 129 233q15 41 42.5 52t62.5 -11q26 -15 51 2q98 65 293 137q20 7 88 21q5 1 48.5 8.5t66.5 9.5q100 8 209 -63q36 -21 36 -94q0 -49 -30 -84 q-119 -125 -283 -179h-4q-2 1 -5 3.5t-5 3.5l4 4q14 17 47 45q31 27 31 43q0 13 5 23.5t9.5 15.5t15 13t13.5 11q29 29 67 62q11 11 23 26q8 12 3 26.5t-18 18.5q-22 7 -59 11h-31q-56 0 -114 -15q-167 -44 -281 -108q-217 -119 -332 -308q-43 -75 -65 -131 q-9 -23 -5.5 -32.5t23.5 -8.5q42 0 96 7q9 2 75 13.5t100 16.5q89 14 114 15q7 1 37 -4q31 -9 41.5 -44.5t-8.5 -64.5q-19 -32 -45 -49q-88 -53 -174 -105q-4 0 -8 -4q-18 -5 -17 7q0 3 17 42q9 20 6 29q-12 27 -35 27h-57q-38 -9 -108 -15.5t-91 -9.5q-20 -4 -31 -4 q-24 0 -35 -22q-45 -91 -71 -172q-1 -4 -56 -164q0 -1 -4 -17t-6 -20q-6 -12 -2 -24t16 -15h25q16 2 54 5t66 6.5t54 8.5q152 34 404 131q40 17 69 25q25 6 39 -27q9 -25 -8 -45q-35 -37 -98 -59q-41 -17 -60 -29q-22 -15 -48 -25t-58 -19.5t-49 -16.5q-132 -52 -289 -84 q-55 -13 -133 -6q-52 4 -77.5 47t-14.5 106zM696 1612q-4 47 29 67q10 8 26.5 4.5t28.5 -16.5q13 -16 23 -33q26 -48 74 -96q9 -10 94 -111q6 -9 3.5 -20t-11.5 -14q-16 -4 -21 -4q-50 -2 -119 55q-17 16 -34 35t-39 44.5t-33 37.5q-14 20 -21 51z" />
<glyph unicode="&#xc9;" horiz-adv-x="1013" d="M-20 100q6 32 8 35q24 54 0 94q-6 10 -2 35q32 136 61 197q49 100 55 160q0 18 17 28q18 7 43 49q47 83 153 226q95 131 129 233q15 41 42.5 52t62.5 -11q26 -15 51 2q98 65 293 137q20 7 88 21q5 1 48.5 8.5t66.5 9.5q100 8 209 -63q36 -21 36 -94q0 -49 -30 -84 q-119 -125 -283 -179h-4q-2 1 -5 3.5t-5 3.5l4 4q14 17 47 45q31 27 31 43q0 13 5 23.5t9.5 15.5t15 13t13.5 11q29 29 67 62q11 11 23 26q8 12 3 26.5t-18 18.5q-22 7 -59 11h-31q-56 0 -114 -15q-167 -44 -281 -108q-217 -119 -332 -308q-43 -75 -65 -131 q-9 -23 -5.5 -32.5t23.5 -8.5q42 0 96 7q9 2 75 13.5t100 16.5q89 14 114 15q7 1 37 -4q31 -9 41.5 -44.5t-8.5 -64.5q-19 -32 -45 -49q-88 -53 -174 -105q-4 0 -8 -4q-18 -5 -17 7q0 3 17 42q9 20 6 29q-12 27 -35 27h-57q-38 -9 -108 -15.5t-91 -9.5q-20 -4 -31 -4 q-24 0 -35 -22q-45 -91 -71 -172q-1 -4 -56 -164q0 -1 -4 -17t-6 -20q-6 -12 -2 -24t16 -15h25q16 2 54 5t66 6.5t54 8.5q152 34 404 131q40 17 69 25q25 6 39 -27q9 -25 -8 -45q-35 -37 -98 -59q-41 -17 -60 -29q-22 -15 -48 -25t-58 -19.5t-49 -16.5q-132 -52 -289 -84 q-55 -13 -133 -6q-52 4 -77.5 47t-14.5 106zM768 1444q-1 7 1 13.5t5 10.5t9 10.5t8 8.5q10 14 24 24q28 18 85.5 56t86.5 57q22 11 37 16q26 7 37 -12q10 -20 0 -47q-12 -24 -35 -37l-51 -30t-55 -32t-51.5 -25.5t-57.5 -20.5q-37 -11 -43 8z" />
<glyph unicode="&#xca;" horiz-adv-x="1013" d="M-20 100q6 32 8 35q24 54 0 94q-6 10 -2 35q32 136 61 197q49 100 55 160q0 18 17 28q18 7 43 49q47 83 153 226q95 131 129 233q15 41 42.5 52t62.5 -11q26 -15 51 2q98 65 293 137q20 7 88 21q5 1 48.5 8.5t66.5 9.5q100 8 209 -63q36 -21 36 -94q0 -49 -30 -84 q-119 -125 -283 -179h-4q-2 1 -5 3.5t-5 3.5l4 4q14 17 47 45q31 27 31 43q0 13 5 23.5t9.5 15.5t15 13t13.5 11q29 29 67 62q11 11 23 26q8 12 3 26.5t-18 18.5q-22 7 -59 11h-31q-56 0 -114 -15q-167 -44 -281 -108q-217 -119 -332 -308q-43 -75 -65 -131 q-9 -23 -5.5 -32.5t23.5 -8.5q42 0 96 7q9 2 75 13.5t100 16.5q89 14 114 15q7 1 37 -4q31 -9 41.5 -44.5t-8.5 -64.5q-19 -32 -45 -49q-88 -53 -174 -105q-4 0 -8 -4q-18 -5 -17 7q0 3 17 42q9 20 6 29q-12 27 -35 27h-57q-38 -9 -108 -15.5t-91 -9.5q-20 -4 -31 -4 q-24 0 -35 -22q-45 -91 -71 -172q-1 -4 -56 -164q0 -1 -4 -17t-6 -20q-6 -12 -2 -24t16 -15h25q16 2 54 5t66 6.5t54 8.5q152 34 404 131q40 17 69 25q25 6 39 -27q9 -25 -8 -45q-35 -37 -98 -59q-41 -17 -60 -29q-22 -15 -48 -25t-58 -19.5t-49 -16.5q-132 -52 -289 -84 q-55 -13 -133 -6q-52 4 -77.5 47t-14.5 106zM641 1395q15 47 41 73q34 35 73 79.5t64 76t69 87t64 79.5q31 36 39 43q49 52 92 27q22 -14 39 -41q6 -9 12 -18.5t12 -22t9 -19.5t9.5 -24t8 -21t8.5 -25t7 -22q13 -36 33 -105.5t26 -88.5q14 -59 13 -76q0 -18 -17 -35 q-17 -11 -31 -4q-39 21 -67 102q-12 33 -34 98.5t-34 98.5q-3 7 -10.5 25.5t-11.5 27.5q-14 23 -27 22t-35 -26q-26 -30 -37 -45q-21 -30 -46 -62.5t-56.5 -71.5t-48.5 -61q-25 -32 -100 -98q-4 -4 -19 -14q-29 -17 -39 -4q-10 10 -6 45z" />
<glyph unicode="&#xcb;" horiz-adv-x="1013" d="M-20 100q6 32 8 35q24 54 0 94q-6 10 -2 35q32 136 61 197q49 100 55 160q0 18 17 28q18 7 43 49q47 83 153 226q95 131 129 233q15 41 42.5 52t62.5 -11q26 -15 51 2q98 65 293 137q20 7 88 21q5 1 48.5 8.5t66.5 9.5q100 8 209 -63q36 -21 36 -94q0 -49 -30 -84 q-119 -125 -283 -179h-4q-2 1 -5 3.5t-5 3.5l4 4q14 17 47 45q31 27 31 43q0 13 5 23.5t9.5 15.5t15 13t13.5 11q29 29 67 62q11 11 23 26q8 12 3 26.5t-18 18.5q-22 7 -59 11h-31q-56 0 -114 -15q-167 -44 -281 -108q-217 -119 -332 -308q-43 -75 -65 -131 q-9 -23 -5.5 -32.5t23.5 -8.5q42 0 96 7q9 2 75 13.5t100 16.5q89 14 114 15q7 1 37 -4q31 -9 41.5 -44.5t-8.5 -64.5q-19 -32 -45 -49q-88 -53 -174 -105q-4 0 -8 -4q-18 -5 -17 7q0 3 17 42q9 20 6 29q-12 27 -35 27h-57q-38 -9 -108 -15.5t-91 -9.5q-20 -4 -31 -4 q-24 0 -35 -22q-45 -91 -71 -172q-1 -4 -56 -164q0 -1 -4 -17t-6 -20q-6 -12 -2 -24t16 -15h25q16 2 54 5t66 6.5t54 8.5q152 34 404 131q40 17 69 25q25 6 39 -27q9 -25 -8 -45q-35 -37 -98 -59q-41 -17 -60 -29q-22 -15 -48 -25t-58 -19.5t-49 -16.5q-132 -52 -289 -84 q-55 -13 -133 -6q-52 4 -77.5 47t-14.5 106zM647 1542q4 55 37 84q28 25 72 19q51 -11 59 -50q0 -4 4 -16q11 -47 -11.5 -67t-68.5 -25h-14q-37 0 -57.5 14.5t-20.5 40.5zM1104.5 1460q-2.5 12 19.5 31q49 46 115 43q53 3 76 -23q43 -49 -21 -71q-54 -20 -133 -13 q-8 0 -26 9q-28 12 -30.5 24z" />
<glyph unicode="&#xcc;" horiz-adv-x="448" d="M-61 96q1 9 12 35q25 50 45.5 81t46.5 87q78 160 211 416q24 48 73 133t66 117q35 62 97 198t69 183q3 31 40 64.5t63 31.5q77 -8 77 -119q-1 -13 -23 -32.5t-26 -26.5q-7 -10 -36 -51.5t-36 -51.5q-80 -113 -194.5 -346.5t-138.5 -277.5q-17 -31 -33 -64t-26 -53.5 t-26.5 -62.5t-21 -53.5t-25 -66.5t-24.5 -65q-18 -40 -18 -61q0 -16 -2 -30.5t-8 -29.5t-9 -23t-14.5 -24t-13.5 -19t-18 -21l-15 -19q-20 -19 -34 -17t-34 25q-43 57 -24 143zM563 1708q-2 21 6 40t23 28q10 8 26.5 4t28.5 -17q15 -19 23 -32q28 -52 73 -97q25 -27 95 -110 q6 -9 3 -20.5t-12 -14.5q-16 -4 -20 -4q-50 -2 -119 55q-17 16 -34 35t-39 44.5t-33 37.5q-14 20 -21 51z" />
<glyph unicode="&#xcd;" horiz-adv-x="448" d="M-61 96q1 9 12 35q25 50 45.5 81t46.5 87q78 160 211 416q24 48 73 133t66 117q35 62 97 198t69 183q3 31 40 64.5t63 31.5q77 -8 77 -119q-1 -13 -23 -32.5t-26 -26.5q-7 -10 -36 -51.5t-36 -51.5q-80 -113 -194.5 -346.5t-138.5 -277.5q-17 -31 -33 -64t-26 -53.5 t-26.5 -62.5t-21 -53.5t-25 -66.5t-24.5 -65q-18 -40 -18 -61q0 -16 -2 -30.5t-8 -29.5t-9 -23t-14.5 -24t-13.5 -19t-18 -21l-15 -19q-20 -19 -34 -17t-34 25q-43 57 -24 143zM580 1561q-1 7 1 14t4.5 10.5t8.5 10t8 8.5q9 12 25 24q29 18 86 56.5t86 56.5q22 11 37 16 q25 7 36 -12q10 -20 0 -47q-12 -25 -34 -37q-14 -8 -63.5 -38t-83 -46t-68.5 -25q-36 -11 -43 9z" />
<glyph unicode="&#xce;" horiz-adv-x="448" d="M-61 96q1 9 12 35q25 50 45.5 81t46.5 87q78 160 211 416q24 48 73 133t66 117q35 62 97 198t69 183q3 31 40 64.5t63 31.5q77 -8 77 -119q-1 -13 -23 -32.5t-26 -26.5q-7 -10 -36 -51.5t-36 -51.5q-80 -113 -194.5 -346.5t-138.5 -277.5q-17 -31 -33 -64t-26 -53.5 t-26.5 -62.5t-21 -53.5t-25 -66.5t-24.5 -65q-18 -40 -18 -61q0 -16 -2 -30.5t-8 -29.5t-9 -23t-14.5 -24t-13.5 -19t-18 -21l-15 -19q-20 -19 -34 -17t-34 25q-43 57 -24 143zM317 1417q16 49 41 74q35 35 74.5 80.5t61.5 72.5t72 89.5t63 78.5q31 36 39 43q49 52 92 27 q22 -14 39 -41q7 -10 14.5 -23t12 -22.5t11 -27t9 -24.5t10 -28.5t8.5 -25.5q13 -37 34 -107.5t26 -87.5q13 -56 12 -76q0 -19 -16 -35q-17 -11 -31 -4q-40 22 -68 103q-11 33 -33.5 98t-33.5 98q-3 6 -10.5 25.5t-12.5 28.5q-14 23 -26.5 22t-34.5 -26q-20 -23 -37 -46 q-28 -40 -84.5 -109.5t-67.5 -84.5q-25 -32 -100 -98q-7 -7 -19 -15q-28 -16 -38 -4q-11 11 -7 45z" />
<glyph unicode="&#xcf;" horiz-adv-x="448" d="M-61 96q1 9 12 35q25 50 45.5 81t46.5 87q78 160 211 416q24 48 73 133t66 117q35 62 97 198t69 183q3 31 40 64.5t63 31.5q77 -8 77 -119q-1 -13 -23 -32.5t-26 -26.5q-7 -10 -36 -51.5t-36 -51.5q-80 -113 -194.5 -346.5t-138.5 -277.5q-17 -31 -33 -64t-26 -53.5 t-26.5 -62.5t-21 -53.5t-25 -66.5t-24.5 -65q-18 -40 -18 -61q0 -16 -2 -30.5t-8 -29.5t-9 -23t-14.5 -24t-13.5 -19t-18 -21l-15 -19q-20 -19 -34 -17t-34 25q-43 57 -24 143zM369 1612q4 55 37 84q27 24 71 18q52 -11 60 -49q0 -4 4 -16q11 -47 -11.5 -67.5t-68.5 -25.5 h-15q-37 0 -57 15t-20 41zM826 1529.5q-2 12.5 20 31.5q49 46 115 43q52 3 75 -23q21 -23 15.5 -42.5t-35.5 -29.5q-52 -19 -133 -12q-11 0 -27 8q-28 12 -30 24.5z" />
<glyph unicode="&#xd0;" horiz-adv-x="1110" d="M-184 689q77 38 208 61q22 4 39 6q29 3 98.5 5.5t106.5 6.5l82 10l74 135l123 226q22 39 65 104q9 19 11 27q2 5 -1.5 9.5t-7.5 4.5q-79 -14 -131 -31q-226 -85 -348 -147q-26 -14 -92 -39q-31 -9 -49 18q-18 23 -6 62q15 38 37 45q55 19 165.5 72.5t171.5 72.5 q183 62 285 72q43 6 47 8q55 23 131 6q12 -4 60 -4q118 -3 248 -63q47 -19 118 -86q99 -94 74 -252q-14 -84 -78 -180q-77 -113 -153 -176q-18 -14 -51 -46.5t-50 -46.5q-188 -163 -274 -227q-13 -10 -41 -32.5t-45 -35t-42.5 -28.5t-49.5 -25q-9 -2 -21 -14 q-19 -19 -84 -55q-5 -3 -82 -48q-5 -2 -11.5 -8.5t-8.5 -7.5q-50 -23 -167 -88t-183 -92q-37 -16 -97 -23q-17 -3 -34 4q-24 7 -35.5 45t0.5 64q7 10 16 10q2 1 5 1t5 0.5t4 0.5h2q32 -6 68 2l70 25q5 2 18.5 6t22 9t12.5 14q5 17 4 23.5t-8.5 21.5t-9.5 22q-10 36 -6.5 53 t28.5 41q32 32 53 78q84 168 113 223q48 91 84 154l-213 -16q-32 -3 -101.5 -23t-103.5 -22q-23 0 -47 6q-102 20 -18 62zM139.5 133q1.5 -5 5.5 -10q4 -4 9.5 -4t9.5 2t10.5 6.5t9.5 5.5q108 56 330 199q231 148 442 344q6 6 31 30t33.5 32.5l29.5 29.5t32 34t27 32 t29 36.5t25 36.5q58 91 72 144q21 103 -51 163q-51 37 -76 46q-120 45 -229 45q-5 0 -23.5 -1t-28.5 -1q-25 0 -39 -19q-92 -105 -118 -145q-90 -137 -154 -260l-49 -88q158 15 321 18q56 0 53 -29q-3 -28 -51 -57q-42 -25 -81 -25q-56 -2 -100.5 1.5t-63.5 4t-99 -7.5 l-36 -4q-50 -88 -60 -108q-62 -115 -196 -410q-1 -2 -5 -9.5t-5.5 -11t-3.5 -9.5t-0.5 -11z" />
<glyph unicode="&#xd1;" horiz-adv-x="1292" d="M-136 -200q-2 31 13 53q75 106 98 135q52 72 136 245q38 80 108 233t103 222q37 80 74 168.5t85 208t70 172.5q50 121 90 211q21 47 41 76q28 45 72 4q27 -27 45 -86q16 -50 16 -94q7 -170 0 -281q-3 -43 2 -195q7 -284 37 -505q12 -90 43 -179q13 -35 23 -49 q12 -27 36 -12q45 29 76 86q49 93 78 195q25 83 49 202q9 51 30 144.5t28 130.5q18 100 28 170q8 52 47 178q1 4 6 9t7 3t15.5 -5.5t14.5 -14.5q1 -12 6.5 -36.5t6.5 -36.5t-2 -38q-20 -105 -39 -223q-6 -46 -29 -170q-43 -263 -90 -451q-37 -141 -111 -229q-23 -32 -73 -61 q-57 -28 -105 20q-36 36 -61 94q-51 120 -68 246q-1 13 -4 40t-4 40q-27 188 -33 377q-1 35 -4 107t-4 110q0 26 -1.5 107t-0.5 124q0 17 -2 25q-5 10 -8 10q-7 0 -11 -4q-7 -15 -28.5 -61.5t-32.5 -73.5q-234 -560 -252 -602q-40 -91 -117 -256.5t-94 -204.5 q-13 -28 -30 -59t-29.5 -52t-34 -56t-31.5 -52q-5 -8 -18 -33t-23 -41t-22 -29q-19 -23 -27 -30q-40 -37 -76 18q-17 25 -19 56zM424 1518v38q8 74 55 140q39 59 74 102q48 55 92 62q156 27 238 -99q15 -22 42.5 -67t41.5 -68q33 -56 49 -78q101 -141 268 -104q80 16 164 96 q16 13 29 29q14 14 36 8q6 -2 11 -9.5t2 -13.5q-4 -16 -8 -24q-47 -81 -88 -113q-61 -47 -111 -69q-60 -23 -88 -17q-139 3 -227 88q-50 48 -101 137q-39 70 -72 121q-47 73 -118.5 79.5t-126.5 -56.5q-45 -52 -94 -152q-14 -29 -27 -49q-8 -16 -23 -10q-18 6 -18 29z" />
<glyph unicode="&#xd2;" horiz-adv-x="948" d="M-2 127q-20 125 16 262q70 280 250 553q100 156 234 299q52 55 113 96t149 90q94 54 145 64q8 2 25.5 5t25.5 5q54 3 86 -53q25 -43 35 -105q6 -41 -12 -75q-16 -31 -16 -68q6 -220 -68 -438q-51 -150 -139 -293q-79 -120 -168 -217q-52 -60 -191 -176 q-104 -83 -243 -127q-83 -23 -162 28q-66 40 -80 150zM92 274q-10 -73 4 -135q15 -59 54 -59q51 0 86 12q119 43 176 86q207 152 317 305q201 276 215 729v50q0 64 -13 74t-65 -15q-196 -94 -358 -262q-188 -197 -311 -455q-81 -171 -105 -330zM778 1767q-2 21 6 40t23 28 q10 8 26.5 4.5t28.5 -16.5q13 -16 23 -33q27 -50 73 -96q18 -19 95 -111q6 -9 3 -20.5t-12 -14.5q-16 -4 -20 -4q-50 -2 -119 55q-17 16 -34 35t-39 44.5t-33 37.5q-14 20 -21 51z" />
<glyph unicode="&#xd3;" horiz-adv-x="948" d="M-2 127q-20 125 16 262q70 280 250 553q100 156 234 299q52 55 113 96t149 90q94 54 145 64q8 2 25.5 5t25.5 5q54 3 86 -53q25 -43 35 -105q6 -41 -12 -75q-16 -31 -16 -68q6 -220 -68 -438q-51 -150 -139 -293q-79 -120 -168 -217q-52 -60 -191 -176 q-104 -83 -243 -127q-83 -23 -162 28q-66 40 -80 150zM92 274q-10 -73 4 -135q15 -59 54 -59q51 0 86 12q119 43 176 86q207 152 317 305q201 276 215 729v50q0 64 -13 74t-65 -15q-196 -94 -358 -262q-188 -197 -311 -455q-81 -171 -105 -330zM805 1587q-1 7 1 14t4.5 10.5 t8.5 10t8 8.5q11 14 25 25q28 19 86 56.5t86 55.5q28 14 37 17q26 7 37 -12q10 -21 0 -48q-11 -22 -35 -36q-14 -8 -63.5 -38t-83 -46t-68.5 -25q-37 -11 -43 8z" />
<glyph unicode="&#xd4;" horiz-adv-x="948" d="M-2 127q-20 125 16 262q70 280 250 553q100 156 234 299q52 55 113 96t149 90q94 54 145 64q8 2 25.5 5t25.5 5q54 3 86 -53q25 -43 35 -105q6 -41 -12 -75q-16 -31 -16 -68q6 -220 -68 -438q-51 -150 -139 -293q-79 -120 -168 -217q-52 -60 -191 -176 q-104 -83 -243 -127q-83 -23 -162 28q-66 40 -80 150zM92 274q-10 -73 4 -135q15 -59 54 -59q51 0 86 12q119 43 176 86q207 152 317 305q201 276 215 729v50q0 64 -13 74t-65 -15q-196 -94 -358 -262q-188 -197 -311 -455q-81 -171 -105 -330zM565 1503q16 49 41 74 q35 35 74.5 80.5t61.5 72.5t72 89.5t63 78.5q4 4 11.5 14t14 17.5t12.5 12.5q49 52 93 26q22 -14 39 -41q7 -10 14.5 -23t12 -22.5t11 -27t9 -24.5t10 -28.5t8.5 -25.5q13 -36 33 -105.5t26 -89.5q14 -59 13 -76q0 -18 -17 -35q-16 -11 -30 -4q-40 22 -68 103q-11 33 -34 98 t-34 98q-3 8 -10.5 26.5t-11.5 27.5q-14 23 -26.5 22t-34.5 -26q-20 -23 -37 -46q-28 -40 -84.5 -109.5t-67.5 -84.5q-25 -32 -100 -98q-7 -7 -19 -15q-29 -17 -39 -4q-10 10 -6 45z" />
<glyph unicode="&#xd5;" horiz-adv-x="948" d="M-2 127q-20 125 16 262q70 280 250 553q100 156 234 299q52 55 113 96t149 90q94 54 145 64q8 2 25.5 5t25.5 5q54 3 86 -53q25 -43 35 -105q6 -41 -12 -75q-16 -31 -16 -68q6 -220 -68 -438q-51 -150 -139 -293q-79 -120 -168 -217q-52 -60 -191 -176 q-104 -83 -243 -127q-83 -23 -162 28q-66 40 -80 150zM92 274q-10 -73 4 -135q15 -59 54 -59q51 0 86 12q119 43 176 86q207 152 317 305q201 276 215 729v50q0 64 -13 74t-65 -15q-196 -94 -358 -262q-188 -197 -311 -455q-81 -171 -105 -330zM414 1614v39q8 73 55 139 q39 59 74 102q48 55 92 62q156 27 237 -98q14 -23 42 -68t42 -68q25 -43 50 -77q102 -142 268 -105q80 16 164 96q13 11 28 29q14 14 37 8q6 -2 11 -9t2 -13q-4 -14 -9 -25q-47 -81 -88 -113q-62 -48 -110 -69q-60 -23 -88 -17q-139 3 -228 89q-48 46 -100 137 q-39 70 -72 121q-47 73 -119 79t-127 -57q-46 -53 -94 -151q-21 -42 -26 -50q-8 -16 -23 -10q-18 6 -18 29z" />
<glyph unicode="&#xd6;" horiz-adv-x="948" d="M-2 127q-20 125 16 262q70 280 250 553q100 156 234 299q52 55 113 96t149 90q94 54 145 64q8 2 25.5 5t25.5 5q54 3 86 -53q25 -43 35 -105q6 -41 -12 -75q-16 -31 -16 -68q6 -220 -68 -438q-51 -150 -139 -293q-79 -120 -168 -217q-52 -60 -191 -176 q-104 -83 -243 -127q-83 -23 -162 28q-66 40 -80 150zM92 274q-10 -73 4 -135q15 -59 54 -59q51 0 86 12q119 43 176 86q207 152 317 305q201 276 215 729v50q0 64 -13 74t-65 -15q-196 -94 -358 -262q-188 -197 -311 -455q-81 -171 -105 -330zM606 1655q4 55 37 84 q27 25 72 18q51 -11 59 -49q0 -4 4 -16q11 -47 -11.5 -67.5t-68.5 -25.5h-14q-37 0 -57.5 15t-20.5 41zM1063.5 1572.5q-2.5 12.5 19.5 31.5q49 46 115 43q53 3 76 -23q20 -23 15 -42.5t-36 -29.5q-52 -19 -133 -12q-10 0 -26 8q-28 12 -30.5 24.5z" />
<glyph unicode="&#xd8;" horiz-adv-x="948" d="M-2 127q-20 125 16 262q70 280 250 553q100 156 234 299q52 55 113 96t149 90q94 54 145 64l51 10h13q8 21 18 33q16 22 39 12q23 -7 29 -33q2 -8 2 -20q0 -31 -10 -51v-2q18 -33 30 -97q6 -41 -12 -75q-16 -31 -16 -68q6 -220 -68 -438q-51 -150 -139 -293 q-79 -120 -168 -217q-52 -60 -191 -176q-104 -83 -243 -127q-24 -6 -50 -6v-23q-3 -48 -43 -74q-11 -9 -22 -5t-16 18q-14 41 -5 86q0 3 1 8t1 8q-4 2 -28 16q-66 40 -80 150zM92 274q-10 -73 4 -135q15 -56 49 -59q6 16 19.5 45t15.5 33q66 136 160 309q17 34 40 72.5 t39.5 64t47 70.5t43.5 65q121 187 192 308q24 41 166 274h-2q-196 -94 -358 -262q-188 -197 -311 -455q-81 -171 -105 -330zM242 94q107 35 170 84q207 152 317 305q201 276 215 729v50v4q-172 -280 -289 -461q-24 -38 -70.5 -107t-83.5 -126t-67 -111q-132 -227 -192 -367z " />
<glyph unicode="&#xd9;" horiz-adv-x="1001" d="M-6 373q11 255 61 405q7 19 31 94t41 115q22 48 56 101t58 84t70 88q36 41 82 4q37 -29 43 -80q6 -39 -14 -68q-3 -3 -9 -9.5t-11 -11t-9 -8.5q-130 -108 -200 -319q-75 -222 -84 -455q0 -15 10 -98q8 -64 63 -76q47 -11 103 6q96 27 225 121q305 213 489 608 q74 159 170 490q2 8 6.5 25.5t6.5 25.5q1 2 4 12t5 14t7 8t12 3q19 -3 31 -35q11 -25 8 -43q-4 -109 -16 -162q-66 -290 -189 -538q-108 -217 -303 -418q-113 -113 -213 -180q-125 -87 -215 -105q-52 -8 -73 -10q-93 -10 -155 52t-77 171q-17 137 -14 189zM612 1591 q-2 21 6 40t23 28q10 8 26.5 4.5t28.5 -16.5q13 -16 23 -33q26 -48 74 -96q9 -10 94 -111q6 -9 3.5 -20.5t-11.5 -14.5q-16 -4 -21 -4q-50 -2 -119 55q-17 16 -34 35t-39 44.5t-33 37.5q-14 20 -21 51z" />
<glyph unicode="&#xda;" horiz-adv-x="1001" d="M-6 373q11 255 61 405q7 19 31 94t41 115q22 48 56 101t58 84t70 88q36 41 82 4q37 -29 43 -80q6 -39 -14 -68q-3 -3 -9 -9.5t-11 -11t-9 -8.5q-130 -108 -200 -319q-75 -222 -84 -455q0 -15 10 -98q8 -64 63 -76q47 -11 103 6q96 27 225 121q305 213 489 608 q74 159 170 490q2 8 6.5 25.5t6.5 25.5q1 2 4 12t5 14t7 8t12 3q19 -3 31 -35q11 -25 8 -43q-4 -109 -16 -162q-66 -290 -189 -538q-108 -217 -303 -418q-113 -113 -213 -180q-125 -87 -215 -105q-52 -8 -73 -10q-93 -10 -155 52t-77 171q-17 137 -14 189zM684 1456 q-1 7 1 13.5t5 10.5t9 10.5t8 8.5q12 16 24 25q29 18 86.5 55.5t85.5 56.5q28 14 37 17q25 7 37 -13q10 -20 0 -47q-12 -24 -35 -37l-51 -30t-55 -32t-51.5 -25.5t-57.5 -20.5q-37 -11 -43 8z" />
<glyph unicode="&#xdb;" horiz-adv-x="1001" d="M-6 373q11 255 61 405q7 19 31 94t41 115q22 48 56 101t58 84t70 88q36 41 82 4q37 -29 43 -80q6 -39 -14 -68q-3 -3 -9 -9.5t-11 -11t-9 -8.5q-130 -108 -200 -319q-75 -222 -84 -455q0 -15 10 -98q8 -64 63 -76q47 -11 103 6q96 27 225 121q305 213 489 608 q74 159 170 490q2 8 6.5 25.5t6.5 25.5q1 2 4 12t5 14t7 8t12 3q19 -3 31 -35q11 -25 8 -43q-4 -109 -16 -162q-66 -290 -189 -538q-108 -217 -303 -418q-113 -113 -213 -180q-125 -87 -215 -105q-52 -8 -73 -10q-93 -10 -155 52t-77 171q-17 137 -14 189zM475 1462 q16 49 41 74q34 35 73 79.5t64 76t69 87t64 79.5q31 36 39 43q49 52 93 26q20 -13 38 -41q28 -39 66 -151q13 -36 33 -105.5t26 -89.5q14 -59 13 -76q0 -17 -17 -34q-17 -11 -30 -5q-40 22 -68 103q-12 33 -34 98t-34 98q-3 8 -10.5 26.5t-11.5 27.5q-14 23 -27 22t-35 -26 q-18 -21 -36 -45q-28 -40 -85.5 -112t-66.5 -83q-25 -32 -100 -98q-7 -7 -19 -15q-29 -17 -39 -4q-10 10 -6 45z" />
<glyph unicode="&#xdc;" horiz-adv-x="1001" d="M-6 373q11 255 61 405q7 19 31 94t41 115q22 48 56 101t58 84t70 88q36 41 82 4q37 -29 43 -80q6 -39 -14 -68q-3 -3 -9 -9.5t-11 -11t-9 -8.5q-130 -108 -200 -319q-75 -222 -84 -455q0 -15 10 -98q8 -64 63 -76q47 -11 103 6q96 27 225 121q305 213 489 608 q74 159 170 490q2 8 6.5 25.5t6.5 25.5q1 2 4 12t5 14t7 8t12 3q19 -3 31 -35q11 -25 8 -43q-4 -109 -16 -162q-66 -290 -189 -538q-108 -217 -303 -418q-113 -113 -213 -180q-125 -87 -215 -105q-52 -8 -73 -10q-93 -10 -155 52t-77 171q-17 137 -14 189zM451 1626 q4 56 36 84q28 25 72 19q51 -11 59 -50q0 -1 5 -16q11 -47 -11.5 -67t-68.5 -25h-15q-77 0 -77 55zM908 1544q-2 12 20 31q49 46 114 43q53 3 76 -23q43 -49 -20 -71q-54 -20 -133 -13q-9 0 -27 9q-28 12 -30 24z" />
<glyph unicode="&#xdd;" horiz-adv-x="983" d="M-655 -1298q19 165 84 292q10 20 26 58t21 49q36 77 94 164q65 99 141 196q150 180 307 318q140 128 279 229q45 34 190 129q14 8 41.5 28t51 33.5t47.5 20.5q38 11 55 68q11 44 36.5 122t33.5 105q19 63 49.5 179t40.5 151q1 7 4 21.5t4 21.5q3 8 -2 18q-11 13 -21 -2 q-15 -17 -49 -53t-51 -57q-17 -22 -37 -43.5t-47 -48t-39 -39.5q-6 -7 -19.5 -21t-23 -25.5t-16.5 -23.5q-8 -12 -13 -14q-24 -21 -107 -101t-134 -115q-25 -19 -123 -71q-23 -11 -51 -15q-50 -9 -84 37q-35 51 -45 97q-24 105 -8 229q18 137 67 258q35 90 109 266 q17 37 54.5 103t53.5 100q3 6 17 20q23 26 47 5q9 -8 32 -35q14 -14 11 -39q-5 -38 -33 -82q-195 -263 -256 -606q-16 -95 -2 -178q6 -25 15.5 -33t29.5 -2q62 17 139 76q132 96 260 233q100 104 191 203q103 109 190 227q4 4 8 12q1 1 3.5 5t3.5 5t4 5t4.5 5t4.5 4t5 3.5 t5.5 3t5.5 2t6.5 1t7.5 -0.5q15 -3 34.5 -32t20.5 -52q2 -31 -12 -76q-5 -18 -35 -106q-22 -64 -56 -183.5t-45 -156.5q-9 -30 -26.5 -83t-24.5 -77q-16 -51 -20 -74q-6 -23 5.5 -36.5t31.5 -8.5q4 1 10 7t10 8q1 0 27.5 17.5t42.5 19.5q45 5 53 6q-3 -12 -9 -18.5t-20 -11 t-16 -5.5q-58 -22 -129 -86q-1 -1 -5 -4.5t-6 -5.5t-4 -5t-2 -6q-1 -11 -5.5 -19t-9 -11.5l-13.5 -10.5q-26 -15 -45 -69q-132 -380 -174 -490q-14 -37 -37.5 -100.5t-43.5 -116.5t-40 -98q-19 -41 -54 -128.5t-55 -131.5q-15 -36 -47.5 -100t-46.5 -95q-12 -27 -29 -58 t-29.5 -51.5t-34.5 -54.5t-32 -51q-87 -146 -182 -227q-127 -107 -236 -119q-90 -12 -143 10q-135 59 -178 240q-17 73 -8 152zM-561 -1425q9 -101 90 -142q21 -11 46.5 -13.5t44.5 -0.5t58 8q117 15 222 133q83 91 151.5 202t145.5 261q76 155 172 404q127 331 194 516 q20 50 41 127q3 8 0 14t-10 6q-34 0 -53 14q-12 4 -15 -6q-5 -10 4 -14q11 -7 10.5 -16t-12.5 -13q-2 -1 -9 -5.5t-11 -6t-11 -1t-14 6.5q-3 4 -12 0.5t-12 -12.5q-3 -15 -7.5 -18.5t-19.5 1.5q-18 7 -31 -3.5t-18 -32.5q-9 -31 -16 -37q-11 -9 -33.5 -27.5t-40.5 -32 t-35 -24.5q-20 -13 -39.5 -30t-43.5 -40.5t-36 -34.5q-14 -13 -56.5 -47t-62.5 -57q-5 -5 -29 -30.5t-38 -37.5q-34 -29 -88 -92q-111 -128 -156 -194q-9 -13 -39 -53.5t-48.5 -69.5t-33.5 -60q-20 -41 -55 -120t-43 -97q-66 -148 -51 -325zM606 1460q-1 7 1 13.5t5 10.5 t9 10.5t8 8.5q12 16 24 25q29 18 86 56t86 56q28 14 37 17q26 7 37 -12q10 -21 0 -48q-11 -22 -35 -36q-14 -8 -63.5 -38t-83 -46t-68.5 -25q-37 -11 -43 8z" />
<glyph unicode="&#xde;" horiz-adv-x="823" d="M10 -49l56 266q8 33 34 145t41 173q36 151 97 337q14 41 26.5 89t26 106t22.5 90l37 129q6 26 20 73.5t19 65.5q4 16 17 52q40 69 100 18q20 -15 20 -45q0 -19 -14 -66q-54 -136 -84 -245q150 72 303 69q54 -3 109 -28q23 -10 41 -25q1 -1 21 -19.5t24.5 -23.5 t19.5 -21.5t20.5 -26t12.5 -24.5t10 -30q12 -52 12 -109q-3 -153 -120 -313q-67 -94 -146 -152q-162 -120 -375 -164q-61 -10 -112 -2q-30 3 -49 19l-19 -80q-9 -47 -23 -133.5t-18 -106.5l-18 -80q-7 -15 -23 -20q-37 -11 -66 15t-22 67zM240 463q7 -2 10 -14l14 -78 q0 -6 5 -9.5t10 -3.5q25 -2 75 2q197 36 344 146q186 135 207 350q9 66 -8 125q-37 119 -162 131q-67 7 -108 -2q-14 -3 -54.5 -11t-60 -12.5t-50 -13.5t-54.5 -20q-40 -166 -121 -400q-5 -17 -12.5 -51t-12.5 -51z" />
<glyph unicode="&#xdf;" horiz-adv-x="927" d="M2 338q12 272 12 280q2 68 2 203q-3 116 17 260q40 291 223 457q146 137 330 109q134 -20 268 -101q90 -58 129 -166q12 -38 12 -77q6 -70 -37 -119q-55 -69 -131 -129q-32 -26 -95 -72t-75 -55q-49 -39 -79 -76q-45 -59 0 -113q68 -79 112 -123q48 -48 94 -116 q58 -90 70 -199q6 -74 -25 -141q-65 -147 -194 -240q-45 -32 -113 -39q-37 -3 -110.5 -8t-110.5 -8q-17 0 -29 6q-17 9 -25 30t-3 42q3 14 18 25t33 12q26 2 79 5t79 5q19 0 55 4q119 8 207 141q43 66 46 142t-34 131q-42 60 -98 120q-17 18 -50 52t-49 51q-30 38 -41 57 q-75 110 23 219q55 61 137 119q64 42 174 133q26 18 54 53q32 38 34.5 84.5t-26.5 83.5q-44 58 -90 78q-93 49 -189 72q-11 1 -35.5 4t-39 4t-35.5 0t-39 -6q-139 -39 -211 -164q-59 -93 -80 -151q-47 -125 -47 -336q-4 -256 -13 -418q-10 -172 11 -301q7 -45 -27 -103 q-7 -13 -22.5 -14.5t-24.5 10.5q-30 41 -35 88q-11 114 -6 195z" />
<glyph unicode="&#xe0;" horiz-adv-x="1175" d="M-39 -33q-8 105 33 223q71 203 180 361q73 111 143 201q13 18 28.5 37t37 43t31.5 36q14 16 42 49t50 58t43 45q167 163 297 242q56 32 110 43q103 22 144 -68q4 -8 8 -20q16 -20 31 -13q3 1 13 6t17 7q28 8 49.5 -8.5t24.5 -51.5q4 -31 -8 -96q-25 -97 -78 -195 q-60 -118 -131 -202q-37 -45 -49 -109q-25 -93 -33 -252q-3 -93 23 -178q37 -114 145 -88q54 12 80 14q23 7 43 -2q7 -7 10 -16q1 -1 -0.5 -6t-3.5 -7q-93 -73 -190 -79q-103 -3 -146 88q-53 100 -53 209v75h-4l1 55q1 56 -1 56q0 17 -13 21.5t-24 -7.5q-43 -43 -129 -110.5 t-113 -91.5q-63 -54 -137 -103q-32 -23 -104.5 -74t-110.5 -79q-51 -36 -160 -72q-15 -4 -45 0q-25 5 -36.5 18t-14.5 41zM57 63q-4 -30 7.5 -39.5t39.5 -0.5q32 12 105 63q105 61 219 145q94 70 141 103q34 23 73 53.5t63.5 51t71.5 61t65 55.5q38 34 26 78q-1 6 0.5 17.5 t1.5 15.5q2 16 5.5 32.5t10.5 34.5t11.5 29.5t14.5 34t14 30.5q50 106 67 185q2 12 7.5 41t7.5 39q0 64 -19 82.5t-65 -0.5q-29 -10 -37 -15q-51 -33 -74 -51q-266 -198 -498 -506q-122 -159 -211 -375q-29 -62 -47 -164zM891 1616q-4 47 29 67q10 8 26.5 4.5t28.5 -16.5 q9 -11 22 -33q26 -48 74 -96q16 -18 94 -110q6 -9 3.5 -20.5t-11.5 -14.5q-16 -4 -20 -4q-50 -2 -119 55q-17 16 -34 34.5t-40.5 45.5t-32.5 37q-13 18 -20 51z" />
<glyph unicode="&#xe1;" horiz-adv-x="1175" d="M-39 -33q-8 105 33 223q71 203 180 361q73 111 143 201q13 18 28.5 37t37 43t31.5 36q14 16 42 49t50 58t43 45q167 163 297 242q56 32 110 43q103 22 144 -68q4 -8 8 -20q16 -20 31 -13q3 1 13 6t17 7q28 8 49.5 -8.5t24.5 -51.5q4 -31 -8 -96q-25 -97 -78 -195 q-60 -118 -131 -202q-37 -45 -49 -109q-25 -93 -33 -252q-3 -93 23 -178q37 -114 145 -88q54 12 80 14q23 7 43 -2q7 -7 10 -16q1 -1 -0.5 -6t-3.5 -7q-93 -73 -190 -79q-103 -3 -146 88q-53 100 -53 209v75h-4l1 55q1 56 -1 56q0 17 -13 21.5t-24 -7.5q-43 -43 -129 -110.5 t-113 -91.5q-63 -54 -137 -103q-32 -23 -104.5 -74t-110.5 -79q-51 -36 -160 -72q-15 -4 -45 0q-25 5 -36.5 18t-14.5 41zM57 63q-4 -30 7.5 -39.5t39.5 -0.5q32 12 105 63q105 61 219 145q94 70 141 103q34 23 73 53.5t63.5 51t71.5 61t65 55.5q38 34 26 78q-1 6 0.5 17.5 t1.5 15.5q2 16 5.5 32.5t10.5 34.5t11.5 29.5t14.5 34t14 30.5q50 106 67 185q2 12 7.5 41t7.5 39q0 64 -19 82.5t-65 -0.5q-29 -10 -37 -15q-51 -33 -74 -51q-266 -198 -498 -506q-122 -159 -211 -375q-29 -62 -47 -164zM938 1425q-1 7 1 13.5t5 10.5t9 10.5t8 8.5 q12 16 24 25q29 19 86.5 57t85.5 56q22 11 37 16q26 7 37 -12q10 -20 0 -47q-12 -24 -35 -37q-14 -8 -63.5 -38t-83 -46t-68.5 -25q-37 -11 -43 8z" />
<glyph unicode="&#xe2;" horiz-adv-x="1175" d="M-39 -33q-8 105 33 223q71 203 180 361q73 111 143 201q13 18 28.5 37t37 43t31.5 36q14 16 42 49t50 58t43 45q167 163 297 242q56 32 110 43q103 22 144 -68q4 -8 8 -20q16 -20 31 -13q3 1 13 6t17 7q28 8 49.5 -8.5t24.5 -51.5q4 -31 -8 -96q-25 -97 -78 -195 q-60 -118 -131 -202q-37 -45 -49 -109q-25 -93 -33 -252q-3 -93 23 -178q37 -114 145 -88q54 12 80 14q23 7 43 -2q7 -7 10 -16q1 -1 -0.5 -6t-3.5 -7q-93 -73 -190 -79q-103 -3 -146 88q-53 100 -53 209v75h-4l1 55q1 56 -1 56q0 17 -13 21.5t-24 -7.5q-43 -43 -129 -110.5 t-113 -91.5q-63 -54 -137 -103q-32 -23 -104.5 -74t-110.5 -79q-51 -36 -160 -72q-15 -4 -45 0q-25 5 -36.5 18t-14.5 41zM57 63q-4 -30 7.5 -39.5t39.5 -0.5q32 12 105 63q105 61 219 145q94 70 141 103q34 23 73 53.5t63.5 51t71.5 61t65 55.5q38 34 26 78q-1 6 0.5 17.5 t1.5 15.5q2 16 5.5 32.5t10.5 34.5t11.5 29.5t14.5 34t14 30.5q50 106 67 185q2 12 7.5 41t7.5 39q0 64 -19 82.5t-65 -0.5q-29 -10 -37 -15q-51 -33 -74 -51q-266 -198 -498 -506q-122 -159 -211 -375q-29 -62 -47 -164zM674 1395q15 47 41 73q34 35 73 79.5t64 76t69 87 t64 79.5q31 36 39 43q49 52 92 27q22 -14 39 -41q6 -9 12 -18.5t12 -22t9 -19.5t9.5 -24t8 -21t8.5 -25t7 -22q13 -36 33 -105.5t26 -88.5q13 -56 12 -76q0 -19 -16 -35q-17 -11 -31 -4q-39 21 -67 102q-11 33 -34 98.5t-34 98.5q-2 5 -10 24.5t-13 28.5q-14 23 -26.5 22 t-34.5 -26q-26 -30 -37 -45q-21 -30 -46 -62.5t-56.5 -71.5t-48.5 -61q-23 -29 -101 -98q-6 -6 -18 -14q-29 -17 -39 -4q-10 10 -6 45z" />
<glyph unicode="&#xe3;" horiz-adv-x="1175" d="M-39 -33q-8 105 33 223q71 203 180 361q73 111 143 201q13 18 28.5 37t37 43t31.5 36q14 16 42 49t50 58t43 45q167 163 297 242q56 32 110 43q103 22 144 -68q4 -8 8 -20q16 -20 31 -13q3 1 13 6t17 7q28 8 49.5 -8.5t24.5 -51.5q4 -31 -8 -96q-25 -97 -78 -195 q-60 -118 -131 -202q-37 -45 -49 -109q-25 -93 -33 -252q-3 -93 23 -178q37 -114 145 -88q54 12 80 14q23 7 43 -2q7 -7 10 -16q1 -1 -0.5 -6t-3.5 -7q-93 -73 -190 -79q-103 -3 -146 88q-53 100 -53 209v75h-4l1 55q1 56 -1 56q0 17 -13 21.5t-24 -7.5q-43 -43 -129 -110.5 t-113 -91.5q-63 -54 -137 -103q-32 -23 -104.5 -74t-110.5 -79q-51 -36 -160 -72q-15 -4 -45 0q-25 5 -36.5 18t-14.5 41zM57 63q-4 -30 7.5 -39.5t39.5 -0.5q32 12 105 63q105 61 219 145q94 70 141 103q34 23 73 53.5t63.5 51t71.5 61t65 55.5q38 34 26 78q-1 6 0.5 17.5 t1.5 15.5q2 16 5.5 32.5t10.5 34.5t11.5 29.5t14.5 34t14 30.5q50 106 67 185q2 12 7.5 41t7.5 39q0 64 -19 82.5t-65 -0.5q-29 -10 -37 -15q-51 -33 -74 -51q-266 -198 -498 -506q-122 -159 -211 -375q-29 -62 -47 -164zM564 1513q0 7 0.5 15t0.5 12q8 71 56 139 q46 70 73 103q47 54 92 61q157 27 238 -98q14 -22 42 -67t42 -68q33 -56 49 -78q102 -142 268 -105q79 16 164 97q18 15 29 28q15 15 37 9q6 -2 10.5 -9.5t1.5 -13.5q-5 -18 -8 -25q-46 -79 -88 -112q-64 -49 -111 -70q-58 -23 -88 -16q-139 3 -227 88q-50 48 -101 137 q-46 82 -71 121q-47 73 -119 79t-127 -57q-46 -53 -94 -151q-14 -29 -27 -49q-8 -16 -22 -10q-19 6 -19 28q-1 5 -1 12z" />
<glyph unicode="&#xe4;" horiz-adv-x="1175" d="M-39 -33q-8 105 33 223q71 203 180 361q73 111 143 201q13 18 28.5 37t37 43t31.5 36q14 16 42 49t50 58t43 45q167 163 297 242q56 32 110 43q103 22 144 -68q4 -8 8 -20q16 -20 31 -13q3 1 13 6t17 7q28 8 49.5 -8.5t24.5 -51.5q4 -31 -8 -96q-25 -97 -78 -195 q-60 -118 -131 -202q-37 -45 -49 -109q-25 -93 -33 -252q-3 -93 23 -178q37 -114 145 -88q54 12 80 14q23 7 43 -2q7 -7 10 -16q1 -1 -0.5 -6t-3.5 -7q-93 -73 -190 -79q-103 -3 -146 88q-53 100 -53 209v75h-4l1 55q1 56 -1 56q0 17 -13 21.5t-24 -7.5q-43 -43 -129 -110.5 t-113 -91.5q-63 -54 -137 -103q-32 -23 -104.5 -74t-110.5 -79q-51 -36 -160 -72q-15 -4 -45 0q-25 5 -36.5 18t-14.5 41zM57 63q-4 -30 7.5 -39.5t39.5 -0.5q32 12 105 63q105 61 219 145q94 70 141 103q34 23 73 53.5t63.5 51t71.5 61t65 55.5q38 34 26 78q-1 6 0.5 17.5 t1.5 15.5q2 16 5.5 32.5t10.5 34.5t11.5 29.5t14.5 34t14 30.5q50 106 67 185q2 12 7.5 41t7.5 39q0 64 -19 82.5t-65 -0.5q-29 -10 -37 -15q-51 -33 -74 -51q-266 -198 -498 -506q-122 -159 -211 -375q-29 -62 -47 -164zM831 1522q4 55 37 84q27 25 72 18q51 -11 59 -49 q0 -1 5 -16q11 -47 -11.5 -67.5t-68.5 -25.5h-15q-37 0 -57.5 15t-20.5 41zM1289 1439q-2 12 20 31q49 46 114 43q54 3 76 -22q21 -23 15.5 -42.5t-35.5 -29.5q-52 -19 -133 -12q-11 0 -27 8q-28 12 -30 24z" />
<glyph unicode="&#xe5;" horiz-adv-x="1175" d="M-39 -33q-8 105 33 223q71 203 180 361q73 111 143 201q13 18 28.5 37t37 43t31.5 36q14 16 42 49t50 58t43 45q167 163 297 242q56 32 110 43q103 22 144 -68q4 -8 8 -20q16 -20 31 -13q3 1 13 6t17 7q28 8 49.5 -8.5t24.5 -51.5q4 -31 -8 -96q-25 -97 -78 -195 q-60 -118 -131 -202q-37 -45 -49 -109q-25 -93 -33 -252q-3 -93 23 -178q37 -114 145 -88q54 12 80 14q23 7 43 -2q7 -7 10 -16q1 -1 -0.5 -6t-3.5 -7q-93 -73 -190 -79q-103 -3 -146 88q-53 100 -53 209v75h-4l1 55q1 56 -1 56q0 17 -13 21.5t-24 -7.5q-43 -43 -129 -110.5 t-113 -91.5q-63 -54 -137 -103q-32 -23 -104.5 -74t-110.5 -79q-51 -36 -160 -72q-15 -4 -45 0q-25 5 -36.5 18t-14.5 41zM57 63q-4 -30 7.5 -39.5t39.5 -0.5q32 12 105 63q105 61 219 145q94 70 141 103q34 23 73 53.5t63.5 51t71.5 61t65 55.5q38 34 26 78q-1 6 0.5 17.5 t1.5 15.5q2 16 5.5 32.5t10.5 34.5t11.5 29.5t14.5 34t14 30.5q50 106 67 185q2 12 7.5 41t7.5 39q0 64 -19 82.5t-65 -0.5q-29 -10 -37 -15q-51 -33 -74 -51q-266 -198 -498 -506q-122 -159 -211 -375q-29 -62 -47 -164zM942 1440q-6 107 64 180q8 8 24 20q43 37 78 35 q50 -3 102 -39q17 -12 21 -41q0 -1 2 -18t4 -25q1 -6 6 -6.5t8 2.5q4 4 19 29q19 37 26 49q12 16 27 10t18 -26q7 -46 -6 -78q-33 -96 -104 -157t-156 -58h-26q-45 3 -74.5 36.5t-32.5 86.5zM1026 1489q3 -36 35 -47q8 -4 24 -4q46 0 91 30q21 15 0 33q-7 6 -21.5 19.5 t-21.5 19.5q-43 30 -86 -4q-21 -15 -21 -47z" />
<glyph unicode="&#xe6;" horiz-adv-x="1492" d="M-12 -72q-8 110 30 236q63 201 175 381q85 136 139 211q26 38 94 123q103 132 131 161q154 164 287 254q51 33 108 45q101 22 138 -71l8 -21q14 -22 30 -14l29 14q28 8 48.5 -9.5t23.5 -53.5q4 -35 -8 -101l-13 -51q113 126 232 205q76 48 129 53q64 3 106.5 -38.5 t48.5 -110.5q10 -102 -43 -219q-85 -186 -256 -340q-190 -164 -391 -252q-4 -2 -12 -7t-14 -6q-42 -20 -37 -63q0 -1 -1.5 -42t1.5 -42q9 -99 102 -111q14 -2 40 -2.5t34 -1.5q25 0 35 -4q4 -2 17.5 -6.5t20 -8t13 -11t6.5 -17.5q3 -24 -22 -31q-85 -69 -175 -75 q-99 -3 -141 92q-16 32 -24 59q-27 46 -27 90l-4 66q-35 154 -35 217q-154 -168 -367 -322q-38 -31 -109.5 -85.5t-98.5 -75.5q-51 -40 -156 -76q-14 -4 -43 0q-25 4 -35.5 18t-13.5 43zM80 31q-4 -32 7.5 -43t37.5 0q17 6 32.5 15.5t40 28t29.5 21.5q100 66 213 154 q251 205 400 342q37 37 26 82q-1 6 0.5 18.5t1.5 16.5q5 53 54 170q47 106 65 194l14 84q0 68 -18 87.5t-63 0.5q-26 -9 -35 -16q-42 -27 -72 -53q-257 -209 -483 -535q-116 -167 -205 -395q-27 -64 -45 -172zM1022 510q-5 -14 5.5 -27.5t23.5 -7.5q30 9 73 35 q182 105 306 248q100 114 147 246q20 58 18 90q0 38 -18 51t-49 -2q-4 -1 -10.5 -5t-10.5 -5q-111 -83 -188 -162q-135 -138 -244 -332q-19 -35 -53 -129z" />
<glyph unicode="&#xe7;" horiz-adv-x="684" d="M18 193q0 234 60 416.5t190 385.5q62 101 211 246q70 67 150 94q24 8 37 8q89 6 104 -94q27 -143 -33 -241q-10 -15 -12 -17q-5 -4 -12.5 -2t-10.5 8q-12 37 -12 78q-1 13 -1 40t-1 40q-4 30 -8 41q-9 27 -35 21q-25 -7 -59 -33q-72 -55 -164 -162q-8 -10 -25.5 -32 t-25.5 -32q-154 -193 -217.5 -417.5t-6.5 -427.5q26 -93 60.5 -131.5t107.5 -44.5q101 -8 158 8q8 2 26 5t27 5q31 10 54 -10q4 -3 8.5 -4.5l10.5 -3.5l9 -3q12 -6 10 -12q0 -9 -10 -14q-19 -16 -33 -21q-153 -58 -280 -45q-37 4 -119 33q-81 33 -121 133q-37 109 -37 185z M168 -262q21 87 51 143q8 16 25 33q6 7 13.5 6.5t12.5 -6.5q9 -18 6 -43q-9 -27 -12 -51q-4 -26 1.5 -36t27.5 -15q30 -5 41 -5q32 -4 100 -8q43 -2 117 -26q61 -21 100 -78q34 -56 19.5 -128.5t-68.5 -141.5q-24 -34 -61 -44q-193 -69 -303 -45q-28 7 -43 17q-11 7 -17 22 q-9 14 2 25q10 10 21 10q67 8 110 10q96 6 203 48q92 35 68 122q-12 41 -43 60q-75 47 -181 47h-24q-45 0 -68 -2q-39 0 -71 16q-37 18 -27 70z" />
<glyph unicode="&#xe8;" horiz-adv-x="657" d="M-223 233q-3 27 16 46q18 21 45 18q16 -1 32 0t34 4.5t30 6.5t33.5 9.5t30.5 8.5q27 6 41.5 21.5t21.5 45.5q55 220 181 402q122 181 272 286q61 42 107 47q52 3 87 -33t40 -98q8 -89 -35 -190q-71 -164 -211 -297q-151 -141 -320 -221q-18 -9 -22 -10q-34 -17 -31 -56 v-73q9 -88 84 -97q11 -2 32.5 -2.5t28.5 -1.5q21 0 29 -4q3 -1 14.5 -5.5t16.5 -7t10.5 -9t5.5 -15.5q1 -8 -1.5 -14t-9 -9t-10 -4.5t-13 -3.5t-11.5 -2q-9 -2 -28 -8t-30.5 -8.5t-19.5 -1.5q-93 6 -147 57q-46 43 -49 113q-1 9 -2 28.5t-2 28.5q-6 35 -35 29 q-74 -18 -125 -18q-47 0 -62 6q-26 11 -28 32zM172 446q-5 -12 4 -23t19 -7q33 12 61 30q147 89 250 218q83 99 121 215q16 50 14 77q0 34 -14.5 45t-40.5 -2q-3 -1 -8.5 -4t-8.5 -4q-91 -74 -153 -141q-113 -122 -201 -291q-20 -40 -43 -113zM502 1491q-2 21 5.5 40 t22.5 28q10 8 27 4t29 -17q9 -11 22 -33q26 -48 74 -96q17 -17 94 -110q6 -9 3.5 -20.5t-11.5 -14.5q-16 -4 -20 -4q-50 -2 -119 55q-17 16 -34 34.5t-40.5 45.5t-32.5 37q-13 18 -20 51z" />
<glyph unicode="&#xe9;" horiz-adv-x="657" d="M-223 233q-3 27 16 46q18 21 45 18q16 -1 32 0t34 4.5t30 6.5t33.5 9.5t30.5 8.5q27 6 41.5 21.5t21.5 45.5q55 220 181 402q122 181 272 286q61 42 107 47q52 3 87 -33t40 -98q8 -89 -35 -190q-71 -164 -211 -297q-151 -141 -320 -221q-18 -9 -22 -10q-34 -17 -31 -56 v-73q9 -88 84 -97q11 -2 32.5 -2.5t28.5 -1.5q21 0 29 -4q3 -1 14.5 -5.5t16.5 -7t10.5 -9t5.5 -15.5q1 -8 -1.5 -14t-9 -9t-10 -4.5t-13 -3.5t-11.5 -2q-9 -2 -28 -8t-30.5 -8.5t-19.5 -1.5q-93 6 -147 57q-46 43 -49 113q-1 9 -2 28.5t-2 28.5q-6 35 -35 29 q-74 -18 -125 -18q-47 0 -62 6q-26 11 -28 32zM172 446q-5 -12 4 -23t19 -7q33 12 61 30q147 89 250 218q83 99 121 215q16 50 14 77q0 34 -14.5 45t-40.5 -2q-3 -1 -8.5 -4t-8.5 -4q-91 -74 -153 -141q-113 -122 -201 -291q-20 -40 -43 -113zM432 1243q-1 7 1 13.5t5 10.5 t9 10.5t8 8.5q12 16 24 25q29 19 86.5 56.5t85.5 55.5q28 14 37 17q25 7 37 -13q10 -20 0 -47q-12 -24 -35 -37l-51 -30t-55 -32t-51.5 -25.5t-57.5 -20.5q-37 -11 -43 8z" />
<glyph unicode="&#xea;" horiz-adv-x="657" d="M-223 233q-3 27 16 46q18 21 45 18q16 -1 32 0t34 4.5t30 6.5t33.5 9.5t30.5 8.5q27 6 41.5 21.5t21.5 45.5q55 220 181 402q122 181 272 286q61 42 107 47q52 3 87 -33t40 -98q8 -89 -35 -190q-71 -164 -211 -297q-151 -141 -320 -221q-18 -9 -22 -10q-34 -17 -31 -56 v-73q9 -88 84 -97q11 -2 32.5 -2.5t28.5 -1.5q21 0 29 -4q3 -1 14.5 -5.5t16.5 -7t10.5 -9t5.5 -15.5q1 -8 -1.5 -14t-9 -9t-10 -4.5t-13 -3.5t-11.5 -2q-9 -2 -28 -8t-30.5 -8.5t-19.5 -1.5q-93 6 -147 57q-46 43 -49 113q-1 9 -2 28.5t-2 28.5q-6 35 -35 29 q-74 -18 -125 -18q-47 0 -62 6q-26 11 -28 32zM172 446q-5 -12 4 -23t19 -7q33 12 61 30q147 89 250 218q83 99 121 215q16 50 14 77q0 34 -14.5 45t-40.5 -2q-3 -1 -8.5 -4t-8.5 -4q-91 -74 -153 -141q-113 -122 -201 -291q-20 -40 -43 -113zM270 1180q15 47 41 73 q34 35 73.5 80t63.5 74.5t70.5 88t63.5 79.5q31 36 39 43q49 52 92 27q22 -14 39 -41q7 -10 14.5 -23t12 -23t11 -27t9.5 -25t9.5 -28t8.5 -26q13 -37 34 -107.5t26 -87.5q13 -56 12 -75q0 -18 -17 -35q-16 -11 -30 -4q-41 22 -68 102q-11 33 -33 98.5t-34 98.5 q-2 5 -10 24.5t-13 28.5q-14 23 -26.5 22t-34.5 -26q-26 -30 -37 -45q-28 -40 -85.5 -112t-66.5 -83q-25 -32 -100 -98q-4 -4 -19 -14q-29 -17 -39 -4q-10 10 -6 45z" />
<glyph unicode="&#xeb;" horiz-adv-x="657" d="M-223 233q-3 27 16 46q18 21 45 18q16 -1 32 0t34 4.5t30 6.5t33.5 9.5t30.5 8.5q27 6 41.5 21.5t21.5 45.5q55 220 181 402q122 181 272 286q61 42 107 47q52 3 87 -33t40 -98q8 -89 -35 -190q-71 -164 -211 -297q-151 -141 -320 -221q-18 -9 -22 -10q-34 -17 -31 -56 v-73q9 -88 84 -97q11 -2 32.5 -2.5t28.5 -1.5q21 0 29 -4q3 -1 14.5 -5.5t16.5 -7t10.5 -9t5.5 -15.5q1 -8 -1.5 -14t-9 -9t-10 -4.5t-13 -3.5t-11.5 -2q-9 -2 -28 -8t-30.5 -8.5t-19.5 -1.5q-93 6 -147 57q-46 43 -49 113q-1 9 -2 28.5t-2 28.5q-6 35 -35 29 q-74 -18 -125 -18q-47 0 -62 6q-26 11 -28 32zM172 446q-5 -12 4 -23t19 -7q33 12 61 30q147 89 250 218q83 99 121 215q16 50 14 77q0 34 -14.5 45t-40.5 -2q-3 -1 -8.5 -4t-8.5 -4q-91 -74 -153 -141q-113 -122 -201 -291q-20 -40 -43 -113zM295 1313q4 55 37 84 q27 24 71 18q52 -11 60 -49q0 -4 4 -16q11 -47 -11.5 -67.5t-68.5 -25.5h-14q-37 0 -57.5 15t-20.5 41zM752 1230.5q-2 12.5 20 31.5q49 46 115 43q53 3 76 -23q20 -23 15 -42.5t-36 -29.5q-52 -19 -133 -12q-11 0 -27 8q-28 12 -30 24.5z" />
<glyph unicode="&#xec;" horiz-adv-x="315" d="M-18 14q0 15 8 35q64 190 108 291q62 153 123 309q6 17 17.5 53t17.5 54q6 19 14 32q10 19 30.5 21.5t33.5 -12.5q22 -25 22 -70q-6 -32 -8 -37q-10 -52 -39 -115q-64 -135 -176 -430q-30 -76 -39 -129q-9 -40 -39 -61q-28 -14 -47 0q-29 25 -26 59zM225 1243q-2 21 6 40 t23 28q10 8 26.5 4t28.5 -17q15 -19 23 -32q27 -50 74 -97q17 -17 94 -110q6 -9 3.5 -20.5t-11.5 -14.5q-16 -4 -21 -4q-50 -2 -119 55q-17 16 -34 35t-39 44.5t-33 37.5q-14 20 -21 51z" />
<glyph unicode="&#xed;" horiz-adv-x="315" d="M-18 14q0 15 8 35q64 190 108 291q62 153 123 309q6 17 17.5 53t17.5 54q6 19 14 32q10 19 30.5 21.5t33.5 -12.5q22 -25 22 -70q-6 -32 -8 -37q-10 -52 -39 -115q-64 -135 -176 -430q-30 -76 -39 -129q-9 -40 -39 -61q-28 -14 -47 0q-29 25 -26 59zM203 1065q-1 7 1 14 t4.5 10.5t8.5 10t8 8.5q11 14 25 25q28 19 85.5 56t86.5 56q28 14 37 17q25 7 37 -13q10 -20 0 -47q-12 -24 -35 -37l-51 -30t-55 -32t-51.5 -25.5t-57.5 -20.5q-37 -11 -43 8z" />
<glyph unicode="&#xee;" horiz-adv-x="315" d="M-18 14q0 15 8 35q64 190 108 291q62 153 123 309q6 17 17.5 53t17.5 54q6 19 14 32q10 19 30.5 21.5t33.5 -12.5q22 -25 22 -70q-6 -32 -8 -37q-10 -52 -39 -115q-64 -135 -176 -430q-30 -76 -39 -129q-9 -40 -39 -61q-28 -14 -47 0q-29 25 -26 59zM35 942q16 49 41 74 q34 35 73 80t63.5 74.5t70.5 87t63 79.5q31 36 39 43q49 52 92 27q22 -14 39 -41q6 -9 12 -18.5t12 -22t9 -19.5t9.5 -24t8 -21t8.5 -25t7 -22q13 -36 33 -105.5t26 -88.5q13 -56 12 -76q0 -19 -16 -35q-17 -11 -31 -4q-39 21 -67 103q-11 33 -33.5 98t-34.5 98 q-3 7 -10.5 25.5t-11.5 27.5q-14 23 -27 22t-35 -26q-26 -30 -37 -45q-28 -40 -85.5 -112t-65.5 -82q-26 -32 -101 -99q-6 -6 -18 -14q-29 -17 -39 -4q-10 10 -6 45z" />
<glyph unicode="&#xef;" horiz-adv-x="315" d="M-18 14q0 15 8 35q64 190 108 291q62 153 123 309q6 17 17.5 53t17.5 54q6 19 14 32q10 19 30.5 21.5t33.5 -12.5q22 -25 22 -70q-6 -32 -8 -37q-10 -52 -39 -115q-64 -135 -176 -430q-30 -76 -39 -129q-9 -40 -39 -61q-28 -14 -47 0q-29 25 -26 59zM29 1225q4 55 37 84 q27 24 71 18q52 -11 60 -49q0 -4 4 -16q11 -47 -11.5 -67.5t-68.5 -25.5h-15q-37 0 -57 15t-20 41zM486 1142.5q-2 12.5 20 31.5q49 46 115 43q52 3 75 -23q21 -23 15.5 -42.5t-35.5 -29.5q-52 -19 -133 -12q-11 0 -27 8q-28 12 -30 24.5z" />
<glyph unicode="&#xf0;" horiz-adv-x="692" d="M51 141q26 150 60 240q6 16 24 80q23 80 101 248q56 120 116 192q66 86 101 119q60 60 132 99t128 22q-54 113 -150 202q-34 -45 -35 -47q-11 -13 -45 -30q-45 -14 -71 12q-10 9 -10 25.5t10 31.5l26 29l43 45q-29 19 -66.5 40t-59.5 33.5t-42.5 28.5t-26.5 33t1 39 q18 56 93 31.5t167 -113.5l57 72q8 7 19 7t16 -7q8 -16 8 -21q13 -48 -26 -127l-3 -2q61 -75 107.5 -161.5t79.5 -197.5t33 -226t-33 -246q-128 -460 -557 -774q-50 -38 -109 -35q-30 1 -48 18t-30 54q-34 119 -10 286zM131 -23q4 -9 7.5 -28.5t4.5 -22.5q5 -19 16.5 -25 t26.5 3q43 22 97 69q19 18 49 53.5t41 47.5q105 124 190 260q46 73 84 127q41 65 55 141q10 44 20 130t17 124q8 51 -12 113q-12 47 -49 47q-45 0 -76 -19q-59 -38 -86 -65q-104 -104 -188 -250q-101 -183 -168 -406q-39 -137 -29 -299z" />
<glyph unicode="&#xf1;" horiz-adv-x="905" d="M-21.5 -62.5q-7.5 26.5 7.5 72.5q17 47 50 140.5t50 140.5q23 69 68.5 206t68.5 205q10 33 32 98.5t32 98.5q26 96 20 156q-5 35 31 94q15 26 39 31t47 -11q19 -16 22 -41q0 -35 -2 -51q-5 -78 -36 -168q-51 -144 -60 -174q-72 -215 -86 -258q-15 -51 -22 -82 q0 -10 4 -14q7 -7 14 4q102 129 109 139t61 78q26 32 92 114.5t103 125.5q77 96 190 168q42 24 76 16q58 -12 80.5 -43t19.5 -96q-3 -85 -35 -170q-8 -21 -80 -203q-11 -26 -53 -125.5t-63 -152.5q-14 -33 -31 -103q-6 -20 2 -57q5 -30 -6.5 -51.5t-36.5 -44.5 q-13 -12 -36 -10.5t-38 16.5q-32 32 -16 80q41 134 51 161q22 57 68 170.5t69 171.5q48 115 74 230q11 35 8 65q0 19 -9 26.5t-21 -1.5q-69 -51 -82 -64q-119 -119 -242 -284q-82 -113 -113 -152q-45 -56 -120 -169.5t-89 -133.5q-4 -5 -11 -16.5t-11 -16.5 q-47 -57 -72 -119q-16 -37 -35 -47q-24 -10 -41 2q-34 22 -41.5 48.5zM158 1253v39q8 74 55 140q39 59 74 102q47 54 92 61q156 27 237 -98q14 -23 41.5 -68t42.5 -67q29 -48 50 -78q101 -141 268 -104q80 16 164 96q13 11 28 29q14 14 37 8q6 -2 11 -9.5t2 -13.5 q-3 -12 -9 -24q-47 -81 -88 -113q-65 -50 -110 -70q-58 -23 -88 -16q-140 3 -228 88q-48 46 -100 137q-39 70 -72 121q-47 73 -119 79.5t-127 -56.5q-45 -52 -94 -152q-19 -37 -26 -49q-8 -16 -23 -10q-18 6 -18 28z" />
<glyph unicode="&#xf2;" d="M-10 340q8 84 41 174q1 4 53 150q104 277 319 426q42 32 105 32q62 0 88 -71q4 -11 9.5 -36t12.5 -43.5t17 -33.5q6 -8 6 -37v-88q0 -155 -29 -326q-44 -222 -155 -358q-129 -155 -281 -174q-66 -9 -116.5 42.5t-63.5 125.5q-18 108 -6 217zM84 260q0 -49 4 -78 q9 -61 38 -83t67 -7q3 1 13.5 4t16.5 6q150 78 223 242q66 142 84 389q6 50 -18 88q-26 45 -23 103q0 15 -4 47q-3 18 -18 14q-43 -13 -72 -39q-135 -120 -223 -307q-82 -169 -88 -379zM377 1382q-2 21 6 40t23 28q10 8 26.5 4.5t28.5 -16.5q9 -11 22 -33q26 -48 74 -96 q9 -10 94 -111q6 -9 3.5 -20.5t-11.5 -14.5q-16 -4 -20 -4q-50 -2 -119 55q-17 16 -34 34.5t-40.5 45.5t-32.5 37q-13 18 -20 51z" />
<glyph unicode="&#xf3;" d="M-10 340q8 84 41 174q1 4 53 150q104 277 319 426q42 32 105 32q62 0 88 -71q4 -11 9.5 -36t12.5 -43.5t17 -33.5q6 -8 6 -37v-88q0 -155 -29 -326q-44 -222 -155 -358q-129 -155 -281 -174q-66 -9 -116.5 42.5t-63.5 125.5q-18 108 -6 217zM84 260q0 -49 4 -78 q9 -61 38 -83t67 -7q3 1 13.5 4t16.5 6q150 78 223 242q66 142 84 389q6 50 -18 88q-26 45 -23 103q0 15 -4 47q-3 18 -18 14q-43 -13 -72 -39q-135 -120 -223 -307q-82 -169 -88 -379zM385 1217q-1 7 1 13.5t5 10.5t9 10.5t8 8.5q10 14 24 24q28 19 86 56.5t86 56.5 q22 11 37 16q26 7 37 -12q10 -20 0 -47q-12 -24 -35 -37q-14 -8 -63.5 -38t-83 -46t-68.5 -25q-36 -11 -43 9z" />
<glyph unicode="&#xf4;" d="M-10 340q8 84 41 174q1 4 53 150q104 277 319 426q42 32 105 32q62 0 88 -71q4 -11 9.5 -36t12.5 -43.5t17 -33.5q6 -8 6 -37v-88q0 -155 -29 -326q-44 -222 -155 -358q-129 -155 -281 -174q-66 -9 -116.5 42.5t-63.5 125.5q-18 108 -6 217zM84 260q0 -49 4 -78 q9 -61 38 -83t67 -7q3 1 13.5 4t16.5 6q150 78 223 242q66 142 84 389q6 50 -18 88q-26 45 -23 103q0 15 -4 47q-3 18 -18 14q-43 -13 -72 -39q-135 -120 -223 -307q-82 -169 -88 -379zM186 1133q15 47 41 73q34 35 73.5 80t63.5 74.5t70.5 88t63.5 79.5q31 36 39 43 q49 52 92 26q22 -14 39 -41q7 -10 14.5 -23t12 -22.5t11 -27t9 -24.5t10 -28.5t8.5 -25.5q13 -37 34 -107.5t26 -87.5q13 -56 12 -75q0 -18 -17 -35q-16 -11 -30 -4q-41 22 -68 102q-12 33 -34 98.5t-33 98.5q-2 5 -10 24.5t-13 28.5q-14 23 -26.5 22t-34.5 -26 q-26 -30 -37 -45q-28 -40 -85.5 -112t-66.5 -83q-25 -32 -100 -98q-4 -4 -19 -14q-29 -16 -38 -5q-11 11 -7 46z" />
<glyph unicode="&#xf5;" d="M-10 340q8 84 41 174q1 4 53 150q104 277 319 426q42 32 105 32q62 0 88 -71q4 -11 9.5 -36t12.5 -43.5t17 -33.5q6 -8 6 -37v-88q0 -155 -29 -326q-44 -222 -155 -358q-129 -155 -281 -174q-66 -9 -116.5 42.5t-63.5 125.5q-18 108 -6 217zM14 1309v39q8 71 56 139 q43 65 73 102q48 55 93 62q156 26 237 -99q14 -22 42 -67t42 -68q33 -56 49 -78q101 -141 268 -104q80 16 164 96q16 13 29 29q14 14 37 8q6 -2 10.5 -9t1.5 -13q-4 -18 -8 -25q-47 -81 -88 -113q-61 -47 -111 -69q-60 -23 -88 -17q-139 3 -227 88q-47 45 -100 138 q-34 62 -72 120q-47 73 -119 79.5t-127 -56.5q-45 -52 -94 -152q-14 -29 -27 -49q-8 -16 -22 -10q-19 6 -19 29zM84 260q0 -49 4 -78q9 -61 38 -83t67 -7q3 1 13.5 4t16.5 6q150 78 223 242q66 142 84 389q6 50 -18 88q-26 45 -23 103q0 15 -4 47q-3 18 -18 14 q-43 -13 -72 -39q-135 -120 -223 -307q-82 -169 -88 -379z" />
<glyph unicode="&#xf6;" d="M-10 340q8 84 41 174q1 4 53 150q104 277 319 426q42 32 105 32q62 0 88 -71q4 -11 9.5 -36t12.5 -43.5t17 -33.5q6 -8 6 -37v-88q0 -155 -29 -326q-44 -222 -155 -358q-129 -155 -281 -174q-66 -9 -116.5 42.5t-63.5 125.5q-18 108 -6 217zM84 260q0 -49 4 -78 q9 -61 38 -83t67 -7q3 1 13.5 4t16.5 6q150 78 223 242q66 142 84 389q6 50 -18 88q-26 45 -23 103q0 15 -4 47q-3 18 -18 14q-43 -13 -72 -39q-135 -120 -223 -307q-82 -169 -88 -379zM203 1290q4 55 37 84q28 25 71 19q52 -11 60 -50q0 -4 4 -16q11 -47 -11.5 -67 t-68.5 -25h-14q-37 0 -57.5 14.5t-20.5 40.5zM660 1208q-2 12 20 31q49 46 115 43q53 3 75 -22q21 -23 15.5 -42.5t-35.5 -29.5q-52 -19 -133 -12q-11 0 -27 8q-28 12 -30 24z" />
<glyph unicode="&#xf8;" d="M-125 -197q21 100 76 213l47 95q0 8 -2 12q-18 108 -6 217q8 84 41 174l53 150q104 277 319 426q42 32 105 32q46 0 72 -39l92 152q12 20 32 59t31 58q8 18 23 41q16 22 39 12q22 -6 28 -33q2 -8 2 -20q0 -32 -10 -52q-12 -32 -24 -49q-118 -188 -175 -282q5 -15 17 -31 q6 -8 6 -37v-88q0 -155 -29 -326q-44 -222 -155 -358q-129 -155 -281 -174q-79 -9 -135 61q-31 -63 -41 -92q-37 -93 -39 -145q-3 -48 -43 -74q-11 -9 -22.5 -5.5t-16.5 17.5q-14 39 -4 86zM84 276q17 34 27 50q17 34 40 72.5t39.5 64t47 70.5t43.5 65q128 197 192 307 l16 27l-4 39q-3 18 -18 14q-43 -13 -72 -39q-135 -120 -223 -307q-79 -162 -88 -363zM100 133q29 -65 93 -41q3 1 13.5 4t16.5 6q150 78 223 242q66 142 84 389q3 46 -12 76l-92 -145q-24 -37 -71 -107t-83.5 -127t-66.5 -111q-21 -35 -57.5 -101t-47.5 -85z" />
<glyph unicode="&#xf9;" horiz-adv-x="868" d="M-41 291q18 246 111 467q35 83 131 241q25 42 65 60q25 10 41.5 -7t11.5 -48q-2 -14 -20 -46q-75 -110 -111 -176q-65 -109 -114 -301q-33 -160 -23 -266q1 -18 15 -70q14 -57 67 -63q25 -3 55 4q114 25 217.5 89t181 152.5t133 195t81.5 220.5q30 127 30 203 q2 19 5.5 56t5.5 55q3 37 24 67q6 10 18 10.5t19 -8.5q21 -24 25 -69q4 -161 -17 -262q-16 -97 -50.5 -205t-76.5 -184q-77 -145 -215 -262t-280 -148q-191 -46 -266.5 26.5t-63.5 268.5zM377 1425q-2 21 6 40t23 28q10 8 26.5 4.5t28.5 -16.5q9 -11 22 -33q26 -48 74 -96 q9 -10 94 -111q6 -9 3.5 -20.5t-11.5 -14.5q-16 -4 -20 -4q-50 -2 -119 55q-17 16 -34 34.5t-40.5 45.5t-32.5 37q-13 18 -20 51z" />
<glyph unicode="&#xfa;" horiz-adv-x="868" d="M-41 291q18 246 111 467q35 83 131 241q25 42 65 60q25 10 41.5 -7t11.5 -48q-2 -14 -20 -46q-75 -110 -111 -176q-65 -109 -114 -301q-33 -160 -23 -266q1 -18 15 -70q14 -57 67 -63q25 -3 55 4q114 25 217.5 89t181 152.5t133 195t81.5 220.5q30 127 30 203 q2 19 5.5 56t5.5 55q3 37 24 67q6 10 18 10.5t19 -8.5q21 -24 25 -69q4 -161 -17 -262q-16 -97 -50.5 -205t-76.5 -184q-77 -145 -215 -262t-280 -148q-191 -46 -266.5 26.5t-63.5 268.5zM459 1278q-1 7 1 14t4.5 10.5t8.5 10t8 8.5q11 14 25 25q29 18 86 56t86 56 q28 14 37 17q25 7 37 -13q10 -20 0 -47q-12 -24 -35 -37l-51 -30t-55 -32t-51.5 -25.5t-57.5 -20.5q-37 -11 -43 8z" />
<glyph unicode="&#xfb;" horiz-adv-x="868" d="M-41 291q18 246 111 467q35 83 131 241q25 42 65 60q25 10 41.5 -7t11.5 -48q-2 -14 -20 -46q-75 -110 -111 -176q-65 -109 -114 -301q-33 -160 -23 -266q1 -18 15 -70q14 -57 67 -63q25 -3 55 4q114 25 217.5 89t181 152.5t133 195t81.5 220.5q30 127 30 203 q2 19 5.5 56t5.5 55q3 37 24 67q6 10 18 10.5t19 -8.5q21 -24 25 -69q4 -161 -17 -262q-16 -97 -50.5 -205t-76.5 -184q-77 -145 -215 -262t-280 -148q-191 -46 -266.5 26.5t-63.5 268.5zM244 1264q15 47 41 73q34 35 73 79.5t64 76t69 87t64 79.5q31 36 39 43q49 52 92 27 q22 -14 39 -41q6 -9 12 -18.5t12 -22t9 -19.5t9.5 -24t8 -21t8.5 -25t7 -22q13 -36 33 -105.5t26 -89.5q13 -56 12 -75q0 -19 -16 -35q-17 -11 -31 -4q-39 21 -67 102q-11 33 -34 98.5t-34 98.5q-2 5 -10 24.5t-13 28.5q-14 23 -26.5 22t-34.5 -26q-26 -30 -37 -45 q-21 -30 -46 -62.5t-56.5 -71.5t-48.5 -61q-23 -29 -101 -98q-6 -6 -18 -14q-29 -17 -39 -4q-10 10 -6 45z" />
<glyph unicode="&#xfc;" horiz-adv-x="868" d="M-41 291q18 246 111 467q35 83 131 241q25 42 65 60q25 10 41.5 -7t11.5 -48q-2 -14 -20 -46q-75 -110 -111 -176q-65 -109 -114 -301q-33 -160 -23 -266q1 -18 15 -70q14 -57 67 -63q25 -3 55 4q114 25 217.5 89t181 152.5t133 195t81.5 220.5q30 127 30 203 q2 19 5.5 56t5.5 55q3 37 24 67q6 10 18 10.5t19 -8.5q21 -24 25 -69q4 -161 -17 -262q-16 -97 -50.5 -205t-76.5 -184q-77 -145 -215 -262t-280 -148q-191 -46 -266.5 26.5t-63.5 268.5zM264 1378q4 55 37 84q28 25 72 19q51 -11 59 -49q0 -5 4 -17q11 -47 -11.5 -67 t-68.5 -25h-14q-37 0 -57.5 14.5t-20.5 40.5zM721.5 1296q-2.5 12 19.5 31q49 46 115 43q54 3 76 -22q20 -23 15 -42.5t-36 -29.5q-52 -19 -133 -12q-10 0 -26 8q-28 12 -30.5 24z" />
<glyph unicode="&#xfd;" horiz-adv-x="862" d="M-291 -1075q13 238 94 434q10 24 21 48.5t24.5 51t23.5 45t27.5 49t25.5 44.5t28.5 47.5t26.5 44.5q65 110 206 274q10 14 15 23q7 14 -6 18q-4 1 -14 2t-15 2q-51 8 -99.5 61t-58.5 128q-10 82 -2 151q26 192 66 301q67 198 100 273q6 14 24 48t29 59t17 52 q7 27 36.5 38.5t53.5 0.5q20 -12 28 -43t-2 -57q-22 -55 -34 -70q-51 -69 -95 -184q-79 -229 -98 -344q-20 -117 -6 -215q4 -42 20 -58t52 -18q23 -2 71 19q70 37 133 110q133 156 207 367q40 111 49 139q1 5 4 12t3 8q13 26 35.5 37t41.5 2q20 -11 31 -44.5t2 -61.5 q-10 -33 -30.5 -98.5t-30.5 -98.5q-4 -16 -12.5 -45.5t-12.5 -44.5q-3 -9 3.5 -15t15.5 -3q40 17 45 20q72 44 99 55q42 18 58 25q32 16 95 27q4 2 12.5 0.5t9.5 -4.5q3 -9 7 -12.5t9.5 -3.5t12.5 1q12 4 35 4q10 0 10 -6q4 -8 -8 -16q-9 -6 -21 -10q-40 -14 -86 -34.5 t-74.5 -35t-84.5 -44.5t-76 -40q-25 -13 -34 -20.5t-8 -10.5t-7.5 -13.5t-30.5 -27.5q-51 -42 -68 -106q-55 -185 -70 -232q-119 -366 -221 -589q-56 -131 -94 -213q-71 -165 -190 -345q-21 -27 -39 -57q-34 -50 -78 -90q-50 -41 -103 0q-62 53 -83 137q-17 89 -15 152z M-180 -1073v-96q4 -38 14 -56q5 -9 14 -12.5t17 2.5q21 22 26 29q96 133 111 155q96 156 193 387q125 288 200 521q11 37 32 103.5t30 94.5q9 18 -4 25q-5 2 -17 -4q-105 -105 -139 -142q-108 -121 -188 -235q-92 -135 -148 -240q-24 -47 -53 -121q-90 -242 -88 -411z M469 1212q-1 7 1 13.5t5 10.5t9 10.5t8 8.5q12 16 24 25q28 18 86 56t86 57q22 11 37 16q26 7 37 -12q10 -20 0 -47q-12 -24 -35 -37q-14 -8 -63.5 -38t-83 -46t-68.5 -25q-37 -11 -43 8z" />
<glyph unicode="&#xfe;" horiz-adv-x="817" d="M-49 -203q20 230 78 482q7 36 25.5 140.5t31.5 162.5q43 190 82 325q11 44 104 348q5 13 33 82q6 19 22 56.5t26 69t14 59.5l6 22q19 46 46 61.5t58 -1.5q24 -14 21 -45q-6 -42 -23 -80q-38 -99 -57 -142q-48 -92 -115 -309q195 91 369 86q50 -3 106 -22q21 -7 39 -19 q2 -2 18 -14t20.5 -15.5t17.5 -14.5t18 -17t13.5 -16t13 -19t6.5 -19q13 -43 10 -84q-3 -112 -115 -245q-71 -74 -141 -119q-158 -91 -365 -127q-50 -8 -110 -2q-43 3 -62 22l-8 -47q-25 -139 -34.5 -194.5t-22.5 -163t-15 -191.5q-3 -79 -61 -112q-26 -17 -37 8 q-15 37 -12 94zM168 522l12 6q19 10 25 -8q9 -43 14 -61q0 -8 12 -8q43 -3 74 2q189 25 334 112q182 107 203 275q9 51 -8 96q-38 93 -158 102q-57 6 -105 -2q-12 -2 -53 -8t-59.5 -9.5t-49 -10.5t-55.5 -15q-19 -8 -63 -4q-12 -52 -29 -102q-32 -95 -55 -203z" />
<glyph unicode="&#xff;" horiz-adv-x="862" d="M-291 -1075q13 238 94 434q10 24 21 48.5t24.5 51t23.5 45t27.5 49t25.5 44.5t28.5 47.5t26.5 44.5q65 110 206 274q10 14 15 23q7 14 -6 18q-4 1 -14 2t-15 2q-51 8 -99.5 61t-58.5 128q-10 82 -2 151q26 192 66 301q67 198 100 273q6 14 24 48t29 59t17 52 q7 27 36.5 38.5t53.5 0.5q20 -12 28 -43t-2 -57q-22 -55 -34 -70q-51 -69 -95 -184q-79 -229 -98 -344q-20 -117 -6 -215q4 -42 20 -58t52 -18q23 -2 71 19q70 37 133 110q133 156 207 367q40 111 49 139q1 5 4 12t3 8q13 26 35.5 37t41.5 2q20 -11 31 -44.5t2 -61.5 q-10 -33 -30.5 -98.5t-30.5 -98.5q-4 -16 -12.5 -45.5t-12.5 -44.5q-3 -9 3.5 -15t15.5 -3q40 17 45 20q72 44 99 55q42 18 58 25q32 16 95 27q4 2 12.5 0.5t9.5 -4.5q3 -9 7 -12.5t9.5 -3.5t12.5 1q12 4 35 4q10 0 10 -6q4 -8 -8 -16q-9 -6 -21 -10q-40 -14 -86 -34.5 t-74.5 -35t-84.5 -44.5t-76 -40q-25 -13 -34 -20.5t-8 -10.5t-7.5 -13.5t-30.5 -27.5q-51 -42 -68 -106q-55 -185 -70 -232q-119 -366 -221 -589q-56 -131 -94 -213q-71 -165 -190 -345q-21 -27 -39 -57q-34 -50 -78 -90q-50 -41 -103 0q-62 53 -83 137q-17 89 -15 152z M-180 -1073v-96q4 -38 14 -56q5 -9 14 -12.5t17 2.5q21 22 26 29q96 133 111 155q96 156 193 387q125 288 200 521q11 37 32 103.5t30 94.5q9 18 -4 25q-5 2 -17 -4q-105 -105 -139 -142q-108 -121 -188 -235q-92 -135 -148 -240q-24 -47 -53 -121q-90 -242 -88 -411z M303 1294q4 55 37 84q28 25 72 19q51 -11 59 -49q0 -5 4 -17q11 -47 -11.5 -67t-68.5 -25h-14q-37 0 -57.5 14.5t-20.5 40.5zM760.5 1212q-2.5 12 19.5 31q49 46 115 43q54 3 76 -22q20 -23 15 -42.5t-36 -29.5q-52 -19 -133 -12q-10 0 -26 8q-28 12 -30.5 24z" />
<glyph unicode="&#x152;" horiz-adv-x="1910" d="M-2 127q-20 125 16 262q70 280 250 553q100 156 234 299q52 55 113 96t149 90q94 54 145 64l51 10q54 3 86 -53q25 -43 35 -105q6 -41 -12 -75q-16 -31 -16 -68q3 -109 -17 -231l27 35q95 131 129 233q31 86 104 41q26 -15 51 2q98 65 293 137q20 7 88 21q5 1 48.5 8.5 t66.5 9.5q100 8 209 -63q37 -21 37 -95q0 -48 -31 -84q-118 -124 -282 -178h-5l-10 6q1 1 2 3q0 1 0.5 1.5t1.5 0.5q14 17 47 45q31 27 31 43q0 13 5 23.5t9.5 15.5t15 13t13.5 11q22 22 68 62l22 26q8 12 3.5 26.5t-17.5 18.5q-17 6 -60 10h-30q-60 0 -115 -14 q-165 -43 -280 -108q-217 -119 -332 -308q-46 -80 -66 -131q-9 -23 -5 -32.5t24 -8.5q50 0 96 6q19 3 80 14.5t94 16.5q88 14 115 15q3 1 37 -5q31 -9 41 -44t-9 -64q-19 -32 -45 -49l-174 -105q-4 0 -8 -4q-18 -5 -17 7q0 3 17 42q9 20 6 29q-12 27 -35 27h-57 q-38 -9 -108 -15.5t-91 -9.5q-20 -4 -30 -4q-24 0 -35 -23q-48 -97 -72 -172q-4 -14 -55 -163q0 -1 -4 -17t-6 -20q-6 -12 -2 -24t16 -15h24q16 2 54 5t66.5 6.5t54.5 8.5q150 34 403 131q39 17 70 25q25 6 39 -27q9 -24 -9 -45q-35 -37 -98 -59q-39 -15 -59 -29 q-22 -15 -48 -25t-58.5 -19.5t-49.5 -16.5q-132 -52 -289 -84q-55 -13 -133 -6q-52 4 -77.5 47t-14.5 106q7 33 8 35q24 54 0 94q-2 0 -2 4l-55 -61q-52 -60 -191 -176q-104 -83 -243 -127q-83 -23 -162 28q-66 40 -80 150zM92 274q-10 -73 4 -135q15 -59 54 -59q51 0 86 12 q119 43 176 86q207 152 317 305q71 100 117 215v2q0 18 10 25q78 217 88 487v50q0 64 -13 74t-65 -15q-196 -94 -358 -262q-188 -197 -311 -455q-81 -171 -105 -330z" />
<glyph unicode="&#x153;" horiz-adv-x="1036" d="M-10 340q8 84 41 174l53 150q104 277 319 426q42 32 105 32q62 0 88 -71q4 -11 9.5 -36t12.5 -43.5t17 -33.5q6 -8 6 -37v-88q0 -53 -2 -78q27 47 57 90q122 182 273 287q61 42 106 47q52 3 87 -33t40 -98q8 -89 -35 -190q-71 -164 -211 -297q-154 -144 -319 -222 q-17 -9 -23 -10q-33 -16 -30 -55l-1 -37q-1 -37 1 -37q9 -87 84 -96q11 -2 32.5 -2.5t28.5 -1.5q21 0 29 -4q3 -1 14.5 -5.5t16.5 -7t10.5 -9t5.5 -15.5q1 -8 -1.5 -14t-9 -9t-10 -4.5t-13 -3.5t-11.5 -2q-9 -2 -28 -8t-30.5 -8.5t-19.5 -1.5q-93 6 -147 57q-47 44 -50 113 q0 1 -1 3.5t-1 4.5l-26 -37q-129 -155 -281 -174q-66 -9 -116.5 42.5t-63.5 125.5q-18 108 -6 217zM84 260q0 -49 4 -78q9 -61 38 -83t67 -7q3 1 13.5 4t16.5 6q150 78 223 242q66 142 84 389q6 50 -18 88q-26 45 -23 103q0 15 -4 47q-3 18 -18 14q-43 -13 -72 -39 q-135 -120 -223 -307q-82 -169 -88 -379zM627 477q-5 -12 3.5 -23.5t18.5 -7.5q32 11 62 31q148 90 250 217q81 97 120 215q17 53 15 78q0 34 -15 45.5t-41 -2.5l-16 -8q-95 -77 -154 -141q-111 -119 -200 -291q-20 -40 -43 -113z" />
<glyph unicode="&#x178;" horiz-adv-x="983" d="M-655 -1298q19 165 84 292q10 20 26 58t21 49q36 77 94 164q65 99 141 196q150 180 307 318q140 128 279 229q45 34 190 129q14 8 41.5 28t51 33.5t47.5 20.5q38 11 55 68q11 44 36.5 122t33.5 105q19 63 49.5 179t40.5 151q1 7 4 21.5t4 21.5q3 8 -2 18q-11 13 -21 -2 q-15 -17 -49 -53t-51 -57q-17 -22 -37 -43.5t-47 -48t-39 -39.5q-6 -7 -19.5 -21t-23 -25.5t-16.5 -23.5q-8 -12 -13 -14q-24 -21 -107 -101t-134 -115q-25 -19 -123 -71q-23 -11 -51 -15q-50 -9 -84 37q-35 51 -45 97q-24 105 -8 229q18 137 67 258q35 90 109 266 q17 37 54.5 103t53.5 100q3 6 17 20q23 26 47 5q9 -8 32 -35q14 -14 11 -39q-5 -38 -33 -82q-195 -263 -256 -606q-16 -95 -2 -178q6 -25 15.5 -33t29.5 -2q62 17 139 76q132 96 260 233q100 104 191 203q103 109 190 227q4 4 8 12q1 1 3.5 5t3.5 5t4 5t4.5 5t4.5 4t5 3.5 t5.5 3t5.5 2t6.5 1t7.5 -0.5q15 -3 34.5 -32t20.5 -52q2 -31 -12 -76q-5 -18 -35 -106q-22 -64 -56 -183.5t-45 -156.5q-9 -30 -26.5 -83t-24.5 -77q-16 -51 -20 -74q-6 -23 5.5 -36.5t31.5 -8.5q4 1 10 7t10 8q1 0 27.5 17.5t42.5 19.5q45 5 53 6q-3 -12 -9 -18.5t-20 -11 t-16 -5.5q-58 -22 -129 -86q-1 -1 -5 -4.5t-6 -5.5t-4 -5t-2 -6q-1 -11 -5.5 -19t-9 -11.5l-13.5 -10.5q-26 -15 -45 -69q-132 -380 -174 -490q-14 -37 -37.5 -100.5t-43.5 -116.5t-40 -98q-19 -41 -54 -128.5t-55 -131.5q-15 -36 -47.5 -100t-46.5 -95q-12 -27 -29 -58 t-29.5 -51.5t-34.5 -54.5t-32 -51q-87 -146 -182 -227q-127 -107 -236 -119q-90 -12 -143 10q-135 59 -178 240q-17 73 -8 152zM-561 -1425q9 -101 90 -142q21 -11 46.5 -13.5t44.5 -0.5t58 8q117 15 222 133q83 91 151.5 202t145.5 261q76 155 172 404q127 331 194 516 q20 50 41 127q3 8 0 14t-10 6q-34 0 -53 14q-12 4 -15 -6q-5 -10 4 -14q11 -7 10.5 -16t-12.5 -13q-2 -1 -9 -5.5t-11 -6t-11 -1t-14 6.5q-3 4 -12 0.5t-12 -12.5q-3 -15 -7.5 -18.5t-19.5 1.5q-18 7 -31 -3.5t-18 -32.5q-9 -31 -16 -37q-11 -9 -33.5 -27.5t-40.5 -32 t-35 -24.5q-20 -13 -39.5 -30t-43.5 -40.5t-36 -34.5q-14 -13 -56.5 -47t-62.5 -57q-5 -5 -29 -30.5t-38 -37.5q-34 -29 -88 -92q-111 -128 -156 -194q-9 -13 -39 -53.5t-48.5 -69.5t-33.5 -60q-20 -41 -55 -120t-43 -97q-66 -148 -51 -325zM334 1604q4 55 37 84 q27 24 71 18q52 -11 60 -49q0 -5 4 -17q11 -47 -11.5 -67t-68.5 -25h-14q-37 0 -57.5 15t-20.5 41zM791 1521q-2 12 20 31q49 46 115 43q53 3 75 -22q21 -23 15.5 -42.5t-35.5 -29.5q-52 -19 -133 -12q-11 0 -27 8q-28 12 -30 24z" />
<glyph unicode="&#x2c6;" horiz-adv-x="544" d="M-6 1403q16 49 41 74q34 35 73 80t63.5 74.5t70.5 87t63 79.5q31 36 39 43q49 52 92 27q22 -14 39 -41q6 -9 12 -18.5t12 -22t9 -19.5t9.5 -24t8 -21t8.5 -25t7 -22q13 -36 33 -105.5t26 -88.5q13 -56 12 -76q0 -19 -16 -35q-17 -11 -31 -4q-39 21 -67 102 q-12 33 -34.5 98.5t-33.5 98.5q-3 7 -10.5 25.5t-11.5 27.5q-14 23 -27 22t-35 -26q-26 -30 -37 -45q-28 -40 -85.5 -112t-65.5 -82q-26 -32 -101 -99q-6 -6 -18 -14q-29 -17 -39 -4q-10 10 -6 45z" />
<glyph unicode="&#x2dc;" horiz-adv-x="1009" d="M6 1483v39q8 73 55 139q39 59 74 102q48 55 92 62q156 27 238 -99q14 -23 42 -68t42 -67q33 -56 49 -78q101 -141 268 -104q80 16 164 96q16 13 29 29q14 14 37 8q6 -2 10.5 -9t1.5 -13q-4 -18 -8 -25q-47 -81 -88 -113q-61 -47 -111 -69q-60 -23 -88 -17q-139 3 -227 88 q-49 47 -101 138q-42 74 -71 120q-47 73 -119 79.5t-127 -56.5q-45 -52 -94 -152q-14 -29 -27 -49q-8 -16 -22 -10q-19 6 -19 29z" />
<glyph unicode="&#x2000;" horiz-adv-x="1029" />
<glyph unicode="&#x2001;" horiz-adv-x="2058" />
<glyph unicode="&#x2002;" horiz-adv-x="1029" />
<glyph unicode="&#x2003;" horiz-adv-x="2058" />
<glyph unicode="&#x2004;" horiz-adv-x="686" />
<glyph unicode="&#x2005;" horiz-adv-x="514" />
<glyph unicode="&#x2006;" horiz-adv-x="343" />
<glyph unicode="&#x2007;" horiz-adv-x="343" />
<glyph unicode="&#x2008;" horiz-adv-x="257" />
<glyph unicode="&#x2009;" horiz-adv-x="411" />
<glyph unicode="&#x200a;" horiz-adv-x="114" />
<glyph unicode="&#x2010;" horiz-adv-x="1095" d="M48 697q77 38 208 61q22 4 39 6q29 3 98.5 5.5t106.5 6.5q287 38 520 41q55 0 52.5 -27.5t-50.5 -56.5q-42 -26 -82 -26q-56 -2 -100.5 1.5t-63 4t-98.5 -7.5q-34 -3 -180.5 -15.5t-180.5 -15.5q-32 -3 -101 -23t-103 -22q-23 0 -47 6q-102 20 -18 62z" />
<glyph unicode="&#x2011;" horiz-adv-x="1095" d="M48 697q77 38 208 61q22 4 39 6q29 3 98.5 5.5t106.5 6.5q287 38 520 41q55 0 52.5 -27.5t-50.5 -56.5q-42 -26 -82 -26q-56 -2 -100.5 1.5t-63 4t-98.5 -7.5q-34 -3 -180.5 -15.5t-180.5 -15.5q-32 -3 -101 -23t-103 -22q-23 0 -47 6q-102 20 -18 62z" />
<glyph unicode="&#x2012;" horiz-adv-x="1095" d="M48 697q77 38 208 61q22 4 39 6q29 3 98.5 5.5t106.5 6.5q287 38 520 41q55 0 52.5 -27.5t-50.5 -56.5q-42 -26 -82 -26q-56 -2 -100.5 1.5t-63 4t-98.5 -7.5q-34 -3 -180.5 -15.5t-180.5 -15.5q-32 -3 -101 -23t-103 -22q-23 0 -47 6q-102 20 -18 62z" />
<glyph unicode="&#x2013;" horiz-adv-x="1095" d="M27 702q3 53 43 74q23 16 59 12q95 -8 145 -4q28 3 98 6t107 7q287 38 520 41q49 0 58.5 -11.5t9.5 -70.5q0 -32 -25 -35q-82 -14 -102 -14q-50 -1 -112 -6.5t-98.5 -10t-116 -15t-101.5 -13.5q-34 -3 -100.5 -9.5t-100.5 -9.5q-66 -6 -198 -14q-3 0 -11.5 -0.5t-13 -0.5 t-11 1.5t-11.5 5.5q-41 29 -39 67z" />
<glyph unicode="&#x2014;" horiz-adv-x="2079" d="M83 697q149 38 401 61q42 4 75 6q56 3 190 5.5t205 6.5q554 38 1003 41q106 0 101 -27.5t-98 -56.5q-80 -26 -158 -26q-108 -2 -193.5 1.5t-121 4t-190.5 -7.5q-65 -3 -347.5 -15.5t-347.5 -15.5q-62 -3 -195 -23t-199 -22q-44 0 -90 6q-197 20 -35 62z" />
<glyph unicode="&#x201a;" horiz-adv-x="155" d="M66 10q0 17 8 41q11 28 29 31.5t32 -21.5q36 -58 39 -127v-22q4 -29 -4 -49q-13 -37 -41 -37q-26 0 -39 29q-7 14 -10 26q-17 59 -14 129z" />
<glyph unicode="&#x201e;" horiz-adv-x="174" d="M10 -131q20 100 72 199q15 35 39 22q25 -9 22 -49q0 -11 -8 -35q-27 -70 -57 -141q-4 -12 -10 -21q-12 -26 -31 -20q-14 5 -22.5 18t-4.5 27zM164 18q-9 33 12 64q6 9 17 10.5t18 -4.5q28 -25 31 -63q2 -18 3.5 -47t2.5 -35v-95q-3 -15 -10 -34q-10 -32 -33 -29 q-22 6 -29 33q-6 24 -6 49q4 100 -6 151z" />
<glyph unicode="&#x2022;" horiz-adv-x="452" d="M12 1024q0 18 21 25q54 22 86 20q112 0 198 -47t109 -129q1 -6 4 -14t4 -11q9 -44 -18 -82.5t-82 -60.5q-111 -42 -209 0q-7 2 -17 8t-14 8q-49 27 -59 62q-13 48 10 112q5 10 1.5 46.5t-15.5 39.5q-22 4 -19 23z" />
<glyph unicode="&#x202f;" horiz-adv-x="411" />
<glyph unicode="&#x2039;" horiz-adv-x="712" d="M23 670q-7 53 38 106q55 59 99 86q49 29 147.5 86.5t147.5 85.5q21 12 62.5 36t62.5 36q5 2 14 7t14 7q55 24 80 -37q11 -26 1.5 -53.5t-34.5 -42.5l-12 -6q-39 -14 -106 -50t-95 -48q-38 -17 -74 -38t-94 -59.5t-71 -46.5q-24 -18 -49 -43q-25 -28 -7 -65q10 -20 23 -33 q68 -74 160 -119q45 -22 76 -6q22 12 49 -18q65 -80 0 -160q-20 -24 -45 -8q-186 93 -271 166q-49 43 -92 112q-30 46 -24 105z" />
<glyph unicode="&#x203a;" horiz-adv-x="700" d="M4 1081q2 39 17 57.5t42 14.5q30 3 52 -16q56 -52 190 -123q21 -11 242 -119q51 -25 102 -76q20 -18 24.5 -37.5t-3.5 -46.5q-15 -46 -45 -76q-79 -77 -162 -153q-38 -35 -116 -104.5t-116 -104.5q-37 -35 -106 -72q-9 -6 -19.5 0.5t-13.5 18.5q-13 49 10 82q22 34 43 49 q38 29 102.5 92t90.5 86q24 22 51 47.5t59 57.5t50 49q3 2 5.5 4.5t5 5.5t3.5 4q8 10 7 23.5t-11 19.5q-9 5 -30 19t-36.5 23t-31.5 15q-98 41 -340 176q-20 11 -41 29q-25 19 -25 55z" />
<glyph unicode="&#x205f;" horiz-adv-x="514" />
<glyph unicode="&#x20ac;" horiz-adv-x="948" d="M-207 500q3 51 51 73q32 16 70 13q110 -8 166 -6q0 14 2 20v55q0 4 0.5 13.5t0.5 14.5t-2 11.5t-7 10.5q-6 4 -18 -1t-17 -4q-29 0 -49 5q-30 11 -35 45q0 19 2 20q4 4 14 17t19 20t20 8q8 1 23.5 6t17.5 6q66 26 88 93q42 126 131 251q61 89 114.5 151t117.5 103 q129 83 223 76q29 -4 43 -10q25 -11 33.5 -27.5t7.5 -50.5q0 -2 -1 -13t-1.5 -13t-1.5 -12t-1.5 -13.5t-2 -12t-3 -12.5t-4 -11.5t-5 -12t-6 -10.5t-7.5 -11q-9 -16 -22 -22q-13 -8 -27 -2.5t-20 20.5l-7 21q-9 36 -19 44t-40 1q-101 -24 -184 -107q-66 -63 -127 -143 q-53 -71 -99 -184q0 -5 -2 -7q-6 -20 1 -31t26 -10q116 13 223 27q74 10 283 45q82 12 203 37q58 10 102 10q25 -3 59 -10q37 -10 50 -59q7 -18 -11 -21q-49 -10 -148.5 -30.5t-148.5 -30.5q-32 -6 -158 -29.5t-194 -38.5q-113 -22 -307 -45q-17 -1 -23.5 -8.5t-9.5 -26.5 q-6 -35 -10 -106q134 5 160 8q344 39 610 39q59 1 70.5 -10t9.5 -70q0 -14 -8 -24t-21 -11q-96 -15 -121 -16q-59 -1 -132 -6t-114.5 -9t-137.5 -14.5t-120 -13.5q-147 -14 -186 -17q12 -72 39 -139q71 -167 227 -176q112 -6 211 29q4 1 21 6.5t26 7.5q31 4 48 -4 q16 -8 16 -19q0 -16 -8 -24q-58 -52 -111 -76q-122 -57 -258 -29q-190 39 -268 273q-24 76 -31 145q-32 -2 -95.5 -5t-96.5 -5q-4 0 -14.5 -0.5t-16 -0.5t-13.5 1.5t-14 5.5q-48 27 -45 68z" />
<glyph unicode="&#x2122;" horiz-adv-x="1454" d="M-98 1606q-3 11 10.5 23t34.5 16q45 10 84 2q160 -41 213 -50q24 -5 52.5 -9t62.5 -8t53 -7q6 -3 25.5 -1.5t25.5 1.5t25 4t25.5 5.5t25 6.5t24.5 6q47 11 76 -39q15 -25 6.5 -52.5t-33.5 -30.5q-16 -3 -46 -10.5t-52.5 -11t-40.5 0.5h-16q-53 2 -64 -6t-33 -72 q-53 -157 -77 -373q-13 -91 -11 -129q0 -44 -26 -53q-11 -6 -24 3t-23 32q-32 68 -23 139q9 105 29 201q24 138 47 203q1 4 3 13t3 13q6 48 -31 62q-71 24 -141 45q-13 4 -60.5 18.5t-72.5 22.5q-2 1 -6 2t-6 2q-12 5 -16.5 6.5t-12 8.5t-10.5 16zM561 913q-17 42 6 74 q22 29 44.5 67.5t36.5 66t37.5 76.5t33.5 69q15 28 43.5 84t42.5 84q2 4 7 12t7 12q31 43 71 36.5t62 -58.5q11 -27 11 -78q2 -47 2 -139q0 -15 9.5 -21t20.5 2q58 40 86 66q22 21 65 60.5t76.5 72.5t61.5 65q5 5 14.5 17.5t14.5 17.5q12 14 33 31q42 26 71 -17 q43 -56 29 -149q-4 -28 -12.5 -85.5t-12.5 -86.5q-14 -108 -10 -283q2 -20 2 -59q0 -15 -12 -39q-11 -26 -37 -16q-30 12 -39 51q-13 60 -10 137v57q0 119 12 195q1 10 1 21.5t-0.5 24.5t-0.5 19q0 17 -10 17q-11 0 -17 -6q-13 -13 -49 -51t-57 -58q-26 -23 -79.5 -70 t-80.5 -71q-31 -22 -43 -29q-40 -22 -78 1t-47 77q-3 16 -5 34t-4 39.5t-3 33.5q-2 4 -8 10q-4 0 -10 -6q-1 -2 -3.5 -6.5t-3.5 -6.5q-11 -23 -30.5 -64t-35.5 -74.5t-32 -63.5q-15 -33 -65 -113q-6 -10 -21 -25q-23 -20 -45 -2q-29 22 -39 47z" />
<glyph unicode="&#xfb01;" horiz-adv-x="983" d="M-305 -575q0 14 8 22q11 11 21 8q26 -3 43 -26q19 -24 53 -33q2 -2 6 -2q6 0 10 8l6 8q19 31 29 55l10 27q52 128 88 234q31 94 41 133l25 88q43 136 123 360q47 139 63 215l6 23q4 8 4 14q6 14 9 37l-2 8h-2q-7 0 -9 -2q-201 -54 -333 -166q-33 -29 -52 -53 q-23 -28 -39 -35q-1 0 -4 -1t-4 -1q-10 0 -18 8q-9 9 -6 23v6q6 24 8 29q33 85 88 125q88 68 190 112l6 2q120 57 197 68q27 5 39 41q28 91 88 237q39 98 51 136q5 18 39 79q2 6 8.5 17.5t8.5 17.5l20 37l41 82q29 57 59 102q27 40 54 78l43 62q57 86 180 209q54 54 137 120 q50 42 166 99q19 8 31 10q10 2 32 2q23 -1 41 -19.5t23 -43.5q10 -47 -27 -76q-20 -15 -28 -15q-13 0 -23 13q-11 8 -16 8q-7 0 -23 -8q-56 -30 -137 -90q-68 -50 -170 -156q-4 -4 -9 -8.5t-11 -11t-9 -9.5q-11 -9 -39 -47l-6 -6q-8 -14 -22 -31q-2 -3 -37.5 -52t-52.5 -75 q-90 -129 -152 -254l-27 -61l-22 -53q-20 -44 -92 -226l-19 -55v-16q2 -2 4 -2q5 0 5 2l81 18l62 14q126 30 211 35q6 2 22 2q36 0 70 -6q6 0 18 -1t17 -1q11 -4 14 -10l8 -6q23 -26 23 -70q-6 -33 -8 -37q-10 -50 -39 -114q-64 -135 -176 -430q-29 -75 -39 -130 q-9 -40 -39 -61q-28 -14 -47 0q-29 26 -27 59q0 15 8 35q61 180 109 291l123 309l30 97q-15 -5 -16 -5q-117 -19 -219 -45l-72 -20l-147 -39q-29 -6 -41 -45q-3 -11 -29 -92q-5 -20 -20 -68.5t-21 -73.5q-20 -80 -47 -153q-22 -64 -61 -188t-45 -144q-1 -4 -43 -139 q-60 -193 -117 -328q-10 -24 -29 -55l-12 -21q-25 -45 -68 -45h-6q-65 0 -119 66q-18 22 -22 70zM915 1171q-3 -17 8.5 -34t34.5 -27q12 -6 23 -6q31 0 51 14q29 21 17 62q-11 40 -60 51q-23 4 -44.5 -13.5t-29.5 -46.5z" />
<glyph unicode="&#xfb02;" horiz-adv-x="1126" d="M-305 -575q0 14 8 22q11 11 21 8q26 -3 43 -26q19 -24 53 -33q2 -2 6 -2q6 0 10 8l6 8q19 31 29 55l10 27q52 128 88 234q31 94 41 133l25 88q43 136 123 360q47 139 63 215l6 23q4 8 4 14q6 14 9 37l-2 8h-2q-7 0 -9 -2q-201 -54 -333 -166q-33 -29 -52 -53 q-23 -28 -39 -35q-1 0 -4 -1t-4 -1q-10 0 -18 8q-9 9 -6 23v6q6 24 8 29q33 85 88 125q88 68 190 112l6 2q120 57 197 68q27 5 39 41q28 91 88 237q39 98 51 136q5 18 39 79q2 6 8.5 17.5t8.5 17.5l20 37l41 82q29 57 59 102q27 40 54 78l43 62q57 86 180 209q54 54 137 120 q50 42 166 99q19 8 31 10q10 2 32 2q25 -4 39 -18q2 0 7 -1t8 -1q28 -8 39.5 -38t-0.5 -65q-43 -123 -70 -174q-26 -53 -52 -111t-60 -139t-48 -115q-103 -235 -209 -548l-10 -29l8 -8q3 -11 0 -21q-3 -8 -14 -12l-8 -4q-94 -303 -117 -553q-6 -49 -6 -100q0 -47 11 -62 t46 -18h37q27 -7 31 -11q20 -10 25 -40.5t-9 -55.5q-12 -24 -22 -30q-25 -12 -39.5 -18t-37 -12t-43 -3t-40.5 14q-61 31 -64 121v82q8 272 89 579q5 23 22 80q-82 -14 -176 -37l-72 -20l-147 -39q-29 -6 -41 -45q-3 -11 -29 -92q-5 -20 -20 -68.5t-21 -73.5 q-20 -80 -47 -153q-22 -64 -61 -188t-45 -144q-1 -4 -43 -139q-60 -193 -117 -328q-10 -24 -29 -55l-12 -21q-25 -45 -68 -45h-6q-65 0 -119 66q-18 22 -22 70zM399 756q2 -2 4 -2q5 0 5 2l81 18l62 14q126 30 211 35q6 2 22 2h13q52 171 116 342q58 155 211 516l88 228 l-8 -4q-56 -30 -137 -90q-68 -50 -170 -156q-4 -4 -9 -8.5t-11 -11t-9 -9.5q-11 -9 -39 -47l-6 -6q-8 -14 -22 -31q-2 -3 -37.5 -52t-52.5 -75q-90 -129 -152 -254l-27 -61l-22 -53q-20 -44 -92 -226l-19 -55v-16z" />
</font>
</defs>
</svg>
